<?xml version="1.0" encoding="UTF-8"?>
<svg id="Layer_1" data-name="Layer 1" xmlns="http://www.w3.org/2000/svg" version="1.1" viewBox="0 0 292.5 400">
  <defs>
    <style>
      .cls-1 {
        fill: #ab2228;
      }

      .cls-1, .cls-2, .cls-3 {
        fill-rule: evenodd;
        stroke-width: 0px;
      }

      .cls-2 {
        fill: #fff;
      }

      .cls-3 {
        fill: #1b1d1f;
      }
    </style>
  </defs>
  <path class="cls-3" d="M280.3,268.7l12.2,6.7v-2.4l-12.2-4.3ZM151.1,309.4l-1-.9,115.9-172.4,4.4-6.6c-19.9,3.6-41.6,9-63.3,16.3l-4.5,7.6L57,399.8l235.5-167.6v-2.4l-141.4,79.6ZM287.5,103.3c-20.8,3.6-42.5,9-65.1,15.4l-4.3,7.5-6.5,11.5c21.7-5.4,42.5-9.9,62.4-12.7l9.9-15.1,3.7-5.7v-.9ZM230.5,105.1c19-5.4,37.1-9.9,55.2-13.6,2.3-.5,4.5-.9,6.8-1.3V.9l-62,104.2Z"/>
  <polygon class="cls-3" points="292.5 162.5 292.5 208.7 260.3 224.4 292.5 162.5"/>
  <path class="cls-2" d="M292.5,90.2V.9l.4-.7"/>
  <path class="cls-1" d="M264.1,103.1c-26.3,6.3-52.5,14.5-78.7,23.5-30.8,10-57.9,21.7-82.3,33.5-24.4,11.8-46.1,23.5-63.3,35.3-17.2,11.8-30.8,23.6-39.8,34.4l.9.7c10.9-9,24.4-19.9,41.6-29.8,16.3-10.8,36.2-20.8,57.9-30.7,21.7-9.9,45.2-19.9,71.4-28.9,15.5-5.3,31-10.3,46.3-14.9,10.6-3.1,21.1-6,31.5-8.6,11.7-2.9,23.1-5.5,34.3-7.7,2.9-.6,5.7-1.1,8.6-1.7v-11.8c-9.3,2-18.8,4.3-28.4,6.7ZM191.7,148.4c-25.3,8.1-48.8,17.2-68.7,26.2-20.8,9-37.1,19-51.5,28-13.6,9-23.5,18.1-28.9,27.1-5.4,8.1-6.3,16.3-1.8,22.6s13.6,10.8,26.2,13.6c12.7,2.7,28.9,3.6,48.8,2.7-14.5,0-27.1-1.8-37.1-3.6-9.9-2.7-16.3-6.3-19.9-11.8-4.5-6.3-3.6-13.6,1.8-21.7,5.4-8.1,15.4-17.2,28.9-26.2,13.6-9,30.7-19,51.5-28,18.8-8.1,39.1-16.4,61.6-23.9,2.3-.8,4.7-1.6,7.1-2.3,19.3-6.1,37.8-10.5,56.3-15,.5-.1,1.1-.3,1.6-.4,8.5-2,16.8-3.7,24.9-5v-5.3c-10.9,1.5-22.1,3.4-33.9,5.9-21.7,4.5-44.3,9.9-66.9,17.2Z"/>
</svg>