<?xml version="1.0" encoding="UTF-8"?>
<svg id="Layer_1" data-name="Layer 1" xmlns="http://www.w3.org/2000/svg" version="1.1" viewBox="0 0 500 400">
  <defs>
    <style>
      .cls-1 {
        fill: #ab2228;
      }

      .cls-1, .cls-2 {
        fill-rule: evenodd;
        stroke-width: 0px;
      }

      .cls-2 {
        fill: #fff;
      }
    </style>
  </defs>
  <path class="cls-2" d="M343.6,95.1c-13.6.9-27.1,2.7-42.5,5.4l9.9,19c16.3-.9,30.7-.9,43.4,0-12.7,0-26.2,0-41.6,2.7l105.8,195.3-138.3-48.8,219.7,121.2L343.6,95.1M150.1,308.5l120.3-179c-19.9,3.6-41.6,9-63.3,16.3L57,399.8l251.4-179-157.3,88.6M287.5,103.3c-20.8,3.6-42.5,9-65.1,15.4l-10.8,19c21.7-5.4,42.5-9.9,62.4-12.7l13.6-20.8M337.3,83.4L292.9.2l-62.4,104.9c19-5.4,37.1-9.9,55.2-13.6,18.1-3.6,35.3-6.3,51.5-8.1M334.5,226.2l-33.5-21.7-40.7,19.9,38-73.2,36.2,75"/>
  <path class="cls-1" d="M368,122.2c-13.6-1.8-30.7-.9-48.8,0-19,1.8-38.9,4.5-60.6,9-21.7,4.5-44.3,9.9-66.9,17.2-25.3,8.1-48.8,17.2-68.7,26.2-20.8,9-37.1,19-51.5,28-13.6,9-23.5,18.1-28.9,27.1-5.4,8.1-6.3,16.3-1.8,22.6,4.5,6.3,13.6,10.8,26.2,13.6,12.7,2.7,28.9,3.6,48.8,2.7-14.5,0-27.1-1.8-37.1-3.6-9.9-2.7-16.3-6.3-19.9-11.8-4.5-6.3-3.6-13.6,1.8-21.7,5.4-8.1,15.4-17.2,28.9-26.2,13.6-9,30.7-19,51.5-28,20.8-9,43.4-18.1,68.7-26.2,19.9-6.3,38.9-10.8,57.9-15.4,19-4.5,37.1-7.2,53.3-9,17.2-1.8,32.5-3.6,46.1-3.6M0,229.8c9-10.8,22.6-22.6,39.8-34.4,17.2-11.8,38.9-23.5,63.3-35.3,24.4-11.8,51.5-23.5,82.3-33.5,26.2-9,52.4-17.2,78.7-23.5,25.3-6.3,49.7-11.8,72.3-14.5,22.6-3.6,43.4-5.4,62.4-5.4s34.4.9,47,4.5c12.7,2.7,21.7,8.1,27.1,14.5,6.3,8.1,6.3,18.1,0,29.8-6.3,10.8-18.1,23.5-35.3,37.1,11.8-10.8,19-19.9,23.5-28.9,3.6-9,2.7-17.2-2.7-23.5-5.4-6.3-14.5-11.8-27.1-14.5-12.7-2.7-28-4.5-47-4.5s-39.8,1.8-62.4,5.4c-22.6,3.6-47,8.1-72.3,14.5-25.3,6.3-51.5,14.5-77.8,23.5-26.2,9-49.7,19-71.4,28.9-21.7,9.9-41.6,19.9-57.9,30.7-17.2,9.9-30.7,20.8-41.6,29.8"/>
</svg>