<svg width="316" height="127" viewBox="0 0 316 127" fill="none" xmlns="http://www.w3.org/2000/svg"><path d="M55.7211 79.3515H55.6687L50.1818 89.468H56.918L55.7211 79.3515ZM48.7247 92.3044L46.722 95.9973H42.8467L53.4582 76.4897H58.9722L61.4428 95.9973H57.6461L57.1511 92.3044H48.7247Z" fill="#fff"/><path d="M78.4449 83.0193L78.6798 81.9533C79.1469 79.6905 78.3157 79.5342 75.0376 79.5342C71.2661 79.5342 70.4603 80.1575 69.6545 83.9813L68.7431 88.2984C67.9373 92.2008 68.2499 92.9542 72.1776 92.9542C75.1938 92.9542 76.5732 92.8503 77.1442 90.0671L77.379 89.0012H81.1242L80.8641 90.2758C79.6934 96.1538 76.3637 95.9451 71.501 96.1538C64.5823 96.414 63.828 94.1511 64.9717 88.4547L65.9084 83.9813C67.2354 77.7401 69.9653 76.3354 75.7142 76.3354C80.5786 76.3354 83.3347 76.3608 82.425 81.9533L82.1902 83.0193H78.4449Z" fill="#fff"/><path d="M97.5787 83.0193L97.8136 81.9533C98.2806 79.6905 97.4495 79.5342 94.1714 79.5342C90.3999 79.5342 89.5941 80.1575 88.7883 83.9813L87.8769 88.2984C87.0711 92.2008 87.3837 92.9542 91.3114 92.9542C94.3276 92.9542 95.707 92.8503 96.2779 90.0671L96.5128 89.0012H100.258L99.9979 90.2758C98.8272 96.1538 95.4975 95.9451 90.6348 96.1538C83.7161 96.414 82.9618 94.1511 84.1055 88.4547L85.0422 83.9813C86.3692 77.7401 89.0991 76.3354 94.8479 76.3354C99.7124 76.3354 102.469 76.3608 101.559 81.9533L101.324 83.0193H97.5787Z" fill="#fff"/><path d="M108.313 84.5521H117.442L116.766 87.6207H107.638L106.544 92.7968H116.246L115.569 95.9964H102.124L106.259 76.4897H119.626L118.951 79.6894H109.328L108.313 84.5521Z" fill="#fff"/><path d="M123.937 92.7968H133.04L132.363 95.9964H119.516L123.651 76.4897H127.396L123.937 92.7968Z" fill="#fff"/><path d="M141.174 84.5521H150.303L149.628 87.6207H140.499L139.405 92.7968H149.107L148.431 95.9964H134.985L139.12 76.4897H152.488L151.813 79.6894H142.189L141.174 84.5521Z" fill="#fff"/><path d="M162.989 86.3478C165.745 86.3478 166.525 85.8022 167.149 82.9405C167.722 80.1826 167.331 79.6894 164.653 79.6894H159.45L158.046 86.3478H162.989ZM157.371 89.5466L155.992 95.9973H152.246L156.382 76.4897H166.344C170.609 76.5954 171.961 77.9215 171.024 82.3424C170.4 85.2295 169.803 87.3361 166.396 87.8302L166.369 87.9341C168.97 88.169 169.308 89.599 168.736 92.3551L167.955 95.9973H164.211L164.991 92.3551C165.328 90.7173 164.914 89.5736 163.118 89.5466H157.371Z" fill="#fff"/><path d="M183.267 79.3515H183.215L177.728 89.468H184.464L183.267 79.3515ZM176.271 92.3044L174.268 95.9973H170.393L181.004 76.4897H186.518L188.989 95.9973H185.192L184.697 92.3044H176.271Z" fill="#fff"/><path d="M197.851 95.9969H194.106L197.564 79.6898H191.842L192.518 76.4902H207.707L207.031 79.6898H201.309L197.851 95.9969Z" fill="#fff"/><path d="M212.279 84.5521H221.408L220.732 87.6207H211.604L210.51 92.7968H220.212L219.535 95.9964H206.09L210.224 76.4897H223.592L222.917 79.6894H213.294L212.279 84.5521Z" fill="#fff"/><path d="M233.99 92.7968C236.511 92.7968 237.787 90.5357 238.229 88.3505L239.217 83.7463C239.919 80.4951 239.009 79.6894 236.148 79.6894H230.583L227.8 92.7968H233.99ZM227.514 76.4897H236.825C242.208 76.4897 244.081 78.4409 242.962 83.7463L241.975 88.3505C241.116 92.4075 239.217 95.9964 233.314 95.9964H223.377L227.514 76.4897Z" fill="#fff"/><path d="M42.9111 104.784H56.023V106.26H44.7183V110.519H55.5812V111.996H44.7183V116.662H56.0972V118.137H42.9111V104.784Z" fill="#fff"/><path d="M74.6392 108.953C74.6392 106.628 73.238 106.112 71.5042 106.112H64.183C62.4492 106.112 61.0463 106.628 61.0463 108.953V113.969C61.0463 116.292 62.4492 116.809 64.183 116.809H71.5042C72.887 116.809 73.5697 116.606 74.0857 115.868L68.7376 112.474L69.5495 111.202L74.6392 114.431V108.953ZM75.5803 116.827C74.8801 117.805 73.6614 118.284 71.6892 118.284H63.998C60.3828 118.284 59.2383 116.662 59.2383 113.286V109.635C59.2383 106.259 60.3828 104.637 63.998 104.637H71.6892C75.3035 104.637 76.4463 106.259 76.4463 109.635V113.286C76.4463 114.116 76.373 114.835 76.2254 115.444L77.5716 116.292L76.7606 117.566L75.5803 116.827Z" fill="#fff"/><path d="M80.3828 104.784H82.1917V114.761C82.1917 116.053 82.6334 116.809 85.0866 116.809H91.3584C93.8107 116.809 94.2524 116.053 94.2524 114.761V104.784H96.0604V114.78C96.0604 117.492 94.6959 118.285 91.3025 118.285H85.1416C81.7482 118.285 80.3828 117.492 80.3828 114.78V104.784Z" fill="#fff"/><path d="M102.209 104.784H100.401V118.137H102.209V104.784Z" fill="#fff"/><path d="M111.839 106.26H105.089V104.784H120.396V106.26H113.646V118.137H111.839V106.26Z" fill="#fff"/><path d="M129.44 112.494L121.786 104.784H124.221L130.343 110.981L136.467 104.784H138.901L131.247 112.494V118.137H129.44V112.494Z" fill="#fff"/><path d="M166.596 108.232C166.596 106.648 165.728 106.259 164.161 106.259H155.401V111.405H164.308C165.748 111.405 166.596 110.889 166.596 109.506V108.232ZM153.594 104.785H164.585C167.02 104.785 168.403 105.3 168.403 108.417C168.403 111.387 168.163 112.88 164.235 112.88H155.401V118.137H153.594V104.785Z" fill="#fff"/><path d="M171.655 104.784H173.464V116.662H183.829V118.137H171.655V104.784Z" fill="#fff"/><path d="M194.07 106.26L189.588 113.84H198.552L194.07 106.26ZM192.945 104.784H195.196L203.126 118.137H201.078L199.419 115.315H188.721L187.061 118.137H185.015L192.945 104.784Z" fill="#fff"/><path d="M205.807 104.784H208.5L220.727 116.514V104.784H222.535V118.137H219.842L207.614 106.406V118.137H205.807V104.784Z" fill="#fff"/><path d="M226.38 113.931H228.076V114.872C228.076 116.181 228.776 116.809 231.027 116.809H236.633C239.252 116.809 240.027 116.256 240.027 114.337C240.027 112.659 239.364 112.235 237.112 112.235H233.683C228.167 112.235 226.36 111.903 226.36 108.361C226.36 105.318 228.167 104.637 231.894 104.637H235.785C240.268 104.637 241.392 105.779 241.392 108.158V108.62H239.696C239.658 106.498 239.437 106.112 234.698 106.112H232.779C229.294 106.112 228.057 106.295 228.057 108.49C228.057 110.077 228.555 110.613 231.378 110.613H236.727C240.248 110.613 241.725 111.626 241.725 113.895V114.761C241.725 118.045 239.031 118.284 236.356 118.284H231.34C228.703 118.284 226.38 117.823 226.38 114.91V113.931Z" fill="#fff"/><path fill-rule="evenodd" clip-rule="evenodd" d="M155.928 37.9654L150.766 34.7222L144.635 37.6826L150.412 26.5761L155.928 37.9654ZM156.332 16.1601L149.607 3.47168L140.138 19.4749C143.01 18.6875 145.809 18.0074 148.543 17.4408C151.271 16.8864 153.869 16.4604 156.332 16.1601ZM148.801 19.2384C145.63 19.8399 142.331 20.595 138.905 21.5108L137.201 24.3996C140.516 23.5301 143.672 22.8684 146.672 22.4126L148.801 19.2384ZM127.849 50.5142L146.127 23.2149C143.032 23.8313 139.821 24.6362 136.489 25.6306L113.574 64.3384L151.858 37.0662L127.849 50.5142ZM157.324 18.0318C155.29 18.2213 153.135 18.505 150.862 18.8813L152.424 21.7718C154.919 21.5972 157.105 21.6051 158.982 21.7945C157.073 21.7797 154.958 21.908 152.638 22.1734L168.738 51.9564L147.617 44.4764L181.119 62.8953L157.324 18.0318Z" fill="#fff"/><path fill-rule="evenodd" clip-rule="evenodd" d="M105.002 38.5092C106.376 36.8374 108.395 35.0835 111.062 33.2545C113.731 31.4395 116.935 29.6324 120.675 27.8322C124.416 26.0172 128.582 24.3061 133.174 22.6954C137.218 21.275 141.185 20.0755 145.086 19.0977C148.966 18.1173 152.653 17.3665 156.139 16.8471C159.628 16.3425 162.8 16.0718 165.659 16.0421C168.498 16.0098 170.899 16.2316 172.855 16.7039C174.829 17.1797 176.225 17.913 177.045 18.9056C178.025 20.1837 178.033 21.6906 177.069 23.4296C176.107 25.1486 174.325 27.0125 171.719 29.016C173.501 27.421 174.678 25.9387 175.248 24.5645C175.814 23.193 175.696 22.0014 174.89 20.9913C174.071 19.9969 172.692 19.2679 170.749 18.8122C168.806 18.3539 166.425 18.14 163.598 18.1714C160.756 18.2212 157.602 18.5049 154.127 19.0244C150.655 19.5464 146.971 20.2946 143.074 21.275C139.19 22.2519 135.228 23.4541 131.187 24.8718C127.225 26.2608 123.579 27.7283 120.249 29.2779C116.906 30.8066 113.946 32.3553 111.372 33.9172C108.799 35.4956 106.676 37.0242 105.002 38.5092ZM160.993 22.1515C158.863 21.9446 156.378 21.9594 153.536 22.1952C150.68 22.4492 147.602 22.9171 144.303 23.5946C141.005 24.2572 137.594 25.1329 134.076 26.2215C130.193 27.4533 126.696 28.7795 123.586 30.2007C120.479 31.622 117.873 33.0476 115.775 34.4855C113.674 35.9216 112.207 37.2783 111.372 38.5555C110.535 39.851 110.456 40.979 111.136 41.9445C111.845 42.9214 113.194 43.6094 115.181 44.0031C117.172 44.3968 119.649 44.5226 122.618 44.382C120.39 44.382 118.528 44.1751 117.031 43.7639C115.529 43.3702 114.505 42.7861 113.953 42.0135C113.289 41.0506 113.384 39.9375 114.236 38.6742C115.074 37.3961 116.541 36.0473 118.639 34.626C120.754 33.1908 123.367 31.7695 126.476 30.3631C129.584 28.9602 133.081 27.6428 136.964 26.4118C139.996 25.4803 142.938 24.6998 145.795 24.0695C148.668 23.4366 151.389 22.9617 153.962 22.6491C156.519 22.3165 158.863 22.1515 160.993 22.1515Z" fill="#AC2328"/></svg>