<?xml version="1.0" encoding="UTF-8"?>
<svg id="layer" xmlns="http://www.w3.org/2000/svg" version="1.1" viewBox="0 0 625 145.8">
  <defs>
    <style>
      .cls-1 {
        fill: #378727;
        stroke-width: 0px;
      }
    </style>
  </defs>
  <path class="cls-1" d="M593.3,96.7c-5.9,0-10.7,4.8-10.7,10.7s4.8,10.7,10.7,10.7,10.7-4.8,10.7-10.7-4.8-10.7-10.7-10.7M593.3,116.1c-4.8,0-8.8-3.9-8.8-8.8s3.9-8.8,8.8-8.8,8.8,3.9,8.8,8.8-3.9,8.8-8.8,8.8"/>
  <g>
    <polygon class="cls-1" points="39.6 113.3 0 113.3 31.8 0 113 0 105.3 26.9 63.8 26.9 58.5 46.2 99.9 46.2 93 70.9 51.5 70.9 39.6 113.3"/>
    <path class="cls-1" d="M131.4,113.3h-39.2l23.2-82.8h39.2l-23.2,82.8ZM156.7,22.6h-39.2L123.9,0h39.2l-6.4,22.6Z"/>
    <path class="cls-1" d="M233,113.3h-38.4l2.7-9.3c-7.7,6.5-15.6,11.2-28.2,11.2s-20.8-6.1-20.8-19,5.6-35.5,14-50.4c6.1-11.1,17-16.9,29.9-16.9s19.3,4.9,22.5,10.9L225.6-.1h39.2l-31.8,113.4ZM203.6,55.1c-3.5,0-7,1.1-9,5.9-2.9,7-5.5,13.8-5.5,20.7s2.3,5.9,6.1,5.9,5-.9,6.7-2l7.9-27.2c-1.4-1.9-3.8-3.3-6.2-3.3"/>
    <path class="cls-1" d="M343.7,77.2h-54.1c-1.1,4.4-2.1,7.4-2.1,10.9s.3,5.9,5.8,5.9,7.9-2.1,10.2-10.2h38.4c-4.9,23.5-32.8,31.6-50,31.6s-41.3-3.3-41.3-25.7,6.2-32.7,14.4-43.4c9.9-12.9,27-17.8,42.8-17.8,24.3,0,40.1,5,40.1,25.7s-2.1,16.1-4.2,23M304.5,49.4c-4.9,0-8.2,3.3-10.3,11.7h16.1c.5-1.7,1.1-4.3,1.1-5.8-.1-4.6-2.8-5.9-6.9-5.9"/>
    <polygon class="cls-1" points="383.1 113.3 343.9 113.3 375.6 0 414.8 0 383.1 113.3"/>
    <path class="cls-1" d="M434.8,113.3h-39.2l23.2-82.8h39.2l-23.2,82.8ZM460.2,22.6h-39.2l6.4-22.6h39.2l-6.4,22.6Z"/>
    <path class="cls-1" d="M597.6,105.1c0-2.1-1.2-3.3-3.9-3.3h-4.1v11h1.9v-4.5h1.5l2.7,4.5h2.1l-2.9-4.6c1.6-.3,2.7-1.2,2.7-3.1M591.5,106.6v-3.1h1.5c1.2,0,2.6,0,2.6,1.5s-1.4,1.6-2.6,1.6h-1.5Z"/>
    <path class="cls-1" d="M583.5,30.4h0c0,.1-21.3,46-21.3,46l.6-46-53.4.2,5.2-18.4h-39.2l-21.3,75.5c-1.2,4.2-1.7,8-1.7,11.5,0,8.5,4.4,14.1,15.9,14.1h34.9l5.8-20.4h-8.4c-5.3,0-6.8-1.3-6.8-4.9s.6-5,1.4-7.4l8.8-31.4h20.9l5.9,64.1c-1,4.8-2.6,7.6-5.6,8.9-3.3,1.5-10.8,1.2-13.5,1.1h-.5l-6.3,22.5h26.8c15.8,0,23.5-7.9,34.8-25.6l57.1-89.8h-40.1Z"/>
  </g>
</svg>