<?xml version="1.0" encoding="UTF-8"?><svg id="a" xmlns="http://www.w3.org/2000/svg" width="444.79" height="59.89" viewBox="0 0 444.79 59.89"><path d="M88.53,15.25c-2.1,0-3.74-1.64-3.74-3.74s1.64-3.68,3.74-3.68,3.68,1.53,3.68,3.68-1.53,3.74-3.68,3.74ZM85.19,47.71v-27.7c0-.51.34-.79.85-.79h4.93c.51,0,.79.28.79.79v27.7c0,.57-.28.85-.79.85h-4.93c-.51,0-.85-.28-.85-.85Z" fill="#1a79bf" stroke-width="0"/><path d="M96.12,47.71v-25.94c0-.45.17-.79.62-1.02,3.29-1.42,7.25-2.21,11.27-2.21,7.82,0,13.14,3.63,13.14,12.69v16.48c0,.57-.28.85-.79.85h-4.93c-.51,0-.85-.28-.85-.85v-16.37c0-5.32-2.44-6.91-6.57-6.91-1.93,0-4.02.28-5.32.62v22.66c0,.57-.28.85-.85.85h-4.87c-.57,0-.85-.28-.85-.85Z" fill="#1a79bf" stroke-width="0"/><path d="M135.38,49.24c-3.85,0-7.93-1.08-11.5-3.68-.51-.28-.51-.68-.23-1.13l2.15-3.68c.28-.51.62-.57,1.13-.23,2.55,1.87,5.61,2.89,8.55,2.89s5.27-1.13,5.27-3.29c0-2.27-2.72-2.89-5.27-3.34-4.25-.79-11.44-2.55-11.44-9.4,0-6.29,5.95-8.89,12.01-8.89,3.23,0,6.51.79,9.86,2.61.45.23.57.68.28,1.13l-2.15,3.63c-.28.4-.68.51-1.13.28-2.1-1.13-4.64-1.87-7.19-1.87-3.34,0-5.15,1.25-5.15,3.12,0,2.32,2.55,2.89,6.29,3.63,4.64.85,10.54,2.32,10.54,8.84s-5.21,9.4-12.01,9.4Z" fill="#1a79bf" stroke-width="0"/><path d="M154.69,15.25c-2.1,0-3.74-1.64-3.74-3.74s1.64-3.68,3.74-3.68,3.68,1.53,3.68,3.68-1.53,3.74-3.68,3.74ZM151.35,47.71v-27.7c0-.51.34-.79.85-.79h4.93c.51,0,.79.28.79.79v27.7c0,.57-.28.85-.79.85h-4.93c-.51,0-.85-.28-.85-.85Z" fill="#1a79bf" stroke-width="0"/><path d="M173.78,59.89c-4.65,0-8.04-1.19-11.05-3.51-.45-.28-.45-.62-.17-1.13l2.38-3.51c.28-.45.68-.57,1.13-.23,2.1,1.53,4.7,2.55,7.65,2.55,4.25,0,6.29-1.87,6.12-7.59-1.81.79-4.25,1.25-6.29,1.25-6.68,0-12.24-3.74-12.24-11.72v-5.32c0-8.89,5.89-12.12,13.08-12.12,4.19,0,8.27.91,11.33,2.21.45.17.62.51.62.96v24.98c0,8.38-3.63,13.2-12.57,13.2ZM174.18,41.93c2.15,0,4.53-.51,5.61-1.42v-15.46c-1.19-.4-3.57-.62-5.27-.62-3.91,0-6.57,1.36-6.57,6.23v5.32c0,4.47,2.78,5.95,6.23,5.95Z" fill="#1a79bf" stroke-width="0"/><path d="M203.47,18.54c6.91,0,12.35,3.68,12.35,12.8v16.37c0,.57-.28.85-.79.85h-4.93c-.51,0-.85-.28-.85-.85v-16.2c0-5.44-2.27-7.08-6.46-7.08-2.04,0-4.08.34-5.44,1.02v22.26c0,.57-.28.85-.85.85h-4.87c-.57,0-.85-.28-.85-.85V8.91c0-.57.28-.85.85-.85h4.87c.57,0,.85.28.85.85v10.59c1.64-.57,3.68-.96,6.12-.96Z" fill="#1a79bf" stroke-width="0"/><path d="M230.83,43.24c.51,0,1.42-.06,2.32-.11.57,0,.91.28.91.79v4.3c0,.45-.23.85-.79.91-.96.06-2.15.11-3,.11-5.89,0-10.48-3-10.48-10.48V12.87c0-.51.28-.79.85-.79h4.3c.45,0,.79.28.85.74l.51,6.8h6.06c.51,0,.85.28.85.79v4.13c0,.51-.34.79-.85.79h-6v12.97c0,3.12,1.59,4.93,4.47,4.93Z" fill="#1a79bf" stroke-width="0"/><path d="M276.83,49.24c-7.82,0-12.91-4.42-12.91-11.44v-7.59c0-7.14,5.1-11.67,12.91-11.67s12.92,4.53,12.92,11.67v7.59c0,7.02-5.1,11.44-12.92,11.44ZM276.83,43.35c4.02,0,6.29-1.93,6.29-5.55v-7.59c0-3.74-2.27-5.78-6.29-5.78s-6.29,2.04-6.29,5.78v7.59c0,3.63,2.21,5.55,6.29,5.55Z" fill="#31ab46" stroke-width="0"/><path d="M304.42,13.1c-3,0-4.59,1.98-4.59,5.21v1.3h6.51c.51,0,.85.28.85.85v4.08c0,.57-.34.85-.85.85h-6.51v22.32c0,.57-.28.85-.85.85h-4.87c-.57,0-.85-.28-.85-.85v-29.4c0-7.31,4.59-10.93,10.14-10.93,1.36,0,2.49.06,3.46.23.57.06.79.4.79.91v3.91c0,.57-.23.85-.68.85-.68-.11-1.59-.17-2.55-.17Z" fill="#31ab46" stroke-width="0"/><path d="M323.9,43.24c.51,0,1.42-.06,2.32-.11.57,0,.91.28.91.79v4.3c0,.45-.23.85-.79.91-.96.06-2.15.11-3,.11-5.89,0-10.48-3-10.48-10.48V12.87c0-.51.28-.79.85-.79h4.3c.45,0,.79.28.85.74l.51,6.8h6.06c.51,0,.85.28.85.79v4.13c0,.51-.34.79-.85.79h-6v12.97c0,3.12,1.59,4.93,4.47,4.93Z" fill="#31ab46" stroke-width="0"/><path d="M337.1,47.82l-7.99-27.7c-.17-.51.06-.91.62-.91h5.1c.45,0,.79.17.91.68l2.15,9.29c.62,2.83,2.27,9.52,2.89,12.18h.11c.74-3.29,1.98-8.1,2.78-11.21l2.72-9.86c.11-.45.45-.68.91-.68h5.27c.51,0,.79.23.91.68l2.78,9.86c.79,3.12,1.98,7.93,2.72,11.21h.17c.57-2.66,2.21-9.35,2.89-12.18l2.1-9.29c.11-.51.45-.68.96-.68h5.04c.62,0,.85.4.68.91l-7.99,27.7c-.11.51-.45.74-.91.74h-5.66c-.51,0-.79-.23-.91-.74l-3.17-11.5c-.79-3-1.64-6.46-2.1-8.78h-.23c-.51,2.32-1.36,5.78-2.15,8.78l-3.12,11.5c-.11.51-.45.74-.91.74h-5.66c-.51,0-.79-.23-.91-.74Z" fill="#31ab46" stroke-width="0"/><path d="M385.71,18.54c7.02,0,11.78,3.51,11.78,11.5v16.54c0,.45-.23.79-.62.96-2.95.91-7.19,1.7-11.39,1.7-6.57,0-12.63-2.38-12.63-9.46,0-6.17,5.15-9.06,12.41-9.06,1.87,0,3.97.23,5.66.45v-1.08c0-4.02-1.47-5.72-5.66-5.72-2.83,0-5.44.74-7.25,1.81-.4.28-.85.23-1.13-.23l-2.27-3.45c-.28-.45-.28-.74,0-.96,2.72-1.87,6.51-3,11.1-3ZM385.48,43.52c1.87,0,4.02-.34,5.44-.68v-6.4c-1.53-.23-3.74-.45-5.49-.45-4.25,0-5.95,1.42-5.95,3.74,0,2.66,2.55,3.79,6,3.79Z" fill="#31ab46" stroke-width="0"/><path d="M401.51,47.71v-26.06c0-.45.17-.79.62-.96,2.89-1.42,6.46-2.15,9.91-2.15,1.76,0,3.63.11,5.78.45.51.06.74.4.74.85v4.08c0,.51-.34.79-.91.68-1.42-.23-3.06-.23-4.59-.23-2.04,0-3.91.34-4.98.79v22.54c0,.57-.28.85-.85.85h-4.87c-.57,0-.85-.28-.85-.85Z" fill="#31ab46" stroke-width="0"/><path d="M443.94,36.67h-17.22v1.59c0,3.46,2.38,5.21,6,5.21s5.89-1.19,7.99-2.61c.4-.28.85-.23,1.13.17l2.32,3.12c.34.4.28.85-.17,1.19-3,2.38-6.68,3.91-11.5,3.91-6.4,0-12.41-3.51-12.41-11.04v-8.04c0-8.33,6.23-11.61,12.46-11.61s12.24,3.29,12.24,11.61v5.72c0,.51-.28.79-.85.79ZM432.55,24.32c-3.34,0-5.83,1.59-5.83,5.78v1.47h11.67v-1.47c0-4.14-2.66-5.78-5.83-5.78Z" fill="#31ab46" stroke-width="0"/><path d="M241.16,49.24c-.85,0-2.43-.06-3.4-.11-.57-.06-.79-.45-.79-.91v-4.3c0-.51.34-.79.91-.79.91.06,1.81.11,2.32.11l8.81.17c2.95,0,5.27-1.13,5.27-3.29,0-2.27-2.72-2.89-5.27-3.34-4.25-.79-11.44-2.55-11.44-9.4,0-6.29,5.95-8.89,12.01-8.89,3.23,0,6.51.79,9.86,2.61.45.23.57.68.28,1.13l-2.15,3.63c-.28.4-.68.51-1.13.28-2.1-1.13-4.65-1.87-7.19-1.87-3.34,0-5.15,1.25-5.15,3.12,0,2.32,2.55,2.89,6.29,3.63,4.64.85,10.54,2.32,10.54,8.84s-5.21,9.4-12.01,9.4h-7.74Z" fill="#31ab46" stroke-width="0"/><path d="M51.97,3.41c-1.07.48-1.99,1.16-2.75,1.96h0C40.88-.44,29.76-1.83,19.82,2.67,5.23,9.27-1.47,26.14,4.37,40.87h0c-3.84,2.22-5.45,7.02-3.59,11.14,1.98,4.38,7.15,6.32,11.53,4.34,1.07-.48,1.99-1.16,2.75-1.96,8.35,5.81,19.46,7.2,29.39,2.7,14.59-6.6,21.3-23.47,15.46-38.2h0c3.84-2.22,5.45-7.02,3.59-11.14-1.98-4.38-7.15-6.32-11.53-4.34Z" fill="#fff" stroke-width="0"/><path d="M17.38,49.28c.04-.42.05-.85.03-1.27.03.43.01.85-.03,1.27Z" fill="#fff" stroke-width="0"/><path d="M49.23,5.38h0c-2.35,2.49-3.09,6.25-1.59,9.56.39.86.9,1.62,1.51,2.28l-8.73,14.56c-1.2-.25-2.46-.19-3.65.17l-5.23-7.11c1.73-2.55,1.77-6-.16-8.62-2.45-3.33-7.12-4.04-10.44-1.59-3.32,2.44-4.04,7.12-1.59,10.44.09.11.17.22.26.33l-8.73,14.56c-1.85-.48-3.87-.35-5.75.5-.26.12-.51.25-.75.39h0C-1.48,26.14,5.23,9.27,19.83,2.66,29.77-1.84,40.88-.43,49.23,5.38Z" fill="#31ab46" stroke-width="0"/><path d="M59.92,18.89c5.84,14.73-.87,31.6-15.46,38.2-9.95,4.5-21.05,3.1-29.39-2.71,2.34-2.49,3.08-6.25,1.58-9.55-.39-.86-.91-1.63-1.51-2.29l8.73-14.56c1.2.25,2.46.2,3.65-.17l5.23,7.11c-1.73,2.54-1.76,6,.16,8.62,2.44,3.32,7.12,4.03,10.44,1.59,3.32-2.44,4.04-7.12,1.59-10.44-.08-.12-.17-.22-.26-.33l8.73-14.56c1.86.48,3.87.35,5.75-.5.26-.12.51-.25.75-.39h0Z" fill="#31ab46" stroke-width="0"/><circle cx="8.72" cy="48.41" r="4.98" fill="#31ab46" stroke-width="0"/><circle cx="55.57" cy="11.35" r="4.98" fill="#1a79bf" stroke-width="0"/></svg>