<?xml version="1.0" encoding="UTF-8"?>
<svg id="Layer_1" data-name="Layer 1" xmlns="http://www.w3.org/2000/svg" version="1.1" viewBox="0 0 268 75">
  <defs>
    <style>
      .cls-1 {
        fill: #ab2228;
      }

      .cls-1, .cls-2 {
        fill-rule: evenodd;
      }

      .cls-1, .cls-2, .cls-3 {
        stroke-width: 0px;
      }

      .cls-2, .cls-3 {
        fill: #fff;
      }
    </style>
  </defs>
  <g>
    <path class="cls-3" d="M76.7,29.5l.3-1.2c.5-2.6-.4-2.8-4.2-2.8s-5.3.7-6.2,5.1l-1,5c-.9,4.5-.6,5.4,4,5.4s5.1-.1,5.7-3.3l.3-1.2h4.3l-.3,1.5c-1.3,6.8-5.2,6.5-10.8,6.8-8,.3-8.8-2.3-7.5-8.9l1.1-5.2c1.5-7.2,4.7-8.8,11.3-8.8s8.8,0,7.7,6.5l-.3,1.2h-4.3Z"/>
    <path class="cls-3" d="M98.8,29.5l.3-1.2c.5-2.6-.4-2.8-4.2-2.8s-5.3.7-6.2,5.1l-1,5c-.9,4.5-.6,5.4,4,5.4s5.1-.1,5.7-3.3l.3-1.2h4.3l-.3,1.5c-1.3,6.8-5.2,6.5-10.8,6.8-8,.3-8.8-2.3-7.5-8.9l1.1-5.2c1.5-7.2,4.7-8.8,11.3-8.8s8.8,0,7.7,6.5l-.3,1.2h-4.3Z"/>
    <path class="cls-3" d="M111.1,31.3h10.5l-.8,3.5h-10.5l-1.3,6h11.2l-.8,3.7h-15.5l4.8-22.5h15.4l-.8,3.7h-11.1l-1.2,5.6Z"/>
    <path class="cls-3" d="M129.2,40.8h10.5l-.8,3.7h-14.8l4.8-22.5h4.3l-4,18.8Z"/>
    <path class="cls-3" d="M149,31.3h10.5l-.8,3.5h-10.5l-1.3,6h11.2l-.8,3.7h-15.5l4.8-22.5h15.4l-.8,3.7h-11.1l-1.2,5.6Z"/>
    <path class="cls-3" d="M167.7,37.1l-1.6,7.4h-4.3l4.8-22.5h11.5c4.9.1,6.5,1.6,5.4,6.7-.7,3.3-1.4,5.8-5.3,6.3h0c3,.4,3.4,2,2.7,5.2l-.9,4.2h-4.3l.9-4.2c.4-1.9,0-3.2-2.2-3.2h-6.6ZM174.2,33.4c3.2,0,4.1-.6,4.8-3.9.7-3.2.2-3.7-2.9-3.7h-6l-1.6,7.7h5.7Z"/>
    <path class="cls-3" d="M189.5,40.2l-2.3,4.3h-4.5l12.2-22.5h6.4l2.8,22.5h-4.4l-.6-4.3h-9.7ZM197.5,25.3h0l-6.3,11.7h7.8l-1.4-11.7Z"/>
    <path class="cls-3" d="M214.4,44.5h-4.3l4-18.8h-6.6l.8-3.7h17.5l-.8,3.7h-6.6l-4,18.8Z"/>
    <path class="cls-3" d="M231,31.3h10.5l-.8,3.5h-10.5l-1.3,6h11.2l-.8,3.7h-15.5l4.8-22.5h15.4l-.8,3.7h-11.1l-1.2,5.6Z"/>
    <path class="cls-3" d="M248.6,22h10.7c6.2,0,8.4,2.2,7.1,8.4l-1.1,5.3c-1,4.7-3.2,8.8-10,8.8h-11.4l4.8-22.5ZM256,40.8c2.9,0,4.4-2.6,4.9-5.1l1.1-5.3c.8-3.7-.2-4.7-3.5-4.7h-6.4l-3.2,15.1h7.1Z"/>
    <path class="cls-3" d="M6.9,56.1h17.4v2h-15v5.6h14.4v2h-14.4v6.2h15.1v2H6.9v-17.7Z"/>
    <path class="cls-3" d="M50.1,72.1c-.9,1.3-2.5,1.9-5.2,1.9h-10.2c-4.8,0-6.3-2.1-6.3-6.6v-4.8c0-4.5,1.5-6.6,6.3-6.6h10.2c4.8,0,6.3,2.1,6.3,6.6v4.8c0,1.1,0,2.1-.3,2.9l1.8,1.1-1.1,1.7-1.6-1ZM48.9,61.6c0-3.1-1.9-3.8-4.1-3.8h-9.7c-2.3,0-4.2.7-4.2,3.8v6.6c0,3.1,1.9,3.8,4.2,3.8h9.7c1.8,0,2.7-.3,3.4-1.2l-7.1-4.5,1.1-1.7,6.7,4.3v-7.3Z"/>
    <path class="cls-3" d="M56.5,56.1h2.4v13.2c0,1.7.6,2.7,3.8,2.7h8.3c3.2,0,3.8-1,3.8-2.7v-13.2h2.4v13.2c0,3.6-1.8,4.6-6.3,4.6h-8.2c-4.5,0-6.3-1-6.3-4.6v-13.2Z"/>
    <path class="cls-3" d="M82.9,56.1h2.4v17.7h-2.4v-17.7Z"/>
    <path class="cls-3" d="M98.1,58.1h-8.9v-2h20.3v2h-8.9v15.7h-2.4v-15.7Z"/>
    <path class="cls-3" d="M121.4,66.3l-10.1-10.2h3.2l8.1,8.2,8.1-8.2h3.2l-10.1,10.2v7.5h-2.4v-7.5Z"/>
    <path class="cls-3" d="M150.4,56.1h14.6c3.2,0,5.1.7,5.1,4.8s-.3,5.9-5.5,5.9h-11.7v7h-2.4v-17.7ZM167.6,60.7c0-2.1-1.1-2.6-3.2-2.6h-11.6v6.8h11.8c1.9,0,3-.7,3-2.5v-1.7Z"/>
    <path class="cls-3" d="M174.3,56.1h2.4v15.7h13.7v2h-16.1v-17.7Z"/>
    <path class="cls-3" d="M202.5,56.1h3l10.5,17.7h-2.7l-2.2-3.7h-14.2l-2.2,3.7h-2.7l10.5-17.7ZM204,58.1l-5.9,10h11.9l-5.9-10Z"/>
    <path class="cls-3" d="M219.5,56.1h3.6l16.2,15.5v-15.5h2.4v17.7h-3.6l-16.2-15.5v15.5h-2.4v-17.7Z"/>
    <path class="cls-3" d="M246.7,68.2h2.2v1.2c0,1.7.9,2.6,3.9,2.6h7.4c3.5,0,4.5-.7,4.5-3.3s-.9-2.8-3.9-2.8h-4.5c-7.3,0-9.7-.4-9.7-5.1s2.4-4.9,7.3-4.9h5.2c5.9,0,7.4,1.5,7.4,4.7v.6h-2.2c0-2.8-.3-3.3-6.6-3.3h-2.5c-4.6,0-6.3.2-6.3,3.1s.7,2.8,4.4,2.8h7.1c4.7,0,6.6,1.3,6.6,4.3v1.1c0,4.3-3.6,4.7-7.1,4.7h-6.6c-3.5,0-6.6-.6-6.6-4.5v-1.3Z"/>
  </g>
  <path class="cls-2" d="M39.1,11.8c-1.5.1-3,.3-4.7.6l1.1,2.1c1.8-.1,3.4-.1,4.8,0-1.4,0-2.9,0-4.6.3l11.7,21.6-15.3-5.4,24.3,13.4L39.1,11.8M17.7,35.4l13.3-19.8c-2.2.4-4.6,1-7,1.8L7.4,45.5l27.8-19.8-17.4,9.8M32.9,12.7c-2.3.4-4.7,1-7.2,1.7l-1.2,2.1c2.4-.6,4.7-1.1,6.9-1.4l1.5-2.3M38.4,10.5l-4.9-9.2-6.9,11.6c2.1-.6,4.1-1.1,6.1-1.5,2-.4,3.9-.7,5.7-.9M38.1,26.3l-3.7-2.4-4.5,2.2,4.2-8.1,4,8.3"/>
  <path class="cls-1" d="M41.8,14.8c-1.5-.2-3.4-.1-5.4,0-2.1.2-4.3.5-6.7,1-2.4.5-4.9,1.1-7.4,1.9-2.8.9-5.4,1.9-7.6,2.9-2.3,1-4.1,2.1-5.7,3.1-1.5,1-2.6,2-3.2,3-.6.9-.7,1.8-.2,2.5.5.7,1.5,1.2,2.9,1.5,1.4.3,3.2.4,5.4.3-1.6,0-3-.2-4.1-.4-1.1-.3-1.8-.7-2.2-1.3-.5-.7-.4-1.5.2-2.4.6-.9,1.7-1.9,3.2-2.9,1.5-1,3.4-2.1,5.7-3.1,2.3-1,4.8-2,7.6-2.9,2.2-.7,4.3-1.2,6.4-1.7,2.1-.5,4.1-.8,5.9-1,1.9-.2,3.6-.4,5.1-.4M1.1,26.7c1-1.2,2.5-2.5,4.4-3.8,1.9-1.3,4.3-2.6,7-3.9,2.7-1.3,5.7-2.6,9.1-3.7,2.9-1,5.8-1.9,8.7-2.6,2.8-.7,5.5-1.3,8-1.6,2.5-.4,4.8-.6,6.9-.6,2.1,0,3.8.1,5.2.5,1.4.3,2.4.9,3,1.6.7.9.7,2,0,3.3-.7,1.2-2,2.6-3.9,4.1,1.3-1.2,2.1-2.2,2.6-3.2.4-1,.3-1.9-.3-2.6-.6-.7-1.6-1.3-3-1.6-1.4-.3-3.1-.5-5.2-.5-2.1,0-4.4.2-6.9.6-2.5.4-5.2.9-8,1.6-2.8.7-5.7,1.6-8.6,2.6-2.9,1-5.5,2.1-7.9,3.2-2.4,1.1-4.6,2.2-6.4,3.4-1.9,1.1-3.4,2.3-4.6,3.3"/>
</svg>