<svg id="Layer_4" data-name="Layer 4" xmlns="http://www.w3.org/2000/svg" version="1.1" viewBox="0 0 690.9 913.1"><defs><style>.cls-1,.cls-2{fill:#1c1e1f;stroke-width:0}.cls-2{fill:#2c2c2d;fill-rule:evenodd}</style></defs><rect class="cls-1" x="-11.9" y="-12.1" width="714.8" height="929.8"/><g><g><path class="cls-2" d="M42.2,38.9c-1.6.1-3.3.4-5,.7l1.2,2.3c1.9-.1,3.7-.1,5.1,0-1.5,0-3.1,0-5,.3l12.6,23.3-16.5-5.8,26.2,14.4-18.6-35.1M19.2,64.3l14.3-21.3c-2.4.5-4.9,1.1-7.5,1.9l-17.9,30.2,29.9-21.3-18.8,10.5M35.5,39.8c-2.5.5-5.1,1.1-7.7,1.8l-1.3,2.3c2.6-.7,5.1-1.2,7.4-1.6l1.7-2.5M41.4,37.4l-5.3-9.9-7.4,12.5c2.2-.6,4.4-1.1,6.6-1.6,2.1-.4,4.2-.8,6.1-1M41.1,54.4l-4-2.5-4.8,2.3,4.5-8.7,4.3,8.9"/><path class="cls-2" d="M45.1,42.1c-1.7-.2-3.6-.2-5.8,0-2.2.2-4.6.6-7.2,1.1-2.6.5-5.2,1.2-8,2.1-3,1-5.8,2-8.2,3.1-2.4,1.1-4.5,2.2-6.1,3.3-1.6,1.1-2.8,2.2-3.4,3.2-.7,1-.7,1.9-.2,2.6.6.8,1.6,1.3,3.2,1.6,1.6.3,3.5.4,5.8.3-1.7,0-3.2-.2-4.4-.5-1.2-.3-2-.8-2.4-1.4-.5-.8-.4-1.6.2-2.6.7-1,1.8-2.1,3.4-3.2,1.7-1.1,3.7-2.2,6.1-3.3,2.4-1.1,5.2-2.1,8.2-3.1,2.4-.7,4.7-1.3,6.9-1.8,2.2-.5,4.4-.9,6.4-1.1,2-.3,3.8-.4,5.5-.4M1.3,54.9c1.1-1.3,2.7-2.7,4.7-4.1,2.1-1.4,4.6-2.8,7.5-4.2,2.9-1.4,6.2-2.8,9.8-4,3.2-1.1,6.3-2,9.3-2.8,3-.8,5.9-1.4,8.6-1.8,2.7-.4,5.2-.6,7.4-.6,2.2,0,4.1.1,5.6.5,1.5.4,2.6.9,3.3,1.7.8,1,.8,2.2,0,3.5-.8,1.3-2.1,2.8-4.2,4.4,1.4-1.2,2.3-2.4,2.8-3.5.4-1.1.4-2-.3-2.8-.6-.8-1.7-1.3-3.2-1.7-1.5-.4-3.4-.5-5.6-.5-2.2,0-4.7.3-7.4.7-2.7.4-5.6,1-8.6,1.8-3,.8-6.1,1.7-9.3,2.8-3.1,1.1-5.9,2.2-8.5,3.4-2.6,1.2-4.9,2.4-6.9,3.6-2,1.2-3.7,2.4-5,3.6"/></g><g><path class="cls-2" d="M145,38.9c-1.6.1-3.3.4-5,.7l1.2,2.3c1.9-.1,3.7-.1,5.1,0-1.5,0-3.1,0-5,.3l12.6,23.3-16.5-5.8,26.2,14.4-18.6-35.1M121.9,64.3l14.3-21.3c-2.4.5-4.9,1.1-7.5,1.9l-17.9,30.2,29.9-21.3-18.8,10.5M138.3,39.8c-2.5.5-5.1,1.1-7.7,1.8l-1.3,2.3c2.6-.7,5.1-1.2,7.4-1.6l1.7-2.5M144.2,37.4l-5.3-9.9-7.4,12.5c2.2-.6,4.4-1.1,6.6-1.6,2.1-.4,4.2-.8,6.1-1M143.9,54.4l-4-2.5-4.8,2.3,4.5-8.7,4.3,8.9"/><path class="cls-2" d="M147.8,42.1c-1.7-.2-3.6-.2-5.8,0-2.2.2-4.6.6-7.2,1.1-2.6.5-5.2,1.2-8,2.1-3,1-5.8,2-8.2,3.1-2.4,1.1-4.5,2.2-6.1,3.3-1.6,1.1-2.8,2.2-3.4,3.2-.7,1-.7,1.9-.2,2.6.6.8,1.6,1.3,3.2,1.6,1.6.3,3.5.4,5.8.3-1.7,0-3.2-.2-4.4-.5-1.2-.3-2-.8-2.4-1.4-.5-.8-.4-1.6.2-2.6.7-1,1.8-2.1,3.4-3.2,1.7-1.1,3.7-2.2,6.1-3.3,2.4-1.1,5.2-2.1,8.2-3.1,2.4-.7,4.7-1.3,6.9-1.8,2.2-.5,4.4-.9,6.4-1.1,2-.3,3.8-.4,5.5-.4M104.1,54.9c1.1-1.3,2.7-2.7,4.7-4.1,2.1-1.4,4.6-2.8,7.5-4.2,2.9-1.4,6.2-2.8,9.8-4,3.2-1.1,6.3-2,9.3-2.8,3-.8,5.9-1.4,8.6-1.8,2.7-.4,5.2-.6,7.4-.6,2.2,0,4.1.1,5.6.5,1.5.4,2.6.9,3.3,1.7.8,1,.8,2.2,0,3.5-.8,1.3-2.1,2.8-4.2,4.4,1.4-1.2,2.3-2.4,2.8-3.5.4-1.1.4-2-.3-2.8-.6-.8-1.7-1.3-3.2-1.7-1.5-.4-3.4-.5-5.6-.5-2.2,0-4.7.3-7.4.7-2.7.4-5.6,1-8.6,1.8-3,.8-6.1,1.7-9.3,2.8-3.1,1.1-5.9,2.2-8.5,3.4-2.6,1.2-4.9,2.4-6.9,3.6-2,1.2-3.7,2.4-5,3.6"/></g><g><path class="cls-2" d="M247.7,38.9c-1.6.1-3.3.4-5,.7l1.2,2.3c1.9-.1,3.7-.1,5.1,0-1.5,0-3.1,0-5,.3l12.6,23.3-16.5-5.8,26.2,14.4-18.6-35.1M224.7,64.3l14.3-21.3c-2.4.5-4.9,1.1-7.5,1.9l-17.9,30.2,29.9-21.3-18.8,10.5M241.1,39.8c-2.5.5-5.1,1.1-7.7,1.8l-1.3,2.3c2.6-.7,5.1-1.2,7.4-1.6l1.7-2.5M247,37.4l-5.3-9.9-7.4,12.5c2.2-.6,4.4-1.1,6.6-1.6,2.1-.4,4.2-.8,6.1-1M246.6,54.4l-4-2.5-4.8,2.3,4.5-8.7,4.3,8.9"/><path class="cls-2" d="M250.6,42.1c-1.7-.2-3.6-.2-5.8,0-2.2.2-4.6.6-7.2,1.1-2.6.5-5.2,1.2-8,2.1-3,1-5.8,2-8.2,3.1-2.4,1.1-4.5,2.2-6.1,3.3-1.6,1.1-2.8,2.2-3.4,3.2-.7,1-.7,1.9-.2,2.6.6.8,1.6,1.3,3.2,1.6,1.6.3,3.5.4,5.8.3-1.7,0-3.2-.2-4.4-.5-1.2-.3-2-.8-2.4-1.4-.5-.8-.4-1.6.2-2.6.7-1,1.8-2.1,3.4-3.2,1.7-1.1,3.7-2.2,6.1-3.3,2.4-1.1,5.2-2.1,8.2-3.1,2.4-.7,4.7-1.3,6.9-1.8,2.2-.5,4.4-.9,6.4-1.1,2-.3,3.8-.4,5.5-.4M206.9,54.9c1.1-1.3,2.7-2.7,4.7-4.1,2.1-1.4,4.6-2.8,7.5-4.2,2.9-1.4,6.2-2.8,9.8-4,3.2-1.1,6.3-2,9.3-2.8,3-.8,5.9-1.4,8.6-1.8,2.7-.4,5.2-.6,7.4-.6,2.2,0,4.1.1,5.6.5,1.5.4,2.6.9,3.3,1.7.8,1,.8,2.2,0,3.5-.8,1.3-2.1,2.8-4.2,4.4,1.4-1.2,2.3-2.4,2.8-3.5.4-1.1.4-2-.3-2.8-.6-.8-1.7-1.3-3.2-1.7-1.5-.4-3.4-.5-5.6-.5-2.2,0-4.7.3-7.4.7-2.7.4-5.6,1-8.6,1.8-3,.8-6.1,1.7-9.3,2.8-3.1,1.1-5.9,2.2-8.5,3.4-2.6,1.2-4.9,2.4-6.9,3.6-2,1.2-3.7,2.4-5,3.6"/></g><g><path class="cls-2" d="M350.5,38.9c-1.6.1-3.3.4-5,.7l1.2,2.3c1.9-.1,3.7-.1,5.1,0-1.5,0-3.1,0-5,.3l12.6,23.3-16.5-5.8,26.2,14.4-18.6-35.1M327.5,64.3l14.3-21.3c-2.4.5-4.9,1.1-7.5,1.9l-17.9,30.2,29.9-21.3-18.8,10.5M343.8,39.8c-2.5.5-5.1,1.1-7.7,1.8l-1.3,2.3c2.6-.7,5.1-1.2,7.4-1.6l1.7-2.5M349.7,37.4l-5.3-9.9-7.4,12.5c2.2-.6,4.4-1.1,6.6-1.6,2.1-.4,4.2-.8,6.1-1M349.4,54.4l-4-2.5-4.8,2.3,4.5-8.7,4.3,8.9"/><path class="cls-2" d="M353.4,42.1c-1.7-.2-3.6-.2-5.8,0-2.2.2-4.6.6-7.2,1.1-2.6.5-5.2,1.2-8,2.1-3,1-5.8,2-8.2,3.1-2.4,1.1-4.5,2.2-6.1,3.3-1.6,1.1-2.8,2.2-3.4,3.2-.7,1-.7,1.9-.2,2.6.6.8,1.6,1.3,3.2,1.6,1.6.3,3.5.4,5.8.3-1.7,0-3.2-.2-4.4-.5-1.2-.3-2-.8-2.4-1.4-.5-.8-.4-1.6.2-2.6.7-1,1.8-2.1,3.4-3.2,1.7-1.1,3.7-2.2,6.1-3.3,2.4-1.1,5.2-2.1,8.2-3.1,2.4-.7,4.7-1.3,6.9-1.8,2.2-.5,4.4-.9,6.4-1.1,2-.3,3.8-.4,5.5-.4M309.6,54.9c1.1-1.3,2.7-2.7,4.7-4.1,2.1-1.4,4.6-2.8,7.5-4.2,2.9-1.4,6.2-2.8,9.8-4,3.2-1.1,6.3-2,9.3-2.8,3-.8,5.9-1.4,8.6-1.8,2.7-.4,5.2-.6,7.4-.6,2.2,0,4.1.1,5.6.5,1.5.4,2.6.9,3.3,1.7.8,1,.8,2.2,0,3.5-.8,1.3-2.1,2.8-4.2,4.4,1.4-1.2,2.3-2.4,2.8-3.5.4-1.1.4-2-.3-2.8-.6-.8-1.7-1.3-3.2-1.7-1.5-.4-3.4-.5-5.6-.5-2.2,0-4.7.3-7.4.7-2.7.4-5.6,1-8.6,1.8-3,.8-6.1,1.7-9.3,2.8-3.1,1.1-5.9,2.2-8.5,3.4-2.6,1.2-4.9,2.4-6.9,3.6-2,1.2-3.7,2.4-5,3.6"/></g><g><path class="cls-2" d="M453.3,38.9c-1.6.1-3.3.4-5,.7l1.2,2.3c1.9-.1,3.7-.1,5.1,0-1.5,0-3.1,0-5,.3l12.6,23.3-16.5-5.8,26.2,14.4-18.6-35.1M430.2,64.3l14.3-21.3c-2.4.5-4.9,1.1-7.5,1.9l-17.9,30.2,29.9-21.3-18.8,10.5M446.6,39.8c-2.5.5-5.1,1.1-7.7,1.8l-1.3,2.3c2.6-.7,5.1-1.2,7.4-1.6l1.7-2.5M452.5,37.4l-5.3-9.9-7.4,12.5c2.2-.6,4.4-1.1,6.6-1.6,2.1-.4,4.2-.8,6.1-1M452.2,54.4l-4-2.5-4.8,2.3,4.5-8.7,4.3,8.9"/><path class="cls-2" d="M456.1,42.1c-1.7-.2-3.6-.2-5.8,0-2.2.2-4.6.6-7.2,1.1-2.6.5-5.2,1.2-8,2.1-3,1-5.8,2-8.2,3.1-2.4,1.1-4.5,2.2-6.1,3.3-1.6,1.1-2.8,2.2-3.4,3.2-.7,1-.7,1.9-.2,2.6.6.8,1.6,1.3,3.2,1.6,1.6.3,3.5.4,5.8.3-1.7,0-3.2-.2-4.4-.5-1.2-.3-2-.8-2.4-1.4-.5-.8-.4-1.6.2-2.6.7-1,1.8-2.1,3.4-3.2,1.7-1.1,3.7-2.2,6.1-3.3,2.4-1.1,5.2-2.1,8.2-3.1,2.4-.7,4.7-1.3,6.9-1.8,2.2-.5,4.4-.9,6.4-1.1,2-.3,3.8-.4,5.5-.4M412.4,54.9c1.1-1.3,2.7-2.7,4.7-4.1,2.1-1.4,4.6-2.8,7.5-4.2,2.9-1.4,6.2-2.8,9.8-4,3.2-1.1,6.3-2,9.3-2.8,3-.8,5.9-1.4,8.6-1.8,2.7-.4,5.2-.6,7.4-.6,2.2,0,4.1.1,5.6.5,1.5.4,2.6.9,3.3,1.7.8,1,.8,2.2,0,3.5-.8,1.3-2.1,2.8-4.2,4.4,1.4-1.2,2.3-2.4,2.8-3.5.4-1.1.4-2-.3-2.8-.6-.8-1.7-1.3-3.2-1.7-1.5-.4-3.4-.5-5.6-.5-2.2,0-4.7.3-7.4.7-2.7.4-5.6,1-8.6,1.8-3,.8-6.1,1.7-9.3,2.8-3.1,1.1-5.9,2.2-8.5,3.4-2.6,1.2-4.9,2.4-6.9,3.6-2,1.2-3.7,2.4-5,3.6"/></g><g><path class="cls-2" d="M556,38.9c-1.6.1-3.3.4-5,.7l1.2,2.3c1.9-.1,3.7-.1,5.1,0-1.5,0-3.1,0-5,.3l12.6,23.3-16.5-5.8,26.2,14.4-18.6-35.1M533,64.3l14.3-21.3c-2.4.5-4.9,1.1-7.5,1.9l-17.9,30.2,29.9-21.3-18.8,10.5M549.4,39.8c-2.5.5-5.1,1.1-7.7,1.8l-1.3,2.3c2.6-.7,5.1-1.2,7.4-1.6l1.7-2.5M555.3,37.4l-5.3-9.9-7.4,12.5c2.2-.6,4.4-1.1,6.6-1.6,2.1-.4,4.2-.8,6.1-1M554.9,54.4l-4-2.5-4.8,2.3,4.5-8.7,4.3,8.9"/><path class="cls-2" d="M558.9,42.1c-1.7-.2-3.6-.2-5.8,0-2.2.2-4.6.6-7.2,1.1-2.6.5-5.2,1.2-8,2.1-3,1-5.8,2-8.2,3.1-2.4,1.1-4.5,2.2-6.1,3.3-1.6,1.1-2.8,2.2-3.4,3.2-.7,1-.7,1.9-.2,2.6.6.8,1.6,1.3,3.2,1.6,1.6.3,3.5.4,5.8.3-1.7,0-3.2-.2-4.4-.5-1.2-.3-2-.8-2.4-1.4-.5-.8-.4-1.6.2-2.6.7-1,1.8-2.1,3.4-3.2,1.7-1.1,3.7-2.2,6.1-3.3,2.4-1.1,5.2-2.1,8.2-3.1,2.4-.7,4.7-1.3,6.9-1.8,2.2-.5,4.4-.9,6.4-1.1,2-.3,3.8-.4,5.5-.4M515.2,54.9c1.1-1.3,2.7-2.7,4.7-4.1,2.1-1.4,4.6-2.8,7.5-4.2,2.9-1.4,6.2-2.8,9.8-4,3.2-1.1,6.3-2,9.3-2.8,3-.8,5.9-1.4,8.6-1.8,2.7-.4,5.2-.6,7.4-.6,2.2,0,4.1.1,5.6.5,1.5.4,2.6.9,3.3,1.7.8,1,.8,2.2,0,3.5-.8,1.3-2.1,2.8-4.2,4.4,1.4-1.2,2.3-2.4,2.8-3.5.4-1.1.4-2-.3-2.8-.6-.8-1.7-1.3-3.2-1.7-1.5-.4-3.4-.5-5.6-.5-2.2,0-4.7.3-7.4.7-2.7.4-5.6,1-8.6,1.8-3,.8-6.1,1.7-9.3,2.8-3.1,1.1-5.9,2.2-8.5,3.4-2.6,1.2-4.9,2.4-6.9,3.6-2,1.2-3.7,2.4-5,3.6"/></g><g><path class="cls-2" d="M658.8,38.9c-1.6.1-3.3.4-5,.7l1.2,2.3c1.9-.1,3.7-.1,5.1,0-1.5,0-3.1,0-5,.3l12.6,23.3-16.5-5.8,26.2,14.4-18.6-35.1M635.8,64.3l14.3-21.3c-2.4.5-4.9,1.1-7.5,1.9l-17.9,30.2,29.9-21.3-18.8,10.5M652.1,39.8c-2.5.5-5.1,1.1-7.7,1.8l-1.3,2.3c2.6-.7,5.1-1.2,7.4-1.6l1.7-2.5M658,37.4l-5.3-9.9-7.4,12.5c2.2-.6,4.4-1.1,6.6-1.6,2.1-.4,4.2-.8,6.1-1M657.7,54.4l-4-2.5-4.8,2.3,4.5-8.7,4.3,8.9"/><path class="cls-2" d="M661.7,42.1c-1.7-.2-3.6-.2-5.8,0-2.2.2-4.6.6-7.2,1.1-2.6.5-5.2,1.2-8,2.1-3,1-5.8,2-8.2,3.1-2.4,1.1-4.5,2.2-6.1,3.3-1.6,1.1-2.8,2.2-3.4,3.2-.7,1-.7,1.9-.2,2.6.6.8,1.6,1.3,3.2,1.6,1.6.3,3.5.4,5.8.3-1.7,0-3.2-.2-4.4-.5-1.2-.3-2-.8-2.4-1.4-.5-.8-.4-1.6.2-2.6.7-1,1.8-2.1,3.4-3.2,1.7-1.1,3.7-2.2,6.1-3.3,2.4-1.1,5.2-2.1,8.2-3.1,2.4-.7,4.7-1.3,6.9-1.8,2.2-.5,4.4-.9,6.4-1.1,2-.3,3.8-.4,5.5-.4M617.9,54.9c1.1-1.3,2.7-2.7,4.7-4.1,2.1-1.4,4.6-2.8,7.5-4.2,2.9-1.4,6.2-2.8,9.8-4,3.2-1.1,6.3-2,9.3-2.8,3-.8,5.9-1.4,8.6-1.8,2.7-.4,5.2-.6,7.4-.6,2.2,0,4.1.1,5.6.5,1.5.4,2.6.9,3.3,1.7.8,1,.8,2.2,0,3.5-.8,1.3-2.1,2.8-4.2,4.4,1.4-1.2,2.3-2.4,2.8-3.5.4-1.1.4-2-.3-2.8-.6-.8-1.7-1.3-3.2-1.7-1.5-.4-3.4-.5-5.6-.5-2.2,0-4.7.3-7.4.7-2.7.4-5.6,1-8.6,1.8-3,.8-6.1,1.7-9.3,2.8-3.1,1.1-5.9,2.2-8.5,3.4-2.6,1.2-4.9,2.4-6.9,3.6-2,1.2-3.7,2.4-5,3.6"/></g></g><g><g><path class="cls-2" d="M42.2,121.1c-1.6.1-3.3.4-5,.7l1.2,2.3c1.9-.1,3.7-.1,5.1,0-1.5,0-3.1,0-5,.3l12.6,23.3-16.5-5.8,26.2,14.4-18.6-35.1M19.2,146.5l14.3-21.3c-2.4.5-4.9,1.1-7.5,1.9l-17.9,30.2,29.9-21.3-18.8,10.5M35.5,122c-2.5.5-5.1,1.1-7.7,1.8l-1.3,2.3c2.6-.7,5.1-1.2,7.4-1.6l1.7-2.5M41.4,119.6l-5.3-9.9-7.4,12.5c2.2-.6,4.4-1.1,6.6-1.6,2.1-.4,4.2-.8,6.1-1M41.1,136.7l-4-2.5-4.8,2.3,4.5-8.7,4.3,8.9"/><path class="cls-2" d="M45.1,124.3c-1.7-.2-3.6-.2-5.8,0-2.2.2-4.6.6-7.2,1.1-2.6.5-5.2,1.2-8,2.1-3,1-5.8,2-8.2,3.1-2.4,1.1-4.5,2.2-6.1,3.3-1.6,1.1-2.8,2.2-3.4,3.2-.7,1-.7,1.9-.2,2.6.6.8,1.6,1.3,3.2,1.6,1.6.3,3.5.4,5.8.3-1.7,0-3.2-.2-4.4-.5-1.2-.3-2-.8-2.4-1.4-.5-.8-.4-1.6.2-2.6.7-1,1.8-2.1,3.4-3.2,1.7-1.1,3.7-2.2,6.1-3.3,2.4-1.1,5.2-2.1,8.2-3.1,2.4-.7,4.7-1.3,6.9-1.8,2.2-.5,4.4-.9,6.4-1.1,2-.3,3.8-.4,5.5-.4M1.3,137.1c1.1-1.3,2.7-2.7,4.7-4.1,2.1-1.4,4.6-2.8,7.5-4.2,2.9-1.4,6.2-2.8,9.8-4,3.2-1.1,6.3-2,9.3-2.8,3-.8,5.9-1.4,8.6-1.8,2.7-.4,5.2-.6,7.4-.6,2.2,0,4.1.1,5.6.5,1.5.4,2.6.9,3.3,1.7.8,1,.8,2.2,0,3.5-.8,1.3-2.1,2.8-4.2,4.4,1.4-1.2,2.3-2.4,2.8-3.5.4-1.1.4-2-.3-2.8-.6-.8-1.7-1.3-3.2-1.7-1.5-.4-3.4-.5-5.6-.5-2.2,0-4.7.3-7.4.7-2.7.4-5.6,1-8.6,1.8-3,.8-6.1,1.7-9.3,2.8-3.1,1.1-5.9,2.2-8.5,3.4-2.6,1.2-4.9,2.4-6.9,3.6-2,1.2-3.7,2.4-5,3.6"/></g><g><path class="cls-2" d="M145,121.1c-1.6.1-3.3.4-5,.7l1.2,2.3c1.9-.1,3.7-.1,5.1,0-1.5,0-3.1,0-5,.3l12.6,23.3-16.5-5.8,26.2,14.4-18.6-35.1M121.9,146.5l14.3-21.3c-2.4.5-4.9,1.1-7.5,1.9l-17.9,30.2,29.9-21.3-18.8,10.5M138.3,122c-2.5.5-5.1,1.1-7.7,1.8l-1.3,2.3c2.6-.7,5.1-1.2,7.4-1.6l1.7-2.5M144.2,119.6l-5.3-9.9-7.4,12.5c2.2-.6,4.4-1.1,6.6-1.6,2.1-.4,4.2-.8,6.1-1M143.9,136.7l-4-2.5-4.8,2.3,4.5-8.7,4.3,8.9"/><path class="cls-2" d="M147.8,124.3c-1.7-.2-3.6-.2-5.8,0-2.2.2-4.6.6-7.2,1.1-2.6.5-5.2,1.2-8,2.1-3,1-5.8,2-8.2,3.1-2.4,1.1-4.5,2.2-6.1,3.3-1.6,1.1-2.8,2.2-3.4,3.2-.7,1-.7,1.9-.2,2.6.6.8,1.6,1.3,3.2,1.6,1.6.3,3.5.4,5.8.3-1.7,0-3.2-.2-4.4-.5-1.2-.3-2-.8-2.4-1.4-.5-.8-.4-1.6.2-2.6.7-1,1.8-2.1,3.4-3.2,1.7-1.1,3.7-2.2,6.1-3.3,2.4-1.1,5.2-2.1,8.2-3.1,2.4-.7,4.7-1.3,6.9-1.8,2.2-.5,4.4-.9,6.4-1.1,2-.3,3.8-.4,5.5-.4M104.1,137.1c1.1-1.3,2.7-2.7,4.7-4.1,2.1-1.4,4.6-2.8,7.5-4.2,2.9-1.4,6.2-2.8,9.8-4,3.2-1.1,6.3-2,9.3-2.8,3-.8,5.9-1.4,8.6-1.8,2.7-.4,5.2-.6,7.4-.6,2.2,0,4.1.1,5.6.5,1.5.4,2.6.9,3.3,1.7.8,1,.8,2.2,0,3.5-.8,1.3-2.1,2.8-4.2,4.4,1.4-1.2,2.3-2.4,2.8-3.5.4-1.1.4-2-.3-2.8-.6-.8-1.7-1.3-3.2-1.7-1.5-.4-3.4-.5-5.6-.5-2.2,0-4.7.3-7.4.7-2.7.4-5.6,1-8.6,1.8-3,.8-6.1,1.7-9.3,2.8-3.1,1.1-5.9,2.2-8.5,3.4-2.6,1.2-4.9,2.4-6.9,3.6-2,1.2-3.7,2.4-5,3.6"/></g><g><path class="cls-2" d="M247.7,121.1c-1.6.1-3.3.4-5,.7l1.2,2.3c1.9-.1,3.7-.1,5.1,0-1.5,0-3.1,0-5,.3l12.6,23.3-16.5-5.8,26.2,14.4-18.6-35.1M224.7,146.5l14.3-21.3c-2.4.5-4.9,1.1-7.5,1.9l-17.9,30.2,29.9-21.3-18.8,10.5M241.1,122c-2.5.5-5.1,1.1-7.7,1.8l-1.3,2.3c2.6-.7,5.1-1.2,7.4-1.6l1.7-2.5M247,119.6l-5.3-9.9-7.4,12.5c2.2-.6,4.4-1.1,6.6-1.6,2.1-.4,4.2-.8,6.1-1M246.6,136.7l-4-2.5-4.8,2.3,4.5-8.7,4.3,8.9"/><path class="cls-2" d="M250.6,124.3c-1.7-.2-3.6-.2-5.8,0-2.2.2-4.6.6-7.2,1.1-2.6.5-5.2,1.2-8,2.1-3,1-5.8,2-8.2,3.1-2.4,1.1-4.5,2.2-6.1,3.3-1.6,1.1-2.8,2.2-3.4,3.2-.7,1-.7,1.9-.2,2.6.6.8,1.6,1.3,3.2,1.6,1.6.3,3.5.4,5.8.3-1.7,0-3.2-.2-4.4-.5-1.2-.3-2-.8-2.4-1.4-.5-.8-.4-1.6.2-2.6.7-1,1.8-2.1,3.4-3.2,1.7-1.1,3.7-2.2,6.1-3.3,2.4-1.1,5.2-2.1,8.2-3.1,2.4-.7,4.7-1.3,6.9-1.8,2.2-.5,4.4-.9,6.4-1.1,2-.3,3.8-.4,5.5-.4M206.9,137.1c1.1-1.3,2.7-2.7,4.7-4.1,2.1-1.4,4.6-2.8,7.5-4.2,2.9-1.4,6.2-2.8,9.8-4,3.2-1.1,6.3-2,9.3-2.8,3-.8,5.9-1.4,8.6-1.8,2.7-.4,5.2-.6,7.4-.6,2.2,0,4.1.1,5.6.5,1.5.4,2.6.9,3.3,1.7.8,1,.8,2.2,0,3.5-.8,1.3-2.1,2.8-4.2,4.4,1.4-1.2,2.3-2.4,2.8-3.5.4-1.1.4-2-.3-2.8-.6-.8-1.7-1.3-3.2-1.7-1.5-.4-3.4-.5-5.6-.5-2.2,0-4.7.3-7.4.7-2.7.4-5.6,1-8.6,1.8-3,.8-6.1,1.7-9.3,2.8-3.1,1.1-5.9,2.2-8.5,3.4-2.6,1.2-4.9,2.4-6.9,3.6-2,1.2-3.7,2.4-5,3.6"/></g><g><path class="cls-2" d="M350.5,121.1c-1.6.1-3.3.4-5,.7l1.2,2.3c1.9-.1,3.7-.1,5.1,0-1.5,0-3.1,0-5,.3l12.6,23.3-16.5-5.8,26.2,14.4-18.6-35.1M327.5,146.5l14.3-21.3c-2.4.5-4.9,1.1-7.5,1.9l-17.9,30.2,29.9-21.3-18.8,10.5M343.8,122c-2.5.5-5.1,1.1-7.7,1.8l-1.3,2.3c2.6-.7,5.1-1.2,7.4-1.6l1.7-2.5M349.7,119.6l-5.3-9.9-7.4,12.5c2.2-.6,4.4-1.1,6.6-1.6,2.1-.4,4.2-.8,6.1-1M349.4,136.7l-4-2.5-4.8,2.3,4.5-8.7,4.3,8.9"/><path class="cls-2" d="M353.4,124.3c-1.7-.2-3.6-.2-5.8,0-2.2.2-4.6.6-7.2,1.1-2.6.5-5.2,1.2-8,2.1-3,1-5.8,2-8.2,3.1-2.4,1.1-4.5,2.2-6.1,3.3-1.6,1.1-2.8,2.2-3.4,3.2-.7,1-.7,1.9-.2,2.6.6.8,1.6,1.3,3.2,1.6,1.6.3,3.5.4,5.8.3-1.7,0-3.2-.2-4.4-.5-1.2-.3-2-.8-2.4-1.4-.5-.8-.4-1.6.2-2.6.7-1,1.8-2.1,3.4-3.2,1.7-1.1,3.7-2.2,6.1-3.3,2.4-1.1,5.2-2.1,8.2-3.1,2.4-.7,4.7-1.3,6.9-1.8,2.2-.5,4.4-.9,6.4-1.1,2-.3,3.8-.4,5.5-.4M309.6,137.1c1.1-1.3,2.7-2.7,4.7-4.1,2.1-1.4,4.6-2.8,7.5-4.2,2.9-1.4,6.2-2.8,9.8-4,3.2-1.1,6.3-2,9.3-2.8,3-.8,5.9-1.4,8.6-1.8,2.7-.4,5.2-.6,7.4-.6,2.2,0,4.1.1,5.6.5,1.5.4,2.6.9,3.3,1.7.8,1,.8,2.2,0,3.5-.8,1.3-2.1,2.8-4.2,4.4,1.4-1.2,2.3-2.4,2.8-3.5.4-1.1.4-2-.3-2.8-.6-.8-1.7-1.3-3.2-1.7-1.5-.4-3.4-.5-5.6-.5-2.2,0-4.7.3-7.4.7-2.7.4-5.6,1-8.6,1.8-3,.8-6.1,1.7-9.3,2.8-3.1,1.1-5.9,2.2-8.5,3.4-2.6,1.2-4.9,2.4-6.9,3.6-2,1.2-3.7,2.4-5,3.6"/></g><g><path class="cls-2" d="M453.3,121.1c-1.6.1-3.3.4-5,.7l1.2,2.3c1.9-.1,3.7-.1,5.1,0-1.5,0-3.1,0-5,.3l12.6,23.3-16.5-5.8,26.2,14.4-18.6-35.1M430.2,146.5l14.3-21.3c-2.4.5-4.9,1.1-7.5,1.9l-17.9,30.2,29.9-21.3-18.8,10.5M446.6,122c-2.5.5-5.1,1.1-7.7,1.8l-1.3,2.3c2.6-.7,5.1-1.2,7.4-1.6l1.7-2.5M452.5,119.6l-5.3-9.9-7.4,12.5c2.2-.6,4.4-1.1,6.6-1.6,2.1-.4,4.2-.8,6.1-1M452.2,136.7l-4-2.5-4.8,2.3,4.5-8.7,4.3,8.9"/><path class="cls-2" d="M456.1,124.3c-1.7-.2-3.6-.2-5.8,0-2.2.2-4.6.6-7.2,1.1-2.6.5-5.2,1.2-8,2.1-3,1-5.8,2-8.2,3.1-2.4,1.1-4.5,2.2-6.1,3.3-1.6,1.1-2.8,2.2-3.4,3.2-.7,1-.7,1.9-.2,2.6.6.8,1.6,1.3,3.2,1.6,1.6.3,3.5.4,5.8.3-1.7,0-3.2-.2-4.4-.5-1.2-.3-2-.8-2.4-1.4-.5-.8-.4-1.6.2-2.6.7-1,1.8-2.1,3.4-3.2,1.7-1.1,3.7-2.2,6.1-3.3,2.4-1.1,5.2-2.1,8.2-3.1,2.4-.7,4.7-1.3,6.9-1.8,2.2-.5,4.4-.9,6.4-1.1,2-.3,3.8-.4,5.5-.4M412.4,137.1c1.1-1.3,2.7-2.7,4.7-4.1,2.1-1.4,4.6-2.8,7.5-4.2,2.9-1.4,6.2-2.8,9.8-4,3.2-1.1,6.3-2,9.3-2.8,3-.8,5.9-1.4,8.6-1.8,2.7-.4,5.2-.6,7.4-.6,2.2,0,4.1.1,5.6.5,1.5.4,2.6.9,3.3,1.7.8,1,.8,2.2,0,3.5-.8,1.3-2.1,2.8-4.2,4.4,1.4-1.2,2.3-2.4,2.8-3.5.4-1.1.4-2-.3-2.8-.6-.8-1.7-1.3-3.2-1.7-1.5-.4-3.4-.5-5.6-.5-2.2,0-4.7.3-7.4.7-2.7.4-5.6,1-8.6,1.8-3,.8-6.1,1.7-9.3,2.8-3.1,1.1-5.9,2.2-8.5,3.4-2.6,1.2-4.9,2.4-6.9,3.6-2,1.2-3.7,2.4-5,3.6"/></g><g><path class="cls-2" d="M556,121.1c-1.6.1-3.3.4-5,.7l1.2,2.3c1.9-.1,3.7-.1,5.1,0-1.5,0-3.1,0-5,.3l12.6,23.3-16.5-5.8,26.2,14.4-18.6-35.1M533,146.5l14.3-21.3c-2.4.5-4.9,1.1-7.5,1.9l-17.9,30.2,29.9-21.3-18.8,10.5M549.4,122c-2.5.5-5.1,1.1-7.7,1.8l-1.3,2.3c2.6-.7,5.1-1.2,7.4-1.6l1.7-2.5M555.3,119.6l-5.3-9.9-7.4,12.5c2.2-.6,4.4-1.1,6.6-1.6,2.1-.4,4.2-.8,6.1-1M554.9,136.7l-4-2.5-4.8,2.3,4.5-8.7,4.3,8.9"/><path class="cls-2" d="M558.9,124.3c-1.7-.2-3.6-.2-5.8,0-2.2.2-4.6.6-7.2,1.1-2.6.5-5.2,1.2-8,2.1-3,1-5.8,2-8.2,3.1-2.4,1.1-4.5,2.2-6.1,3.3-1.6,1.1-2.8,2.2-3.4,3.2-.7,1-.7,1.9-.2,2.6.6.8,1.6,1.3,3.2,1.6,1.6.3,3.5.4,5.8.3-1.7,0-3.2-.2-4.4-.5-1.2-.3-2-.8-2.4-1.4-.5-.8-.4-1.6.2-2.6.7-1,1.8-2.1,3.4-3.2,1.7-1.1,3.7-2.2,6.1-3.3,2.4-1.1,5.2-2.1,8.2-3.1,2.4-.7,4.7-1.3,6.9-1.8,2.2-.5,4.4-.9,6.4-1.1,2-.3,3.8-.4,5.5-.4M515.2,137.1c1.1-1.3,2.7-2.7,4.7-4.1,2.1-1.4,4.6-2.8,7.5-4.2,2.9-1.4,6.2-2.8,9.8-4,3.2-1.1,6.3-2,9.3-2.8,3-.8,5.9-1.4,8.6-1.8,2.7-.4,5.2-.6,7.4-.6,2.2,0,4.1.1,5.6.5,1.5.4,2.6.9,3.3,1.7.8,1,.8,2.2,0,3.5-.8,1.3-2.1,2.8-4.2,4.4,1.4-1.2,2.3-2.4,2.8-3.5.4-1.1.4-2-.3-2.8-.6-.8-1.7-1.3-3.2-1.7-1.5-.4-3.4-.5-5.6-.5-2.2,0-4.7.3-7.4.7-2.7.4-5.6,1-8.6,1.8-3,.8-6.1,1.7-9.3,2.8-3.1,1.1-5.9,2.2-8.5,3.4-2.6,1.2-4.9,2.4-6.9,3.6-2,1.2-3.7,2.4-5,3.6"/></g><g><path class="cls-2" d="M658.8,121.1c-1.6.1-3.3.4-5,.7l1.2,2.3c1.9-.1,3.7-.1,5.1,0-1.5,0-3.1,0-5,.3l12.6,23.3-16.5-5.8,26.2,14.4-18.6-35.1M635.8,146.5l14.3-21.3c-2.4.5-4.9,1.1-7.5,1.9l-17.9,30.2,29.9-21.3-18.8,10.5M652.1,122c-2.5.5-5.1,1.1-7.7,1.8l-1.3,2.3c2.6-.7,5.1-1.2,7.4-1.6l1.7-2.5M658,119.6l-5.3-9.9-7.4,12.5c2.2-.6,4.4-1.1,6.6-1.6,2.1-.4,4.2-.8,6.1-1M657.7,136.7l-4-2.5-4.8,2.3,4.5-8.7,4.3,8.9"/><path class="cls-2" d="M661.7,124.3c-1.7-.2-3.6-.2-5.8,0-2.2.2-4.6.6-7.2,1.1-2.6.5-5.2,1.2-8,2.1-3,1-5.8,2-8.2,3.1-2.4,1.1-4.5,2.2-6.1,3.3-1.6,1.1-2.8,2.2-3.4,3.2-.7,1-.7,1.9-.2,2.6.6.8,1.6,1.3,3.2,1.6,1.6.3,3.5.4,5.8.3-1.7,0-3.2-.2-4.4-.5-1.2-.3-2-.8-2.4-1.4-.5-.8-.4-1.6.2-2.6.7-1,1.8-2.1,3.4-3.2,1.7-1.1,3.7-2.2,6.1-3.3,2.4-1.1,5.2-2.1,8.2-3.1,2.4-.7,4.7-1.3,6.9-1.8,2.2-.5,4.4-.9,6.4-1.1,2-.3,3.8-.4,5.5-.4M617.9,137.1c1.1-1.3,2.7-2.7,4.7-4.1,2.1-1.4,4.6-2.8,7.5-4.2,2.9-1.4,6.2-2.8,9.8-4,3.2-1.1,6.3-2,9.3-2.8,3-.8,5.9-1.4,8.6-1.8,2.7-.4,5.2-.6,7.4-.6,2.2,0,4.1.1,5.6.5,1.5.4,2.6.9,3.3,1.7.8,1,.8,2.2,0,3.5-.8,1.3-2.1,2.8-4.2,4.4,1.4-1.2,2.3-2.4,2.8-3.5.4-1.1.4-2-.3-2.8-.6-.8-1.7-1.3-3.2-1.7-1.5-.4-3.4-.5-5.6-.5-2.2,0-4.7.3-7.4.7-2.7.4-5.6,1-8.6,1.8-3,.8-6.1,1.7-9.3,2.8-3.1,1.1-5.9,2.2-8.5,3.4-2.6,1.2-4.9,2.4-6.9,3.6-2,1.2-3.7,2.4-5,3.6"/></g></g><g><g><path class="cls-2" d="M42.2,203.3c-1.6.1-3.3.4-5,.7l1.2,2.3c1.9-.1,3.7-.1,5.1,0-1.5,0-3.1,0-5,.3l12.6,23.3-16.5-5.8,26.2,14.4-18.6-35.1M19.2,228.7l14.3-21.3c-2.4.5-4.9,1.1-7.5,1.9l-17.9,30.2,29.9-21.3-18.8,10.5M35.5,204.2c-2.5.5-5.1,1.1-7.7,1.8l-1.3,2.3c2.6-.7,5.1-1.2,7.4-1.6l1.7-2.5M41.4,201.8l-5.3-9.9-7.4,12.5c2.2-.6,4.4-1.1,6.6-1.6,2.1-.4,4.2-.8,6.1-1M41.1,218.9l-4-2.5-4.8,2.3,4.5-8.7,4.3,8.9"/><path class="cls-2" d="M45.1,206.5c-1.7-.2-3.6-.2-5.8,0-2.2.2-4.6.6-7.2,1.1-2.6.5-5.2,1.2-8,2.1-3,1-5.8,2-8.2,3.1-2.4,1.1-4.5,2.2-6.1,3.3-1.6,1.1-2.8,2.2-3.4,3.2-.7,1-.7,1.9-.2,2.6.6.8,1.6,1.3,3.2,1.6,1.6.3,3.5.4,5.8.3-1.7,0-3.2-.2-4.4-.5-1.2-.3-2-.8-2.4-1.4-.5-.8-.4-1.6.2-2.6.7-1,1.8-2.1,3.4-3.2,1.7-1.1,3.7-2.2,6.1-3.3,2.4-1.1,5.2-2.1,8.2-3.1,2.4-.7,4.7-1.3,6.9-1.8,2.2-.5,4.4-.9,6.4-1.1,2-.3,3.8-.4,5.5-.4M1.3,219.3c1.1-1.3,2.7-2.7,4.7-4.1,2.1-1.4,4.6-2.8,7.5-4.2,2.9-1.4,6.2-2.8,9.8-4,3.2-1.1,6.3-2,9.3-2.8,3-.8,5.9-1.4,8.6-1.8,2.7-.4,5.2-.6,7.4-.6,2.2,0,4.1.1,5.6.5,1.5.4,2.6.9,3.3,1.7.8,1,.8,2.2,0,3.5-.8,1.3-2.1,2.8-4.2,4.4,1.4-1.2,2.3-2.4,2.8-3.5.4-1.1.4-2-.3-2.8-.6-.8-1.7-1.3-3.2-1.7-1.5-.4-3.4-.5-5.6-.5-2.2,0-4.7.3-7.4.7-2.7.4-5.6,1-8.6,1.8-3,.8-6.1,1.7-9.3,2.8-3.1,1.1-5.9,2.2-8.5,3.4-2.6,1.2-4.9,2.4-6.9,3.6-2,1.2-3.7,2.4-5,3.6"/></g><g><path class="cls-2" d="M145,203.3c-1.6.1-3.3.4-5,.7l1.2,2.3c1.9-.1,3.7-.1,5.1,0-1.5,0-3.1,0-5,.3l12.6,23.3-16.5-5.8,26.2,14.4-18.6-35.1M121.9,228.7l14.3-21.3c-2.4.5-4.9,1.1-7.5,1.9l-17.9,30.2,29.9-21.3-18.8,10.5M138.3,204.2c-2.5.5-5.1,1.1-7.7,1.8l-1.3,2.3c2.6-.7,5.1-1.2,7.4-1.6l1.7-2.5M144.2,201.8l-5.3-9.9-7.4,12.5c2.2-.6,4.4-1.1,6.6-1.6,2.1-.4,4.2-.8,6.1-1M143.9,218.9l-4-2.5-4.8,2.3,4.5-8.7,4.3,8.9"/><path class="cls-2" d="M147.8,206.5c-1.7-.2-3.6-.2-5.8,0-2.2.2-4.6.6-7.2,1.1-2.6.5-5.2,1.2-8,2.1-3,1-5.8,2-8.2,3.1-2.4,1.1-4.5,2.2-6.1,3.3-1.6,1.1-2.8,2.2-3.4,3.2-.7,1-.7,1.9-.2,2.6.6.8,1.6,1.3,3.2,1.6,1.6.3,3.5.4,5.8.3-1.7,0-3.2-.2-4.4-.5-1.2-.3-2-.8-2.4-1.4-.5-.8-.4-1.6.2-2.6.7-1,1.8-2.1,3.4-3.2,1.7-1.1,3.7-2.2,6.1-3.3,2.4-1.1,5.2-2.1,8.2-3.1,2.4-.7,4.7-1.3,6.9-1.8,2.2-.5,4.4-.9,6.4-1.1,2-.3,3.8-.4,5.5-.4M104.1,219.3c1.1-1.3,2.7-2.7,4.7-4.1,2.1-1.4,4.6-2.8,7.5-4.2,2.9-1.4,6.2-2.8,9.8-4,3.2-1.1,6.3-2,9.3-2.8,3-.8,5.9-1.4,8.6-1.8,2.7-.4,5.2-.6,7.4-.6,2.2,0,4.1.1,5.6.5,1.5.4,2.6.9,3.3,1.7.8,1,.8,2.2,0,3.5-.8,1.3-2.1,2.8-4.2,4.4,1.4-1.2,2.3-2.4,2.8-3.5.4-1.1.4-2-.3-2.8-.6-.8-1.7-1.3-3.2-1.7-1.5-.4-3.4-.5-5.6-.5-2.2,0-4.7.3-7.4.7-2.7.4-5.6,1-8.6,1.8-3,.8-6.1,1.7-9.3,2.8-3.1,1.1-5.9,2.2-8.5,3.4-2.6,1.2-4.9,2.4-6.9,3.6-2,1.2-3.7,2.4-5,3.6"/></g><g><path class="cls-2" d="M247.7,203.3c-1.6.1-3.3.4-5,.7l1.2,2.3c1.9-.1,3.7-.1,5.1,0-1.5,0-3.1,0-5,.3l12.6,23.3-16.5-5.8,26.2,14.4-18.6-35.1M224.7,228.7l14.3-21.3c-2.4.5-4.9,1.1-7.5,1.9l-17.9,30.2,29.9-21.3-18.8,10.5M241.1,204.2c-2.5.5-5.1,1.1-7.7,1.8l-1.3,2.3c2.6-.7,5.1-1.2,7.4-1.6l1.7-2.5M247,201.8l-5.3-9.9-7.4,12.5c2.2-.6,4.4-1.1,6.6-1.6,2.1-.4,4.2-.8,6.1-1M246.6,218.9l-4-2.5-4.8,2.3,4.5-8.7,4.3,8.9"/><path class="cls-2" d="M250.6,206.5c-1.7-.2-3.6-.2-5.8,0-2.2.2-4.6.6-7.2,1.1-2.6.5-5.2,1.2-8,2.1-3,1-5.8,2-8.2,3.1-2.4,1.1-4.5,2.2-6.1,3.3-1.6,1.1-2.8,2.2-3.4,3.2-.7,1-.7,1.9-.2,2.6.6.8,1.6,1.3,3.2,1.6,1.6.3,3.5.4,5.8.3-1.7,0-3.2-.2-4.4-.5-1.2-.3-2-.8-2.4-1.4-.5-.8-.4-1.6.2-2.6.7-1,1.8-2.1,3.4-3.2,1.7-1.1,3.7-2.2,6.1-3.3,2.4-1.1,5.2-2.1,8.2-3.1,2.4-.7,4.7-1.3,6.9-1.8,2.2-.5,4.4-.9,6.4-1.1,2-.3,3.8-.4,5.5-.4M206.9,219.3c1.1-1.3,2.7-2.7,4.7-4.1,2.1-1.4,4.6-2.8,7.5-4.2,2.9-1.4,6.2-2.8,9.8-4,3.2-1.1,6.3-2,9.3-2.8,3-.8,5.9-1.4,8.6-1.8,2.7-.4,5.2-.6,7.4-.6,2.2,0,4.1.1,5.6.5,1.5.4,2.6.9,3.3,1.7.8,1,.8,2.2,0,3.5-.8,1.3-2.1,2.8-4.2,4.4,1.4-1.2,2.3-2.4,2.8-3.5.4-1.1.4-2-.3-2.8-.6-.8-1.7-1.3-3.2-1.7-1.5-.4-3.4-.5-5.6-.5-2.2,0-4.7.3-7.4.7-2.7.4-5.6,1-8.6,1.8-3,.8-6.1,1.7-9.3,2.8-3.1,1.1-5.9,2.2-8.5,3.4-2.6,1.2-4.9,2.4-6.9,3.6-2,1.2-3.7,2.4-5,3.6"/></g><g><path class="cls-2" d="M350.5,203.3c-1.6.1-3.3.4-5,.7l1.2,2.3c1.9-.1,3.7-.1,5.1,0-1.5,0-3.1,0-5,.3l12.6,23.3-16.5-5.8,26.2,14.4-18.6-35.1M327.5,228.7l14.3-21.3c-2.4.5-4.9,1.1-7.5,1.9l-17.9,30.2,29.9-21.3-18.8,10.5M343.8,204.2c-2.5.5-5.1,1.1-7.7,1.8l-1.3,2.3c2.6-.7,5.1-1.2,7.4-1.6l1.7-2.5M349.7,201.8l-5.3-9.9-7.4,12.5c2.2-.6,4.4-1.1,6.6-1.6,2.1-.4,4.2-.8,6.1-1M349.4,218.9l-4-2.5-4.8,2.3,4.5-8.7,4.3,8.9"/><path class="cls-2" d="M353.4,206.5c-1.7-.2-3.6-.2-5.8,0-2.2.2-4.6.6-7.2,1.1-2.6.5-5.2,1.2-8,2.1-3,1-5.8,2-8.2,3.1-2.4,1.1-4.5,2.2-6.1,3.3-1.6,1.1-2.8,2.2-3.4,3.2-.7,1-.7,1.9-.2,2.6.6.8,1.6,1.3,3.2,1.6,1.6.3,3.5.4,5.8.3-1.7,0-3.2-.2-4.4-.5-1.2-.3-2-.8-2.4-1.4-.5-.8-.4-1.6.2-2.6.7-1,1.8-2.1,3.4-3.2,1.7-1.1,3.7-2.2,6.1-3.3,2.4-1.1,5.2-2.1,8.2-3.1,2.4-.7,4.7-1.3,6.9-1.8,2.2-.5,4.4-.9,6.4-1.1,2-.3,3.8-.4,5.5-.4M309.6,219.3c1.1-1.3,2.7-2.7,4.7-4.1,2.1-1.4,4.6-2.8,7.5-4.2,2.9-1.4,6.2-2.8,9.8-4,3.2-1.1,6.3-2,9.3-2.8,3-.8,5.9-1.4,8.6-1.8,2.7-.4,5.2-.6,7.4-.6,2.2,0,4.1.1,5.6.5,1.5.4,2.6.9,3.3,1.7.8,1,.8,2.2,0,3.5-.8,1.3-2.1,2.8-4.2,4.4,1.4-1.2,2.3-2.4,2.8-3.5.4-1.1.4-2-.3-2.8-.6-.8-1.7-1.3-3.2-1.7-1.5-.4-3.4-.5-5.6-.5-2.2,0-4.7.3-7.4.7-2.7.4-5.6,1-8.6,1.8-3,.8-6.1,1.7-9.3,2.8-3.1,1.1-5.9,2.2-8.5,3.4-2.6,1.2-4.9,2.4-6.9,3.6-2,1.2-3.7,2.4-5,3.6"/></g><g><path class="cls-2" d="M453.3,203.3c-1.6.1-3.3.4-5,.7l1.2,2.3c1.9-.1,3.7-.1,5.1,0-1.5,0-3.1,0-5,.3l12.6,23.3-16.5-5.8,26.2,14.4-18.6-35.1M430.2,228.7l14.3-21.3c-2.4.5-4.9,1.1-7.5,1.9l-17.9,30.2,29.9-21.3-18.8,10.5M446.6,204.2c-2.5.5-5.1,1.1-7.7,1.8l-1.3,2.3c2.6-.7,5.1-1.2,7.4-1.6l1.7-2.5M452.5,201.8l-5.3-9.9-7.4,12.5c2.2-.6,4.4-1.1,6.6-1.6,2.1-.4,4.2-.8,6.1-1M452.2,218.9l-4-2.5-4.8,2.3,4.5-8.7,4.3,8.9"/><path class="cls-2" d="M456.1,206.5c-1.7-.2-3.6-.2-5.8,0-2.2.2-4.6.6-7.2,1.1-2.6.5-5.2,1.2-8,2.1-3,1-5.8,2-8.2,3.1-2.4,1.1-4.5,2.2-6.1,3.3-1.6,1.1-2.8,2.2-3.4,3.2-.7,1-.7,1.9-.2,2.6.6.8,1.6,1.3,3.2,1.6,1.6.3,3.5.4,5.8.3-1.7,0-3.2-.2-4.4-.5-1.2-.3-2-.8-2.4-1.4-.5-.8-.4-1.6.2-2.6.7-1,1.8-2.1,3.4-3.2,1.7-1.1,3.7-2.2,6.1-3.3,2.4-1.1,5.2-2.1,8.2-3.1,2.4-.7,4.7-1.3,6.9-1.8,2.2-.5,4.4-.9,6.4-1.1,2-.3,3.8-.4,5.5-.4M412.4,219.3c1.1-1.3,2.7-2.7,4.7-4.1,2.1-1.4,4.6-2.8,7.5-4.2,2.9-1.4,6.2-2.8,9.8-4,3.2-1.1,6.3-2,9.3-2.8,3-.8,5.9-1.4,8.6-1.8,2.7-.4,5.2-.6,7.4-.6,2.2,0,4.1.1,5.6.5,1.5.4,2.6.9,3.3,1.7.8,1,.8,2.2,0,3.5-.8,1.3-2.1,2.8-4.2,4.4,1.4-1.2,2.3-2.4,2.8-3.5.4-1.1.4-2-.3-2.8-.6-.8-1.7-1.3-3.2-1.7-1.5-.4-3.4-.5-5.6-.5-2.2,0-4.7.3-7.4.7-2.7.4-5.6,1-8.6,1.8-3,.8-6.1,1.7-9.3,2.8-3.1,1.1-5.9,2.2-8.5,3.4-2.6,1.2-4.9,2.4-6.9,3.6-2,1.2-3.7,2.4-5,3.6"/></g><g><path class="cls-2" d="M556,203.3c-1.6.1-3.3.4-5,.7l1.2,2.3c1.9-.1,3.7-.1,5.1,0-1.5,0-3.1,0-5,.3l12.6,23.3-16.5-5.8,26.2,14.4-18.6-35.1M533,228.7l14.3-21.3c-2.4.5-4.9,1.1-7.5,1.9l-17.9,30.2,29.9-21.3-18.8,10.5M549.4,204.2c-2.5.5-5.1,1.1-7.7,1.8l-1.3,2.3c2.6-.7,5.1-1.2,7.4-1.6l1.7-2.5M555.3,201.8l-5.3-9.9-7.4,12.5c2.2-.6,4.4-1.1,6.6-1.6,2.1-.4,4.2-.8,6.1-1M554.9,218.9l-4-2.5-4.8,2.3,4.5-8.7,4.3,8.9"/><path class="cls-2" d="M558.9,206.5c-1.7-.2-3.6-.2-5.8,0-2.2.2-4.6.6-7.2,1.1-2.6.5-5.2,1.2-8,2.1-3,1-5.8,2-8.2,3.1-2.4,1.1-4.5,2.2-6.1,3.3-1.6,1.1-2.8,2.2-3.4,3.2-.7,1-.7,1.9-.2,2.6.6.8,1.6,1.3,3.2,1.6,1.6.3,3.5.4,5.8.3-1.7,0-3.2-.2-4.4-.5-1.2-.3-2-.8-2.4-1.4-.5-.8-.4-1.6.2-2.6.7-1,1.8-2.1,3.4-3.2,1.7-1.1,3.7-2.2,6.1-3.3,2.4-1.1,5.2-2.1,8.2-3.1,2.4-.7,4.7-1.3,6.9-1.8,2.2-.5,4.4-.9,6.4-1.1,2-.3,3.8-.4,5.5-.4M515.2,219.3c1.1-1.3,2.7-2.7,4.7-4.1,2.1-1.4,4.6-2.8,7.5-4.2,2.9-1.4,6.2-2.8,9.8-4,3.2-1.1,6.3-2,9.3-2.8,3-.8,5.9-1.4,8.6-1.8,2.7-.4,5.2-.6,7.4-.6,2.2,0,4.1.1,5.6.5,1.5.4,2.6.9,3.3,1.7.8,1,.8,2.2,0,3.5-.8,1.3-2.1,2.8-4.2,4.4,1.4-1.2,2.3-2.4,2.8-3.5.4-1.1.4-2-.3-2.8-.6-.8-1.7-1.3-3.2-1.7-1.5-.4-3.4-.5-5.6-.5-2.2,0-4.7.3-7.4.7-2.7.4-5.6,1-8.6,1.8-3,.8-6.1,1.7-9.3,2.8-3.1,1.1-5.9,2.2-8.5,3.4-2.6,1.2-4.9,2.4-6.9,3.6-2,1.2-3.7,2.4-5,3.6"/></g><g><path class="cls-2" d="M658.8,203.3c-1.6.1-3.3.4-5,.7l1.2,2.3c1.9-.1,3.7-.1,5.1,0-1.5,0-3.1,0-5,.3l12.6,23.3-16.5-5.8,26.2,14.4-18.6-35.1M635.8,228.7l14.3-21.3c-2.4.5-4.9,1.1-7.5,1.9l-17.9,30.2,29.9-21.3-18.8,10.5M652.1,204.2c-2.5.5-5.1,1.1-7.7,1.8l-1.3,2.3c2.6-.7,5.1-1.2,7.4-1.6l1.7-2.5M658,201.8l-5.3-9.9-7.4,12.5c2.2-.6,4.4-1.1,6.6-1.6,2.1-.4,4.2-.8,6.1-1M657.7,218.9l-4-2.5-4.8,2.3,4.5-8.7,4.3,8.9"/><path class="cls-2" d="M661.7,206.5c-1.7-.2-3.6-.2-5.8,0-2.2.2-4.6.6-7.2,1.1-2.6.5-5.2,1.2-8,2.1-3,1-5.8,2-8.2,3.1-2.4,1.1-4.5,2.2-6.1,3.3-1.6,1.1-2.8,2.2-3.4,3.2-.7,1-.7,1.9-.2,2.6.6.8,1.6,1.3,3.2,1.6,1.6.3,3.5.4,5.8.3-1.7,0-3.2-.2-4.4-.5-1.2-.3-2-.8-2.4-1.4-.5-.8-.4-1.6.2-2.6.7-1,1.8-2.1,3.4-3.2,1.7-1.1,3.7-2.2,6.1-3.3,2.4-1.1,5.2-2.1,8.2-3.1,2.4-.7,4.7-1.3,6.9-1.8,2.2-.5,4.4-.9,6.4-1.1,2-.3,3.8-.4,5.5-.4M617.9,219.3c1.1-1.3,2.7-2.7,4.7-4.1,2.1-1.4,4.6-2.8,7.5-4.2,2.9-1.4,6.2-2.8,9.8-4,3.2-1.1,6.3-2,9.3-2.8,3-.8,5.9-1.4,8.6-1.8,2.7-.4,5.2-.6,7.4-.6,2.2,0,4.1.1,5.6.5,1.5.4,2.6.9,3.3,1.7.8,1,.8,2.2,0,3.5-.8,1.3-2.1,2.8-4.2,4.4,1.4-1.2,2.3-2.4,2.8-3.5.4-1.1.4-2-.3-2.8-.6-.8-1.7-1.3-3.2-1.7-1.5-.4-3.4-.5-5.6-.5-2.2,0-4.7.3-7.4.7-2.7.4-5.6,1-8.6,1.8-3,.8-6.1,1.7-9.3,2.8-3.1,1.1-5.9,2.2-8.5,3.4-2.6,1.2-4.9,2.4-6.9,3.6-2,1.2-3.7,2.4-5,3.6"/></g></g><g><g><path class="cls-2" d="M42.2,285.5c-1.6.1-3.3.4-5,.7l1.2,2.3c1.9-.1,3.7-.1,5.1,0-1.5,0-3.1,0-5,.3l12.6,23.3-16.5-5.8,26.2,14.4-18.6-35.1M19.2,310.9l14.3-21.3c-2.4.5-4.9,1.1-7.5,1.9l-17.9,30.2,29.9-21.3-18.8,10.5M35.5,286.4c-2.5.5-5.1,1.1-7.7,1.8l-1.3,2.3c2.6-.7,5.1-1.2,7.4-1.6l1.7-2.5M41.4,284l-5.3-9.9-7.4,12.5c2.2-.6,4.4-1.1,6.6-1.6,2.1-.4,4.2-.8,6.1-1M41.1,301.1l-4-2.5-4.8,2.3,4.5-8.7,4.3,8.9"/><path class="cls-2" d="M45.1,288.7c-1.7-.2-3.6-.2-5.8,0-2.2.2-4.6.6-7.2,1.1-2.6.5-5.2,1.2-8,2.1-3,1-5.8,2-8.2,3.1-2.4,1.1-4.5,2.2-6.1,3.3-1.6,1.1-2.8,2.2-3.4,3.2-.7,1-.7,1.9-.2,2.6.6.8,1.6,1.3,3.2,1.6,1.6.3,3.5.4,5.8.3-1.7,0-3.2-.2-4.4-.5-1.2-.3-2-.8-2.4-1.4-.5-.8-.4-1.6.2-2.6.7-1,1.8-2.1,3.4-3.2,1.7-1.1,3.7-2.2,6.1-3.3,2.4-1.1,5.2-2.1,8.2-3.1,2.4-.7,4.7-1.3,6.9-1.8,2.2-.5,4.4-.9,6.4-1.1,2-.3,3.8-.4,5.5-.4M1.3,301.5c1.1-1.3,2.7-2.7,4.7-4.1,2.1-1.4,4.6-2.8,7.5-4.2,2.9-1.4,6.2-2.8,9.8-4,3.2-1.1,6.3-2,9.3-2.8,3-.8,5.9-1.4,8.6-1.8,2.7-.4,5.2-.6,7.4-.6,2.2,0,4.1.1,5.6.5,1.5.4,2.6.9,3.3,1.7.8,1,.8,2.2,0,3.5-.8,1.3-2.1,2.8-4.2,4.4,1.4-1.2,2.3-2.4,2.8-3.5.4-1.1.4-2-.3-2.8-.6-.8-1.7-1.3-3.2-1.7-1.5-.4-3.4-.5-5.6-.5-2.2,0-4.7.3-7.4.7-2.7.4-5.6,1-8.6,1.8-3,.8-6.1,1.7-9.3,2.8-3.1,1.1-5.9,2.2-8.5,3.4-2.6,1.2-4.9,2.4-6.9,3.6-2,1.2-3.7,2.4-5,3.6"/></g><g><path class="cls-2" d="M145,285.5c-1.6.1-3.3.4-5,.7l1.2,2.3c1.9-.1,3.7-.1,5.1,0-1.5,0-3.1,0-5,.3l12.6,23.3-16.5-5.8,26.2,14.4-18.6-35.1M121.9,310.9l14.3-21.3c-2.4.5-4.9,1.1-7.5,1.9l-17.9,30.2,29.9-21.3-18.8,10.5M138.3,286.4c-2.5.5-5.1,1.1-7.7,1.8l-1.3,2.3c2.6-.7,5.1-1.2,7.4-1.6l1.7-2.5M144.2,284l-5.3-9.9-7.4,12.5c2.2-.6,4.4-1.1,6.6-1.6,2.1-.4,4.2-.8,6.1-1M143.9,301.1l-4-2.5-4.8,2.3,4.5-8.7,4.3,8.9"/><path class="cls-2" d="M147.8,288.7c-1.7-.2-3.6-.2-5.8,0-2.2.2-4.6.6-7.2,1.1-2.6.5-5.2,1.2-8,2.1-3,1-5.8,2-8.2,3.1-2.4,1.1-4.5,2.2-6.1,3.3-1.6,1.1-2.8,2.2-3.4,3.2-.7,1-.7,1.9-.2,2.6.6.8,1.6,1.3,3.2,1.6,1.6.3,3.5.4,5.8.3-1.7,0-3.2-.2-4.4-.5-1.2-.3-2-.8-2.4-1.4-.5-.8-.4-1.6.2-2.6.7-1,1.8-2.1,3.4-3.2,1.7-1.1,3.7-2.2,6.1-3.3,2.4-1.1,5.2-2.1,8.2-3.1,2.4-.7,4.7-1.3,6.9-1.8,2.2-.5,4.4-.9,6.4-1.1,2-.3,3.8-.4,5.5-.4M104.1,301.5c1.1-1.3,2.7-2.7,4.7-4.1,2.1-1.4,4.6-2.8,7.5-4.2,2.9-1.4,6.2-2.8,9.8-4,3.2-1.1,6.3-2,9.3-2.8,3-.8,5.9-1.4,8.6-1.8,2.7-.4,5.2-.6,7.4-.6,2.2,0,4.1.1,5.6.5,1.5.4,2.6.9,3.3,1.7.8,1,.8,2.2,0,3.5-.8,1.3-2.1,2.8-4.2,4.4,1.4-1.2,2.3-2.4,2.8-3.5.4-1.1.4-2-.3-2.8-.6-.8-1.7-1.3-3.2-1.7-1.5-.4-3.4-.5-5.6-.5-2.2,0-4.7.3-7.4.7-2.7.4-5.6,1-8.6,1.8-3,.8-6.1,1.7-9.3,2.8-3.1,1.1-5.9,2.2-8.5,3.4-2.6,1.2-4.9,2.4-6.9,3.6-2,1.2-3.7,2.4-5,3.6"/></g><g><path class="cls-2" d="M247.7,285.5c-1.6.1-3.3.4-5,.7l1.2,2.3c1.9-.1,3.7-.1,5.1,0-1.5,0-3.1,0-5,.3l12.6,23.3-16.5-5.8,26.2,14.4-18.6-35.1M224.7,310.9l14.3-21.3c-2.4.5-4.9,1.1-7.5,1.9l-17.9,30.2,29.9-21.3-18.8,10.5M241.1,286.4c-2.5.5-5.1,1.1-7.7,1.8l-1.3,2.3c2.6-.7,5.1-1.2,7.4-1.6l1.7-2.5M247,284l-5.3-9.9-7.4,12.5c2.2-.6,4.4-1.1,6.6-1.6,2.1-.4,4.2-.8,6.1-1M246.6,301.1l-4-2.5-4.8,2.3,4.5-8.7,4.3,8.9"/><path class="cls-2" d="M250.6,288.7c-1.7-.2-3.6-.2-5.8,0-2.2.2-4.6.6-7.2,1.1-2.6.5-5.2,1.2-8,2.1-3,1-5.8,2-8.2,3.1-2.4,1.1-4.5,2.2-6.1,3.3-1.6,1.1-2.8,2.2-3.4,3.2-.7,1-.7,1.9-.2,2.6.6.8,1.6,1.3,3.2,1.6,1.6.3,3.5.4,5.8.3-1.7,0-3.2-.2-4.4-.5-1.2-.3-2-.8-2.4-1.4-.5-.8-.4-1.6.2-2.6.7-1,1.8-2.1,3.4-3.2,1.7-1.1,3.7-2.2,6.1-3.3,2.4-1.1,5.2-2.1,8.2-3.1,2.4-.7,4.7-1.3,6.9-1.8,2.2-.5,4.4-.9,6.4-1.1,2-.3,3.8-.4,5.5-.4M206.9,301.5c1.1-1.3,2.7-2.7,4.7-4.1,2.1-1.4,4.6-2.8,7.5-4.2,2.9-1.4,6.2-2.8,9.8-4,3.2-1.1,6.3-2,9.3-2.8,3-.8,5.9-1.4,8.6-1.8,2.7-.4,5.2-.6,7.4-.6,2.2,0,4.1.1,5.6.5,1.5.4,2.6.9,3.3,1.7.8,1,.8,2.2,0,3.5-.8,1.3-2.1,2.8-4.2,4.4,1.4-1.2,2.3-2.4,2.8-3.5.4-1.1.4-2-.3-2.8-.6-.8-1.7-1.3-3.2-1.7-1.5-.4-3.4-.5-5.6-.5-2.2,0-4.7.3-7.4.7-2.7.4-5.6,1-8.6,1.8-3,.8-6.1,1.7-9.3,2.8-3.1,1.1-5.9,2.2-8.5,3.4-2.6,1.2-4.9,2.4-6.9,3.6-2,1.2-3.7,2.4-5,3.6"/></g><g><path class="cls-2" d="M350.5,285.5c-1.6.1-3.3.4-5,.7l1.2,2.3c1.9-.1,3.7-.1,5.1,0-1.5,0-3.1,0-5,.3l12.6,23.3-16.5-5.8,26.2,14.4-18.6-35.1M327.5,310.9l14.3-21.3c-2.4.5-4.9,1.1-7.5,1.9l-17.9,30.2,29.9-21.3-18.8,10.5M343.8,286.4c-2.5.5-5.1,1.1-7.7,1.8l-1.3,2.3c2.6-.7,5.1-1.2,7.4-1.6l1.7-2.5M349.7,284l-5.3-9.9-7.4,12.5c2.2-.6,4.4-1.1,6.6-1.6,2.1-.4,4.2-.8,6.1-1M349.4,301.1l-4-2.5-4.8,2.3,4.5-8.7,4.3,8.9"/><path class="cls-2" d="M353.4,288.7c-1.7-.2-3.6-.2-5.8,0-2.2.2-4.6.6-7.2,1.1-2.6.5-5.2,1.2-8,2.1-3,1-5.8,2-8.2,3.1-2.4,1.1-4.5,2.2-6.1,3.3-1.6,1.1-2.8,2.2-3.4,3.2-.7,1-.7,1.9-.2,2.6.6.8,1.6,1.3,3.2,1.6,1.6.3,3.5.4,5.8.3-1.7,0-3.2-.2-4.4-.5-1.2-.3-2-.8-2.4-1.4-.5-.8-.4-1.6.2-2.6.7-1,1.8-2.1,3.4-3.2,1.7-1.1,3.7-2.2,6.1-3.3,2.4-1.1,5.2-2.1,8.2-3.1,2.4-.7,4.7-1.3,6.9-1.8,2.2-.5,4.4-.9,6.4-1.1,2-.3,3.8-.4,5.5-.4M309.6,301.5c1.1-1.3,2.7-2.7,4.7-4.1,2.1-1.4,4.6-2.8,7.5-4.2,2.9-1.4,6.2-2.8,9.8-4,3.2-1.1,6.3-2,9.3-2.8,3-.8,5.9-1.4,8.6-1.8,2.7-.4,5.2-.6,7.4-.6,2.2,0,4.1.1,5.6.5,1.5.4,2.6.9,3.3,1.7.8,1,.8,2.2,0,3.5-.8,1.3-2.1,2.8-4.2,4.4,1.4-1.2,2.3-2.4,2.8-3.5.4-1.1.4-2-.3-2.8-.6-.8-1.7-1.3-3.2-1.7-1.5-.4-3.4-.5-5.6-.5-2.2,0-4.7.3-7.4.7-2.7.4-5.6,1-8.6,1.8-3,.8-6.1,1.7-9.3,2.8-3.1,1.1-5.9,2.2-8.5,3.4-2.6,1.2-4.9,2.4-6.9,3.6-2,1.2-3.7,2.4-5,3.6"/></g><g><path class="cls-2" d="M453.3,285.5c-1.6.1-3.3.4-5,.7l1.2,2.3c1.9-.1,3.7-.1,5.1,0-1.5,0-3.1,0-5,.3l12.6,23.3-16.5-5.8,26.2,14.4-18.6-35.1M430.2,310.9l14.3-21.3c-2.4.5-4.9,1.1-7.5,1.9l-17.9,30.2,29.9-21.3-18.8,10.5M446.6,286.4c-2.5.5-5.1,1.1-7.7,1.8l-1.3,2.3c2.6-.7,5.1-1.2,7.4-1.6l1.7-2.5M452.5,284l-5.3-9.9-7.4,12.5c2.2-.6,4.4-1.1,6.6-1.6,2.1-.4,4.2-.8,6.1-1M452.2,301.1l-4-2.5-4.8,2.3,4.5-8.7,4.3,8.9"/><path class="cls-2" d="M456.1,288.7c-1.7-.2-3.6-.2-5.8,0-2.2.2-4.6.6-7.2,1.1-2.6.5-5.2,1.2-8,2.1-3,1-5.8,2-8.2,3.1-2.4,1.1-4.5,2.2-6.1,3.3-1.6,1.1-2.8,2.2-3.4,3.2-.7,1-.7,1.9-.2,2.6.6.8,1.6,1.3,3.2,1.6,1.6.3,3.5.4,5.8.3-1.7,0-3.2-.2-4.4-.5-1.2-.3-2-.8-2.4-1.4-.5-.8-.4-1.6.2-2.6.7-1,1.8-2.1,3.4-3.2,1.7-1.1,3.7-2.2,6.1-3.3,2.4-1.1,5.2-2.1,8.2-3.1,2.4-.7,4.7-1.3,6.9-1.8,2.2-.5,4.4-.9,6.4-1.1,2-.3,3.8-.4,5.5-.4M412.4,301.5c1.1-1.3,2.7-2.7,4.7-4.1,2.1-1.4,4.6-2.8,7.5-4.2,2.9-1.4,6.2-2.8,9.8-4,3.2-1.1,6.3-2,9.3-2.8,3-.8,5.9-1.4,8.6-1.8,2.7-.4,5.2-.6,7.4-.6,2.2,0,4.1.1,5.6.5,1.5.4,2.6.9,3.3,1.7.8,1,.8,2.2,0,3.5-.8,1.3-2.1,2.8-4.2,4.4,1.4-1.2,2.3-2.4,2.8-3.5.4-1.1.4-2-.3-2.8-.6-.8-1.7-1.3-3.2-1.7-1.5-.4-3.4-.5-5.6-.5-2.2,0-4.7.3-7.4.7-2.7.4-5.6,1-8.6,1.8-3,.8-6.1,1.7-9.3,2.8-3.1,1.1-5.9,2.2-8.5,3.4-2.6,1.2-4.9,2.4-6.9,3.6-2,1.2-3.7,2.4-5,3.6"/></g><g><path class="cls-2" d="M556,285.5c-1.6.1-3.3.4-5,.7l1.2,2.3c1.9-.1,3.7-.1,5.1,0-1.5,0-3.1,0-5,.3l12.6,23.3-16.5-5.8,26.2,14.4-18.6-35.1M533,310.9l14.3-21.3c-2.4.5-4.9,1.1-7.5,1.9l-17.9,30.2,29.9-21.3-18.8,10.5M549.4,286.4c-2.5.5-5.1,1.1-7.7,1.8l-1.3,2.3c2.6-.7,5.1-1.2,7.4-1.6l1.7-2.5M555.3,284l-5.3-9.9-7.4,12.5c2.2-.6,4.4-1.1,6.6-1.6,2.1-.4,4.2-.8,6.1-1M554.9,301.1l-4-2.5-4.8,2.3,4.5-8.7,4.3,8.9"/><path class="cls-2" d="M558.9,288.7c-1.7-.2-3.6-.2-5.8,0-2.2.2-4.6.6-7.2,1.1-2.6.5-5.2,1.2-8,2.1-3,1-5.8,2-8.2,3.1-2.4,1.1-4.5,2.2-6.1,3.3-1.6,1.1-2.8,2.2-3.4,3.2-.7,1-.7,1.9-.2,2.6.6.8,1.6,1.3,3.2,1.6,1.6.3,3.5.4,5.8.3-1.7,0-3.2-.2-4.4-.5-1.2-.3-2-.8-2.4-1.4-.5-.8-.4-1.6.2-2.6.7-1,1.8-2.1,3.4-3.2,1.7-1.1,3.7-2.2,6.1-3.3,2.4-1.1,5.2-2.1,8.2-3.1,2.4-.7,4.7-1.3,6.9-1.8,2.2-.5,4.4-.9,6.4-1.1,2-.3,3.8-.4,5.5-.4M515.2,301.5c1.1-1.3,2.7-2.7,4.7-4.1,2.1-1.4,4.6-2.8,7.5-4.2,2.9-1.4,6.2-2.8,9.8-4,3.2-1.1,6.3-2,9.3-2.8,3-.8,5.9-1.4,8.6-1.8,2.7-.4,5.2-.6,7.4-.6,2.2,0,4.1.1,5.6.5,1.5.4,2.6.9,3.3,1.7.8,1,.8,2.2,0,3.5-.8,1.3-2.1,2.8-4.2,4.4,1.4-1.2,2.3-2.4,2.8-3.5.4-1.1.4-2-.3-2.8-.6-.8-1.7-1.3-3.2-1.7-1.5-.4-3.4-.5-5.6-.5-2.2,0-4.7.3-7.4.7-2.7.4-5.6,1-8.6,1.8-3,.8-6.1,1.7-9.3,2.8-3.1,1.1-5.9,2.2-8.5,3.4-2.6,1.2-4.9,2.4-6.9,3.6-2,1.2-3.7,2.4-5,3.6"/></g><g><path class="cls-2" d="M658.8,285.5c-1.6.1-3.3.4-5,.7l1.2,2.3c1.9-.1,3.7-.1,5.1,0-1.5,0-3.1,0-5,.3l12.6,23.3-16.5-5.8,26.2,14.4-18.6-35.1M635.8,310.9l14.3-21.3c-2.4.5-4.9,1.1-7.5,1.9l-17.9,30.2,29.9-21.3-18.8,10.5M652.1,286.4c-2.5.5-5.1,1.1-7.7,1.8l-1.3,2.3c2.6-.7,5.1-1.2,7.4-1.6l1.7-2.5M658,284l-5.3-9.9-7.4,12.5c2.2-.6,4.4-1.1,6.6-1.6,2.1-.4,4.2-.8,6.1-1M657.7,301.1l-4-2.5-4.8,2.3,4.5-8.7,4.3,8.9"/><path class="cls-2" d="M661.7,288.7c-1.7-.2-3.6-.2-5.8,0-2.2.2-4.6.6-7.2,1.1-2.6.5-5.2,1.2-8,2.1-3,1-5.8,2-8.2,3.1-2.4,1.1-4.5,2.2-6.1,3.3-1.6,1.1-2.8,2.2-3.4,3.2-.7,1-.7,1.9-.2,2.6.6.8,1.6,1.3,3.2,1.6,1.6.3,3.5.4,5.8.3-1.7,0-3.2-.2-4.4-.5-1.2-.3-2-.8-2.4-1.4-.5-.8-.4-1.6.2-2.6.7-1,1.8-2.1,3.4-3.2,1.7-1.1,3.7-2.2,6.1-3.3,2.4-1.1,5.2-2.1,8.2-3.1,2.4-.7,4.7-1.3,6.9-1.8,2.2-.5,4.4-.9,6.4-1.1,2-.3,3.8-.4,5.5-.4M617.9,301.5c1.1-1.3,2.7-2.7,4.7-4.1,2.1-1.4,4.6-2.8,7.5-4.2,2.9-1.4,6.2-2.8,9.8-4,3.2-1.1,6.3-2,9.3-2.8,3-.8,5.9-1.4,8.6-1.8,2.7-.4,5.2-.6,7.4-.6,2.2,0,4.1.1,5.6.5,1.5.4,2.6.9,3.3,1.7.8,1,.8,2.2,0,3.5-.8,1.3-2.1,2.8-4.2,4.4,1.4-1.2,2.3-2.4,2.8-3.5.4-1.1.4-2-.3-2.8-.6-.8-1.7-1.3-3.2-1.7-1.5-.4-3.4-.5-5.6-.5-2.2,0-4.7.3-7.4.7-2.7.4-5.6,1-8.6,1.8-3,.8-6.1,1.7-9.3,2.8-3.1,1.1-5.9,2.2-8.5,3.4-2.6,1.2-4.9,2.4-6.9,3.6-2,1.2-3.7,2.4-5,3.6"/></g></g><g><g><path class="cls-2" d="M42.2,367.7c-1.6.1-3.3.4-5,.7l1.2,2.3c1.9-.1,3.7-.1,5.1,0-1.5,0-3.1,0-5,.3l12.6,23.3-16.5-5.8,26.2,14.4-18.6-35.1M19.2,393.1l14.3-21.3c-2.4.5-4.9,1.1-7.5,1.9l-17.9,30.2,29.9-21.3-18.8,10.5M35.5,368.6c-2.5.5-5.1,1.1-7.7,1.8l-1.3,2.3c2.6-.7,5.1-1.2,7.4-1.6l1.7-2.5M41.4,366.2l-5.3-9.9-7.4,12.5c2.2-.6,4.4-1.1,6.6-1.6,2.1-.4,4.2-.8,6.1-1M41.1,383.3l-4-2.5-4.8,2.3,4.5-8.7,4.3,8.9"/><path class="cls-2" d="M45.1,370.9c-1.7-.2-3.6-.2-5.8,0-2.2.2-4.6.6-7.2,1.1-2.6.5-5.2,1.2-8,2.1-3,1-5.8,2-8.2,3.1-2.4,1.1-4.5,2.2-6.1,3.3-1.6,1.1-2.8,2.2-3.4,3.2-.7,1-.7,1.9-.2,2.6.6.8,1.6,1.3,3.2,1.6,1.6.3,3.5.4,5.8.3-1.7,0-3.2-.2-4.4-.5-1.2-.3-2-.8-2.4-1.4-.5-.8-.4-1.6.2-2.6.7-1,1.8-2.1,3.4-3.2,1.7-1.1,3.7-2.2,6.1-3.3,2.4-1.1,5.2-2.1,8.2-3.1,2.4-.7,4.7-1.3,6.9-1.8,2.2-.5,4.4-.9,6.4-1.1,2-.3,3.8-.4,5.5-.4M1.3,383.7c1.1-1.3,2.7-2.7,4.7-4.1,2.1-1.4,4.6-2.8,7.5-4.2,2.9-1.4,6.2-2.8,9.8-4,3.2-1.1,6.3-2,9.3-2.8,3-.8,5.9-1.4,8.6-1.8,2.7-.4,5.2-.6,7.4-.6,2.2,0,4.1.1,5.6.5,1.5.4,2.6.9,3.3,1.7.8,1,.8,2.2,0,3.5-.8,1.3-2.1,2.8-4.2,4.4,1.4-1.2,2.3-2.4,2.8-3.5.4-1.1.4-2-.3-2.8-.6-.8-1.7-1.3-3.2-1.7-1.5-.4-3.4-.5-5.6-.5-2.2,0-4.7.3-7.4.7-2.7.4-5.6,1-8.6,1.8-3,.8-6.1,1.7-9.3,2.8-3.1,1.1-5.9,2.2-8.5,3.4-2.6,1.2-4.9,2.4-6.9,3.6-2,1.2-3.7,2.4-5,3.6"/></g><g><path class="cls-2" d="M145,367.7c-1.6.1-3.3.4-5,.7l1.2,2.3c1.9-.1,3.7-.1,5.1,0-1.5,0-3.1,0-5,.3l12.6,23.3-16.5-5.8,26.2,14.4-18.6-35.1M121.9,393.1l14.3-21.3c-2.4.5-4.9,1.1-7.5,1.9l-17.9,30.2,29.9-21.3-18.8,10.5M138.3,368.6c-2.5.5-5.1,1.1-7.7,1.8l-1.3,2.3c2.6-.7,5.1-1.2,7.4-1.6l1.7-2.5M144.2,366.2l-5.3-9.9-7.4,12.5c2.2-.6,4.4-1.1,6.6-1.6,2.1-.4,4.2-.8,6.1-1M143.9,383.3l-4-2.5-4.8,2.3,4.5-8.7,4.3,8.9"/><path class="cls-2" d="M147.8,370.9c-1.7-.2-3.6-.2-5.8,0-2.2.2-4.6.6-7.2,1.1-2.6.5-5.2,1.2-8,2.1-3,1-5.8,2-8.2,3.1-2.4,1.1-4.5,2.2-6.1,3.3-1.6,1.1-2.8,2.2-3.4,3.2-.7,1-.7,1.9-.2,2.6.6.8,1.6,1.3,3.2,1.6,1.6.3,3.5.4,5.8.3-1.7,0-3.2-.2-4.4-.5-1.2-.3-2-.8-2.4-1.4-.5-.8-.4-1.6.2-2.6.7-1,1.8-2.1,3.4-3.2,1.7-1.1,3.7-2.2,6.1-3.3,2.4-1.1,5.2-2.1,8.2-3.1,2.4-.7,4.7-1.3,6.9-1.8,2.2-.5,4.4-.9,6.4-1.1,2-.3,3.8-.4,5.5-.4M104.1,383.7c1.1-1.3,2.7-2.7,4.7-4.1,2.1-1.4,4.6-2.8,7.5-4.2,2.9-1.4,6.2-2.8,9.8-4,3.2-1.1,6.3-2,9.3-2.8,3-.8,5.9-1.4,8.6-1.8,2.7-.4,5.2-.6,7.4-.6,2.2,0,4.1.1,5.6.5,1.5.4,2.6.9,3.3,1.7.8,1,.8,2.2,0,3.5-.8,1.3-2.1,2.8-4.2,4.4,1.4-1.2,2.3-2.4,2.8-3.5.4-1.1.4-2-.3-2.8-.6-.8-1.7-1.3-3.2-1.7-1.5-.4-3.4-.5-5.6-.5-2.2,0-4.7.3-7.4.7-2.7.4-5.6,1-8.6,1.8-3,.8-6.1,1.7-9.3,2.8-3.1,1.1-5.9,2.2-8.5,3.4-2.6,1.2-4.9,2.4-6.9,3.6-2,1.2-3.7,2.4-5,3.6"/></g><g><path class="cls-2" d="M247.7,367.7c-1.6.1-3.3.4-5,.7l1.2,2.3c1.9-.1,3.7-.1,5.1,0-1.5,0-3.1,0-5,.3l12.6,23.3-16.5-5.8,26.2,14.4-18.6-35.1M224.7,393.1l14.3-21.3c-2.4.5-4.9,1.1-7.5,1.9l-17.9,30.2,29.9-21.3-18.8,10.5M241.1,368.6c-2.5.5-5.1,1.1-7.7,1.8l-1.3,2.3c2.6-.7,5.1-1.2,7.4-1.6l1.7-2.5M247,366.2l-5.3-9.9-7.4,12.5c2.2-.6,4.4-1.1,6.6-1.6,2.1-.4,4.2-.8,6.1-1M246.6,383.3l-4-2.5-4.8,2.3,4.5-8.7,4.3,8.9"/><path class="cls-2" d="M250.6,370.9c-1.7-.2-3.6-.2-5.8,0-2.2.2-4.6.6-7.2,1.1-2.6.5-5.2,1.2-8,2.1-3,1-5.8,2-8.2,3.1-2.4,1.1-4.5,2.2-6.1,3.3-1.6,1.1-2.8,2.2-3.4,3.2-.7,1-.7,1.9-.2,2.6.6.8,1.6,1.3,3.2,1.6,1.6.3,3.5.4,5.8.3-1.7,0-3.2-.2-4.4-.5-1.2-.3-2-.8-2.4-1.4-.5-.8-.4-1.6.2-2.6.7-1,1.8-2.1,3.4-3.2,1.7-1.1,3.7-2.2,6.1-3.3,2.4-1.1,5.2-2.1,8.2-3.1,2.4-.7,4.7-1.3,6.9-1.8,2.2-.5,4.4-.9,6.4-1.1,2-.3,3.8-.4,5.5-.4M206.9,383.7c1.1-1.3,2.7-2.7,4.7-4.1,2.1-1.4,4.6-2.8,7.5-4.2,2.9-1.4,6.2-2.8,9.8-4,3.2-1.1,6.3-2,9.3-2.8,3-.8,5.9-1.4,8.6-1.8,2.7-.4,5.2-.6,7.4-.6,2.2,0,4.1.1,5.6.5,1.5.4,2.6.9,3.3,1.7.8,1,.8,2.2,0,3.5-.8,1.3-2.1,2.8-4.2,4.4,1.4-1.2,2.3-2.4,2.8-3.5.4-1.1.4-2-.3-2.8-.6-.8-1.7-1.3-3.2-1.7-1.5-.4-3.4-.5-5.6-.5-2.2,0-4.7.3-7.4.7-2.7.4-5.6,1-8.6,1.8-3,.8-6.1,1.7-9.3,2.8-3.1,1.1-5.9,2.2-8.5,3.4-2.6,1.2-4.9,2.4-6.9,3.6-2,1.2-3.7,2.4-5,3.6"/></g><g><path class="cls-2" d="M350.5,367.7c-1.6.1-3.3.4-5,.7l1.2,2.3c1.9-.1,3.7-.1,5.1,0-1.5,0-3.1,0-5,.3l12.6,23.3-16.5-5.8,26.2,14.4-18.6-35.1M327.5,393.1l14.3-21.3c-2.4.5-4.9,1.1-7.5,1.9l-17.9,30.2,29.9-21.3-18.8,10.5M343.8,368.6c-2.5.5-5.1,1.1-7.7,1.8l-1.3,2.3c2.6-.7,5.1-1.2,7.4-1.6l1.7-2.5M349.7,366.2l-5.3-9.9-7.4,12.5c2.2-.6,4.4-1.1,6.6-1.6,2.1-.4,4.2-.8,6.1-1M349.4,383.3l-4-2.5-4.8,2.3,4.5-8.7,4.3,8.9"/><path class="cls-2" d="M353.4,370.9c-1.7-.2-3.6-.2-5.8,0-2.2.2-4.6.6-7.2,1.1-2.6.5-5.2,1.2-8,2.1-3,1-5.8,2-8.2,3.1-2.4,1.1-4.5,2.2-6.1,3.3-1.6,1.1-2.8,2.2-3.4,3.2-.7,1-.7,1.9-.2,2.6.6.8,1.6,1.3,3.2,1.6,1.6.3,3.5.4,5.8.3-1.7,0-3.2-.2-4.4-.5-1.2-.3-2-.8-2.4-1.4-.5-.8-.4-1.6.2-2.6.7-1,1.8-2.1,3.4-3.2,1.7-1.1,3.7-2.2,6.1-3.3,2.4-1.1,5.2-2.1,8.2-3.1,2.4-.7,4.7-1.3,6.9-1.8,2.2-.5,4.4-.9,6.4-1.1,2-.3,3.8-.4,5.5-.4M309.6,383.7c1.1-1.3,2.7-2.7,4.7-4.1,2.1-1.4,4.6-2.8,7.5-4.2,2.9-1.4,6.2-2.8,9.8-4,3.2-1.1,6.3-2,9.3-2.8,3-.8,5.9-1.4,8.6-1.8,2.7-.4,5.2-.6,7.4-.6,2.2,0,4.1.1,5.6.5,1.5.4,2.6.9,3.3,1.7.8,1,.8,2.2,0,3.5-.8,1.3-2.1,2.8-4.2,4.4,1.4-1.2,2.3-2.4,2.8-3.5.4-1.1.4-2-.3-2.8-.6-.8-1.7-1.3-3.2-1.7-1.5-.4-3.4-.5-5.6-.5-2.2,0-4.7.3-7.4.7-2.7.4-5.6,1-8.6,1.8-3,.8-6.1,1.7-9.3,2.8-3.1,1.1-5.9,2.2-8.5,3.4-2.6,1.2-4.9,2.4-6.9,3.6-2,1.2-3.7,2.4-5,3.6"/></g><g><path class="cls-2" d="M453.3,367.7c-1.6.1-3.3.4-5,.7l1.2,2.3c1.9-.1,3.7-.1,5.1,0-1.5,0-3.1,0-5,.3l12.6,23.3-16.5-5.8,26.2,14.4-18.6-35.1M430.2,393.1l14.3-21.3c-2.4.5-4.9,1.1-7.5,1.9l-17.9,30.2,29.9-21.3-18.8,10.5M446.6,368.6c-2.5.5-5.1,1.1-7.7,1.8l-1.3,2.3c2.6-.7,5.1-1.2,7.4-1.6l1.7-2.5M452.5,366.2l-5.3-9.9-7.4,12.5c2.2-.6,4.4-1.1,6.6-1.6,2.1-.4,4.2-.8,6.1-1M452.2,383.3l-4-2.5-4.8,2.3,4.5-8.7,4.3,8.9"/><path class="cls-2" d="M456.1,370.9c-1.7-.2-3.6-.2-5.8,0-2.2.2-4.6.6-7.2,1.1-2.6.5-5.2,1.2-8,2.1-3,1-5.8,2-8.2,3.1-2.4,1.1-4.5,2.2-6.1,3.3-1.6,1.1-2.8,2.2-3.4,3.2-.7,1-.7,1.9-.2,2.6.6.8,1.6,1.3,3.2,1.6,1.6.3,3.5.4,5.8.3-1.7,0-3.2-.2-4.4-.5-1.2-.3-2-.8-2.4-1.4-.5-.8-.4-1.6.2-2.6.7-1,1.8-2.1,3.4-3.2,1.7-1.1,3.7-2.2,6.1-3.3,2.4-1.1,5.2-2.1,8.2-3.1,2.4-.7,4.7-1.3,6.9-1.8,2.2-.5,4.4-.9,6.4-1.1,2-.3,3.8-.4,5.5-.4M412.4,383.7c1.1-1.3,2.7-2.7,4.7-4.1,2.1-1.4,4.6-2.8,7.5-4.2,2.9-1.4,6.2-2.8,9.8-4,3.2-1.1,6.3-2,9.3-2.8,3-.8,5.9-1.4,8.6-1.8,2.7-.4,5.2-.6,7.4-.6,2.2,0,4.1.1,5.6.5,1.5.4,2.6.9,3.3,1.7.8,1,.8,2.2,0,3.5-.8,1.3-2.1,2.8-4.2,4.4,1.4-1.2,2.3-2.4,2.8-3.5.4-1.1.4-2-.3-2.8-.6-.8-1.7-1.3-3.2-1.7-1.5-.4-3.4-.5-5.6-.5-2.2,0-4.7.3-7.4.7-2.7.4-5.6,1-8.6,1.8-3,.8-6.1,1.7-9.3,2.8-3.1,1.1-5.9,2.2-8.5,3.4-2.6,1.2-4.9,2.4-6.9,3.6-2,1.2-3.7,2.4-5,3.6"/></g><g><path class="cls-2" d="M556,367.7c-1.6.1-3.3.4-5,.7l1.2,2.3c1.9-.1,3.7-.1,5.1,0-1.5,0-3.1,0-5,.3l12.6,23.3-16.5-5.8,26.2,14.4-18.6-35.1M533,393.1l14.3-21.3c-2.4.5-4.9,1.1-7.5,1.9l-17.9,30.2,29.9-21.3-18.8,10.5M549.4,368.6c-2.5.5-5.1,1.1-7.7,1.8l-1.3,2.3c2.6-.7,5.1-1.2,7.4-1.6l1.7-2.5M555.3,366.2l-5.3-9.9-7.4,12.5c2.2-.6,4.4-1.1,6.6-1.6,2.1-.4,4.2-.8,6.1-1M554.9,383.3l-4-2.5-4.8,2.3,4.5-8.7,4.3,8.9"/><path class="cls-2" d="M558.9,370.9c-1.7-.2-3.6-.2-5.8,0-2.2.2-4.6.6-7.2,1.1-2.6.5-5.2,1.2-8,2.1-3,1-5.8,2-8.2,3.1-2.4,1.1-4.5,2.2-6.1,3.3-1.6,1.1-2.8,2.2-3.4,3.2-.7,1-.7,1.9-.2,2.6.6.8,1.6,1.3,3.2,1.6,1.6.3,3.5.4,5.8.3-1.7,0-3.2-.2-4.4-.5-1.2-.3-2-.8-2.4-1.4-.5-.8-.4-1.6.2-2.6.7-1,1.8-2.1,3.4-3.2,1.7-1.1,3.7-2.2,6.1-3.3,2.4-1.1,5.2-2.1,8.2-3.1,2.4-.7,4.7-1.3,6.9-1.8,2.2-.5,4.4-.9,6.4-1.1,2-.3,3.8-.4,5.5-.4M515.2,383.7c1.1-1.3,2.7-2.7,4.7-4.1,2.1-1.4,4.6-2.8,7.5-4.2,2.9-1.4,6.2-2.8,9.8-4,3.2-1.1,6.3-2,9.3-2.8,3-.8,5.9-1.4,8.6-1.8,2.7-.4,5.2-.6,7.4-.6,2.2,0,4.1.1,5.6.5,1.5.4,2.6.9,3.3,1.7.8,1,.8,2.2,0,3.5-.8,1.3-2.1,2.8-4.2,4.4,1.4-1.2,2.3-2.4,2.8-3.5.4-1.1.4-2-.3-2.8-.6-.8-1.7-1.3-3.2-1.7-1.5-.4-3.4-.5-5.6-.5-2.2,0-4.7.3-7.4.7-2.7.4-5.6,1-8.6,1.8-3,.8-6.1,1.7-9.3,2.8-3.1,1.1-5.9,2.2-8.5,3.4-2.6,1.2-4.9,2.4-6.9,3.6-2,1.2-3.7,2.4-5,3.6"/></g><g><path class="cls-2" d="M658.8,367.7c-1.6.1-3.3.4-5,.7l1.2,2.3c1.9-.1,3.7-.1,5.1,0-1.5,0-3.1,0-5,.3l12.6,23.3-16.5-5.8,26.2,14.4-18.6-35.1M635.8,393.1l14.3-21.3c-2.4.5-4.9,1.1-7.5,1.9l-17.9,30.2,29.9-21.3-18.8,10.5M652.1,368.6c-2.5.5-5.1,1.1-7.7,1.8l-1.3,2.3c2.6-.7,5.1-1.2,7.4-1.6l1.7-2.5M658,366.2l-5.3-9.9-7.4,12.5c2.2-.6,4.4-1.1,6.6-1.6,2.1-.4,4.2-.8,6.1-1M657.7,383.3l-4-2.5-4.8,2.3,4.5-8.7,4.3,8.9"/><path class="cls-2" d="M661.7,370.9c-1.7-.2-3.6-.2-5.8,0-2.2.2-4.6.6-7.2,1.1-2.6.5-5.2,1.2-8,2.1-3,1-5.8,2-8.2,3.1-2.4,1.1-4.5,2.2-6.1,3.3-1.6,1.1-2.8,2.2-3.4,3.2-.7,1-.7,1.9-.2,2.6.6.8,1.6,1.3,3.2,1.6,1.6.3,3.5.4,5.8.3-1.7,0-3.2-.2-4.4-.5-1.2-.3-2-.8-2.4-1.4-.5-.8-.4-1.6.2-2.6.7-1,1.8-2.1,3.4-3.2,1.7-1.1,3.7-2.2,6.1-3.3,2.4-1.1,5.2-2.1,8.2-3.1,2.4-.7,4.7-1.3,6.9-1.8,2.2-.5,4.4-.9,6.4-1.1,2-.3,3.8-.4,5.5-.4M617.9,383.7c1.1-1.3,2.7-2.7,4.7-4.1,2.1-1.4,4.6-2.8,7.5-4.2,2.9-1.4,6.2-2.8,9.8-4,3.2-1.1,6.3-2,9.3-2.8,3-.8,5.9-1.4,8.6-1.8,2.7-.4,5.2-.6,7.4-.6,2.2,0,4.1.1,5.6.5,1.5.4,2.6.9,3.3,1.7.8,1,.8,2.2,0,3.5-.8,1.3-2.1,2.8-4.2,4.4,1.4-1.2,2.3-2.4,2.8-3.5.4-1.1.4-2-.3-2.8-.6-.8-1.7-1.3-3.2-1.7-1.5-.4-3.4-.5-5.6-.5-2.2,0-4.7.3-7.4.7-2.7.4-5.6,1-8.6,1.8-3,.8-6.1,1.7-9.3,2.8-3.1,1.1-5.9,2.2-8.5,3.4-2.6,1.2-4.9,2.4-6.9,3.6-2,1.2-3.7,2.4-5,3.6"/></g></g><g><g><path class="cls-2" d="M39.9,449.9c-1.6.1-3.3.4-5,.7l1.2,2.3c1.9-.1,3.7-.1,5.1,0-1.5,0-3.1,0-5,.3l12.6,23.3-16.5-5.8,26.2,14.4-18.6-35.1M16.9,475.3l14.3-21.3c-2.4.5-4.9,1.1-7.5,1.9l-17.9,30.2,29.9-21.3-18.8,10.5M33.3,450.8c-2.5.5-5.1,1.1-7.7,1.8l-1.3,2.3c2.6-.7,5.1-1.2,7.4-1.6l1.7-2.5M39.1,448.4l-5.3-9.9-7.4,12.5c2.2-.6,4.4-1.1,6.6-1.6,2.1-.4,4.2-.8,6.1-1M38.8,465.5l-4-2.5-4.8,2.3,4.5-8.7,4.3,8.9"/><path class="cls-2" d="M42.8,453.1c-1.7-.2-3.6-.2-5.8,0-2.2.2-4.6.6-7.2,1.1-2.6.5-5.2,1.2-8,2.1-3,1-5.8,2-8.2,3.1-2.4,1.1-4.5,2.2-6.1,3.3-1.6,1.1-2.8,2.2-3.4,3.2-.7,1-.7,1.9-.2,2.6.6.8,1.6,1.3,3.2,1.6,1.6.3,3.5.4,5.8.3-1.7,0-3.2-.2-4.4-.5-1.2-.3-2-.8-2.4-1.4-.5-.8-.4-1.6.2-2.6.7-1,1.8-2.1,3.4-3.2,1.7-1.1,3.7-2.2,6.1-3.3,2.4-1.1,5.2-2.1,8.2-3.1,2.4-.7,4.7-1.3,6.9-1.8,2.2-.5,4.4-.9,6.4-1.1,2-.3,3.8-.4,5.5-.4M-1,465.9c1.1-1.3,2.7-2.7,4.7-4.1,2.1-1.4,4.6-2.8,7.5-4.2,2.9-1.4,6.2-2.8,9.8-4,3.2-1.1,6.3-2,9.3-2.8,3-.8,5.9-1.4,8.6-1.8,2.7-.4,5.2-.6,7.4-.6,2.2,0,4.1.1,5.6.5,1.5.4,2.6.9,3.3,1.7.8,1,.8,2.2,0,3.5-.8,1.3-2.1,2.8-4.2,4.4,1.4-1.2,2.3-2.4,2.8-3.5.4-1.1.4-2-.3-2.8-.6-.8-1.7-1.3-3.2-1.7-1.5-.4-3.4-.5-5.6-.5-2.2,0-4.7.3-7.4.7-2.7.4-5.6,1-8.6,1.8-3,.8-6.1,1.7-9.3,2.8-3.1,1.1-5.9,2.2-8.5,3.4-2.6,1.2-4.9,2.4-6.9,3.6-2,1.2-3.7,2.4-5,3.6"/></g><g><path class="cls-2" d="M142.7,449.9c-1.6.1-3.3.4-5,.7l1.2,2.3c1.9-.1,3.7-.1,5.1,0-1.5,0-3.1,0-5,.3l12.6,23.3-16.5-5.8,26.2,14.4-18.6-35.1M119.7,475.3l14.3-21.3c-2.4.5-4.9,1.1-7.5,1.9l-17.9,30.2,29.9-21.3-18.8,10.5M136,450.8c-2.5.5-5.1,1.1-7.7,1.8l-1.3,2.3c2.6-.7,5.1-1.2,7.4-1.6l1.7-2.5M141.9,448.4l-5.3-9.9-7.4,12.5c2.2-.6,4.4-1.1,6.6-1.6,2.1-.4,4.2-.8,6.1-1M141.6,465.5l-4-2.5-4.8,2.3,4.5-8.7,4.3,8.9"/><path class="cls-2" d="M145.6,453.1c-1.7-.2-3.6-.2-5.8,0-2.2.2-4.6.6-7.2,1.1-2.6.5-5.2,1.2-8,2.1-3,1-5.8,2-8.2,3.1-2.4,1.1-4.5,2.2-6.1,3.3-1.6,1.1-2.8,2.2-3.4,3.2-.7,1-.7,1.9-.2,2.6.6.8,1.6,1.3,3.2,1.6,1.6.3,3.5.4,5.8.3-1.7,0-3.2-.2-4.4-.5-1.2-.3-2-.8-2.4-1.4-.5-.8-.4-1.6.2-2.6.7-1,1.8-2.1,3.4-3.2,1.7-1.1,3.7-2.2,6.1-3.3,2.4-1.1,5.2-2.1,8.2-3.1,2.4-.7,4.7-1.3,6.9-1.8,2.2-.5,4.4-.9,6.4-1.1,2-.3,3.8-.4,5.5-.4M101.8,465.9c1.1-1.3,2.7-2.7,4.7-4.1,2.1-1.4,4.6-2.8,7.5-4.2,2.9-1.4,6.2-2.8,9.8-4,3.2-1.1,6.3-2,9.3-2.8,3-.8,5.9-1.4,8.6-1.8,2.7-.4,5.2-.6,7.4-.6,2.2,0,4.1.1,5.6.5,1.5.4,2.6.9,3.3,1.7.8,1,.8,2.2,0,3.5-.8,1.3-2.1,2.8-4.2,4.4,1.4-1.2,2.3-2.4,2.8-3.5.4-1.1.4-2-.3-2.8-.6-.8-1.7-1.3-3.2-1.7-1.5-.4-3.4-.5-5.6-.5-2.2,0-4.7.3-7.4.7-2.7.4-5.6,1-8.6,1.8-3,.8-6.1,1.7-9.3,2.8-3.1,1.1-5.9,2.2-8.5,3.4-2.6,1.2-4.9,2.4-6.9,3.6-2,1.2-3.7,2.4-5,3.6"/></g><g><path class="cls-2" d="M245.5,449.9c-1.6.1-3.3.4-5,.7l1.2,2.3c1.9-.1,3.7-.1,5.1,0-1.5,0-3.1,0-5,.3l12.6,23.3-16.5-5.8,26.2,14.4-18.6-35.1M222.4,475.3l14.3-21.3c-2.4.5-4.9,1.1-7.5,1.9l-17.9,30.2,29.9-21.3-18.8,10.5M238.8,450.8c-2.5.5-5.1,1.1-7.7,1.8l-1.3,2.3c2.6-.7,5.1-1.2,7.4-1.6l1.7-2.5M244.7,448.4l-5.3-9.9-7.4,12.5c2.2-.6,4.4-1.1,6.6-1.6,2.1-.4,4.2-.8,6.1-1M244.4,465.5l-4-2.5-4.8,2.3,4.5-8.7,4.3,8.9"/><path class="cls-2" d="M248.3,453.1c-1.7-.2-3.6-.2-5.8,0-2.2.2-4.6.6-7.2,1.1-2.6.5-5.2,1.2-8,2.1-3,1-5.8,2-8.2,3.1-2.4,1.1-4.5,2.2-6.1,3.3-1.6,1.1-2.8,2.2-3.4,3.2-.7,1-.7,1.9-.2,2.6.6.8,1.6,1.3,3.2,1.6,1.6.3,3.5.4,5.8.3-1.7,0-3.2-.2-4.4-.5-1.2-.3-2-.8-2.4-1.4-.5-.8-.4-1.6.2-2.6.7-1,1.8-2.1,3.4-3.2,1.7-1.1,3.7-2.2,6.1-3.3,2.4-1.1,5.2-2.1,8.2-3.1,2.4-.7,4.7-1.3,6.9-1.8,2.2-.5,4.4-.9,6.4-1.1,2-.3,3.8-.4,5.5-.4M204.6,465.9c1.1-1.3,2.7-2.7,4.7-4.1,2.1-1.4,4.6-2.8,7.5-4.2,2.9-1.4,6.2-2.8,9.8-4,3.2-1.1,6.3-2,9.3-2.8,3-.8,5.9-1.4,8.6-1.8,2.7-.4,5.2-.6,7.4-.6,2.2,0,4.1.1,5.6.5,1.5.4,2.6.9,3.3,1.7.8,1,.8,2.2,0,3.5-.8,1.3-2.1,2.8-4.2,4.4,1.4-1.2,2.3-2.4,2.8-3.5.4-1.1.4-2-.3-2.8-.6-.8-1.7-1.3-3.2-1.7-1.5-.4-3.4-.5-5.6-.5-2.2,0-4.7.3-7.4.7-2.7.4-5.6,1-8.6,1.8-3,.8-6.1,1.7-9.3,2.8-3.1,1.1-5.9,2.2-8.5,3.4-2.6,1.2-4.9,2.4-6.9,3.6-2,1.2-3.7,2.4-5,3.6"/></g><g><path class="cls-2" d="M348.2,449.9c-1.6.1-3.3.4-5,.7l1.2,2.3c1.9-.1,3.7-.1,5.1,0-1.5,0-3.1,0-5,.3l12.6,23.3-16.5-5.8,26.2,14.4-18.6-35.1M325.2,475.3l14.3-21.3c-2.4.5-4.9,1.1-7.5,1.9l-17.9,30.2,29.9-21.3-18.8,10.5M341.6,450.8c-2.5.5-5.1,1.1-7.7,1.8l-1.3,2.3c2.6-.7,5.1-1.2,7.4-1.6l1.7-2.5M347.4,448.4l-5.3-9.9-7.4,12.5c2.2-.6,4.4-1.1,6.6-1.6,2.1-.4,4.2-.8,6.1-1M347.1,465.5l-4-2.5-4.8,2.3,4.5-8.7,4.3,8.9"/><path class="cls-2" d="M351.1,453.1c-1.7-.2-3.6-.2-5.8,0-2.2.2-4.6.6-7.2,1.1-2.6.5-5.2,1.2-8,2.1-3,1-5.8,2-8.2,3.1-2.4,1.1-4.5,2.2-6.1,3.3-1.6,1.1-2.8,2.2-3.4,3.2-.7,1-.7,1.9-.2,2.6.6.8,1.6,1.3,3.2,1.6,1.6.3,3.5.4,5.8.3-1.7,0-3.2-.2-4.4-.5-1.2-.3-2-.8-2.4-1.4-.5-.8-.4-1.6.2-2.6.7-1,1.8-2.1,3.4-3.2,1.7-1.1,3.7-2.2,6.1-3.3,2.4-1.1,5.2-2.1,8.2-3.1,2.4-.7,4.7-1.3,6.9-1.8,2.2-.5,4.4-.9,6.4-1.1,2-.3,3.8-.4,5.5-.4M307.3,465.9c1.1-1.3,2.7-2.7,4.7-4.1,2.1-1.4,4.6-2.8,7.5-4.2,2.9-1.4,6.2-2.8,9.8-4,3.2-1.1,6.3-2,9.3-2.8,3-.8,5.9-1.4,8.6-1.8,2.7-.4,5.2-.6,7.4-.6,2.2,0,4.1.1,5.6.5,1.5.4,2.6.9,3.3,1.7.8,1,.8,2.2,0,3.5-.8,1.3-2.1,2.8-4.2,4.4,1.4-1.2,2.3-2.4,2.8-3.5.4-1.1.4-2-.3-2.8-.6-.8-1.7-1.3-3.2-1.7-1.5-.4-3.4-.5-5.6-.5-2.2,0-4.7.3-7.4.7-2.7.4-5.6,1-8.6,1.8-3,.8-6.1,1.7-9.3,2.8-3.1,1.1-5.9,2.2-8.5,3.4-2.6,1.2-4.9,2.4-6.9,3.6-2,1.2-3.7,2.4-5,3.6"/></g><g><path class="cls-2" d="M451,449.9c-1.6.1-3.3.4-5,.7l1.2,2.3c1.9-.1,3.7-.1,5.1,0-1.5,0-3.1,0-5,.3l12.6,23.3-16.5-5.8,26.2,14.4-18.6-35.1M428,475.3l14.3-21.3c-2.4.5-4.9,1.1-7.5,1.9l-17.9,30.2,29.9-21.3-18.8,10.5M444.3,450.8c-2.5.5-5.1,1.1-7.7,1.8l-1.3,2.3c2.6-.7,5.1-1.2,7.4-1.6l1.7-2.5M450.2,448.4l-5.3-9.9-7.4,12.5c2.2-.6,4.4-1.1,6.6-1.6,2.1-.4,4.2-.8,6.1-1M449.9,465.5l-4-2.5-4.8,2.3,4.5-8.7,4.3,8.9"/><path class="cls-2" d="M453.8,453.1c-1.7-.2-3.6-.2-5.8,0-2.2.2-4.6.6-7.2,1.1-2.6.5-5.2,1.2-8,2.1-3,1-5.8,2-8.2,3.1-2.4,1.1-4.5,2.2-6.1,3.3-1.6,1.1-2.8,2.2-3.4,3.2-.7,1-.7,1.9-.2,2.6.6.8,1.6,1.3,3.2,1.6,1.6.3,3.5.4,5.8.3-1.7,0-3.2-.2-4.4-.5-1.2-.3-2-.8-2.4-1.4-.5-.8-.4-1.6.2-2.6.7-1,1.8-2.1,3.4-3.2,1.7-1.1,3.7-2.2,6.1-3.3,2.4-1.1,5.2-2.1,8.2-3.1,2.4-.7,4.7-1.3,6.9-1.8,2.2-.5,4.4-.9,6.4-1.1,2-.3,3.8-.4,5.5-.4M410.1,465.9c1.1-1.3,2.7-2.7,4.7-4.1,2.1-1.4,4.6-2.8,7.5-4.2,2.9-1.4,6.2-2.8,9.8-4,3.2-1.1,6.3-2,9.3-2.8,3-.8,5.9-1.4,8.6-1.8,2.7-.4,5.2-.6,7.4-.6,2.2,0,4.1.1,5.6.5,1.5.4,2.6.9,3.3,1.7.8,1,.8,2.2,0,3.5-.8,1.3-2.1,2.8-4.2,4.4,1.4-1.2,2.3-2.4,2.8-3.5.4-1.1.4-2-.3-2.8-.6-.8-1.7-1.3-3.2-1.7-1.5-.4-3.4-.5-5.6-.5-2.2,0-4.7.3-7.4.7-2.7.4-5.6,1-8.6,1.8-3,.8-6.1,1.7-9.3,2.8-3.1,1.1-5.9,2.2-8.5,3.4-2.6,1.2-4.9,2.4-6.9,3.6-2,1.2-3.7,2.4-5,3.6"/></g><g><path class="cls-2" d="M553.7,449.9c-1.6.1-3.3.4-5,.7l1.2,2.3c1.9-.1,3.7-.1,5.1,0-1.5,0-3.1,0-5,.3l12.6,23.3-16.5-5.8,26.2,14.4-18.6-35.1M530.7,475.3l14.3-21.3c-2.4.5-4.9,1.1-7.5,1.9l-17.9,30.2,29.9-21.3-18.8,10.5M547.1,450.8c-2.5.5-5.1,1.1-7.7,1.8l-1.3,2.3c2.6-.7,5.1-1.2,7.4-1.6l1.7-2.5M553,448.4l-5.3-9.9-7.4,12.5c2.2-.6,4.4-1.1,6.6-1.6,2.1-.4,4.2-.8,6.1-1M552.7,465.5l-4-2.5-4.8,2.3,4.5-8.7,4.3,8.9"/><path class="cls-2" d="M556.6,453.1c-1.7-.2-3.6-.2-5.8,0-2.2.2-4.6.6-7.2,1.1-2.6.5-5.2,1.2-8,2.1-3,1-5.8,2-8.2,3.1-2.4,1.1-4.5,2.2-6.1,3.3-1.6,1.1-2.8,2.2-3.4,3.2-.7,1-.7,1.9-.2,2.6.6.8,1.6,1.3,3.2,1.6,1.6.3,3.5.4,5.8.3-1.7,0-3.2-.2-4.4-.5-1.2-.3-2-.8-2.4-1.4-.5-.8-.4-1.6.2-2.6.7-1,1.8-2.1,3.4-3.2,1.7-1.1,3.7-2.2,6.1-3.3,2.4-1.1,5.2-2.1,8.2-3.1,2.4-.7,4.7-1.3,6.9-1.8,2.2-.5,4.4-.9,6.4-1.1,2-.3,3.8-.4,5.5-.4M512.9,465.9c1.1-1.3,2.7-2.7,4.7-4.1,2.1-1.4,4.6-2.8,7.5-4.2,2.9-1.4,6.2-2.8,9.8-4,3.2-1.1,6.3-2,9.3-2.8,3-.8,5.9-1.4,8.6-1.8,2.7-.4,5.2-.6,7.4-.6,2.2,0,4.1.1,5.6.5,1.5.4,2.6.9,3.3,1.7.8,1,.8,2.2,0,3.5-.8,1.3-2.1,2.8-4.2,4.4,1.4-1.2,2.3-2.4,2.8-3.5.4-1.1.4-2-.3-2.8-.6-.8-1.7-1.3-3.2-1.7-1.5-.4-3.4-.5-5.6-.5-2.2,0-4.7.3-7.4.7-2.7.4-5.6,1-8.6,1.8-3,.8-6.1,1.7-9.3,2.8-3.1,1.1-5.9,2.2-8.5,3.4-2.6,1.2-4.9,2.4-6.9,3.6-2,1.2-3.7,2.4-5,3.6"/></g><g><path class="cls-2" d="M656.5,449.9c-1.6.1-3.3.4-5,.7l1.2,2.3c1.9-.1,3.7-.1,5.1,0-1.5,0-3.1,0-5,.3l12.6,23.3-16.5-5.8,26.2,14.4-18.6-35.1M633.5,475.3l14.3-21.3c-2.4.5-4.9,1.1-7.5,1.9l-17.9,30.2,29.9-21.3-18.8,10.5M649.9,450.8c-2.5.5-5.1,1.1-7.7,1.8l-1.3,2.3c2.6-.7,5.1-1.2,7.4-1.6l1.7-2.5M655.7,448.4l-5.3-9.9-7.4,12.5c2.2-.6,4.4-1.1,6.6-1.6,2.1-.4,4.2-.8,6.1-1M655.4,465.5l-4-2.5-4.8,2.3,4.5-8.7,4.3,8.9"/><path class="cls-2" d="M659.4,453.1c-1.7-.2-3.6-.2-5.8,0-2.2.2-4.6.6-7.2,1.1-2.6.5-5.2,1.2-8,2.1-3,1-5.8,2-8.2,3.1-2.4,1.1-4.5,2.2-6.1,3.3-1.6,1.1-2.8,2.2-3.4,3.2-.7,1-.7,1.9-.2,2.6.6.8,1.6,1.3,3.2,1.6,1.6.3,3.5.4,5.8.3-1.7,0-3.2-.2-4.4-.5-1.2-.3-2-.8-2.4-1.4-.5-.8-.4-1.6.2-2.6.7-1,1.8-2.1,3.4-3.2,1.7-1.1,3.7-2.2,6.1-3.3,2.4-1.1,5.2-2.1,8.2-3.1,2.4-.7,4.7-1.3,6.9-1.8,2.2-.5,4.4-.9,6.4-1.1,2-.3,3.8-.4,5.5-.4M615.6,465.9c1.1-1.3,2.7-2.7,4.7-4.1,2.1-1.4,4.6-2.8,7.5-4.2,2.9-1.4,6.2-2.8,9.8-4,3.2-1.1,6.3-2,9.3-2.8,3-.8,5.9-1.4,8.6-1.8,2.7-.4,5.2-.6,7.4-.6,2.2,0,4.1.1,5.6.5,1.5.4,2.6.9,3.3,1.7.8,1,.8,2.2,0,3.5-.8,1.3-2.1,2.8-4.2,4.4,1.4-1.2,2.3-2.4,2.8-3.5.4-1.1.4-2-.3-2.8-.6-.8-1.7-1.3-3.2-1.7-1.5-.4-3.4-.5-5.6-.5-2.2,0-4.7.3-7.4.7-2.7.4-5.6,1-8.6,1.8-3,.8-6.1,1.7-9.3,2.8-3.1,1.1-5.9,2.2-8.5,3.4-2.6,1.2-4.9,2.4-6.9,3.6-2,1.2-3.7,2.4-5,3.6"/></g></g><g><g><path class="cls-2" d="M39.9,532.1c-1.6.1-3.3.4-5,.7l1.2,2.3c1.9-.1,3.7-.1,5.1,0-1.5,0-3.1,0-5,.3l12.6,23.3-16.5-5.8,26.2,14.4-18.6-35.1M16.9,557.5l14.3-21.3c-2.4.5-4.9,1.1-7.5,1.9l-17.9,30.2,29.9-21.3-18.8,10.5M33.3,533.1c-2.5.5-5.1,1.1-7.7,1.8l-1.3,2.3c2.6-.7,5.1-1.2,7.4-1.6l1.7-2.5M39.1,530.6l-5.3-9.9-7.4,12.5c2.2-.6,4.4-1.1,6.6-1.6,2.1-.4,4.2-.8,6.1-1M38.8,547.7l-4-2.5-4.8,2.3,4.5-8.7,4.3,8.9"/><path class="cls-2" d="M42.8,535.3c-1.7-.2-3.6-.2-5.8,0-2.2.2-4.6.6-7.2,1.1-2.6.5-5.2,1.2-8,2.1-3,1-5.8,2-8.2,3.1-2.4,1.1-4.5,2.2-6.1,3.3-1.6,1.1-2.8,2.2-3.4,3.2-.7,1-.7,1.9-.2,2.6.6.8,1.6,1.3,3.2,1.6,1.6.3,3.5.4,5.8.3-1.7,0-3.2-.2-4.4-.5-1.2-.3-2-.8-2.4-1.4-.5-.8-.4-1.6.2-2.6.7-1,1.8-2.1,3.4-3.2,1.7-1.1,3.7-2.2,6.1-3.3,2.4-1.1,5.2-2.1,8.2-3.1,2.4-.7,4.7-1.3,6.9-1.8,2.2-.5,4.4-.9,6.4-1.1,2-.3,3.8-.4,5.5-.4M-1,548.1c1.1-1.3,2.7-2.7,4.7-4.1,2.1-1.4,4.6-2.8,7.5-4.2,2.9-1.4,6.2-2.8,9.8-4,3.2-1.1,6.3-2,9.3-2.8,3-.8,5.9-1.4,8.6-1.8,2.7-.4,5.2-.6,7.4-.6,2.2,0,4.1.1,5.6.5,1.5.4,2.6.9,3.3,1.7.8,1,.8,2.2,0,3.5-.8,1.3-2.1,2.8-4.2,4.4,1.4-1.2,2.3-2.4,2.8-3.5.4-1.1.4-2-.3-2.8-.6-.8-1.7-1.3-3.2-1.7-1.5-.4-3.4-.5-5.6-.5-2.2,0-4.7.3-7.4.7-2.7.4-5.6,1-8.6,1.8-3,.8-6.1,1.7-9.3,2.8-3.1,1.1-5.9,2.2-8.5,3.4-2.6,1.2-4.9,2.4-6.9,3.6-2,1.2-3.7,2.4-5,3.6"/></g><g><path class="cls-2" d="M142.7,532.1c-1.6.1-3.3.4-5,.7l1.2,2.3c1.9-.1,3.7-.1,5.1,0-1.5,0-3.1,0-5,.3l12.6,23.3-16.5-5.8,26.2,14.4-18.6-35.1M119.7,557.5l14.3-21.3c-2.4.5-4.9,1.1-7.5,1.9l-17.9,30.2,29.9-21.3-18.8,10.5M136,533.1c-2.5.5-5.1,1.1-7.7,1.8l-1.3,2.3c2.6-.7,5.1-1.2,7.4-1.6l1.7-2.5M141.9,530.6l-5.3-9.9-7.4,12.5c2.2-.6,4.4-1.1,6.6-1.6,2.1-.4,4.2-.8,6.1-1M141.6,547.7l-4-2.5-4.8,2.3,4.5-8.7,4.3,8.9"/><path class="cls-2" d="M145.6,535.3c-1.7-.2-3.6-.2-5.8,0-2.2.2-4.6.6-7.2,1.1-2.6.5-5.2,1.2-8,2.1-3,1-5.8,2-8.2,3.1-2.4,1.1-4.5,2.2-6.1,3.3-1.6,1.1-2.8,2.2-3.4,3.2-.7,1-.7,1.9-.2,2.6.6.8,1.6,1.3,3.2,1.6,1.6.3,3.5.4,5.8.3-1.7,0-3.2-.2-4.4-.5-1.2-.3-2-.8-2.4-1.4-.5-.8-.4-1.6.2-2.6.7-1,1.8-2.1,3.4-3.2,1.7-1.1,3.7-2.2,6.1-3.3,2.4-1.1,5.2-2.1,8.2-3.1,2.4-.7,4.7-1.3,6.9-1.8,2.2-.5,4.4-.9,6.4-1.1,2-.3,3.8-.4,5.5-.4M101.8,548.1c1.1-1.3,2.7-2.7,4.7-4.1,2.1-1.4,4.6-2.8,7.5-4.2,2.9-1.4,6.2-2.8,9.8-4,3.2-1.1,6.3-2,9.3-2.8,3-.8,5.9-1.4,8.6-1.8,2.7-.4,5.2-.6,7.4-.6,2.2,0,4.1.1,5.6.5,1.5.4,2.6.9,3.3,1.7.8,1,.8,2.2,0,3.5-.8,1.3-2.1,2.8-4.2,4.4,1.4-1.2,2.3-2.4,2.8-3.5.4-1.1.4-2-.3-2.8-.6-.8-1.7-1.3-3.2-1.7-1.5-.4-3.4-.5-5.6-.5-2.2,0-4.7.3-7.4.7-2.7.4-5.6,1-8.6,1.8-3,.8-6.1,1.7-9.3,2.8-3.1,1.1-5.9,2.2-8.5,3.4-2.6,1.2-4.9,2.4-6.9,3.6-2,1.2-3.7,2.4-5,3.6"/></g><g><path class="cls-2" d="M245.5,532.1c-1.6.1-3.3.4-5,.7l1.2,2.3c1.9-.1,3.7-.1,5.1,0-1.5,0-3.1,0-5,.3l12.6,23.3-16.5-5.8,26.2,14.4-18.6-35.1M222.4,557.5l14.3-21.3c-2.4.5-4.9,1.1-7.5,1.9l-17.9,30.2,29.9-21.3-18.8,10.5M238.8,533.1c-2.5.5-5.1,1.1-7.7,1.8l-1.3,2.3c2.6-.7,5.1-1.2,7.4-1.6l1.7-2.5M244.7,530.6l-5.3-9.9-7.4,12.5c2.2-.6,4.4-1.1,6.6-1.6,2.1-.4,4.2-.8,6.1-1M244.4,547.7l-4-2.5-4.8,2.3,4.5-8.7,4.3,8.9"/><path class="cls-2" d="M248.3,535.3c-1.7-.2-3.6-.2-5.8,0-2.2.2-4.6.6-7.2,1.1-2.6.5-5.2,1.2-8,2.1-3,1-5.8,2-8.2,3.1-2.4,1.1-4.5,2.2-6.1,3.3-1.6,1.1-2.8,2.2-3.4,3.2-.7,1-.7,1.9-.2,2.6.6.8,1.6,1.3,3.2,1.6,1.6.3,3.5.4,5.8.3-1.7,0-3.2-.2-4.4-.5-1.2-.3-2-.8-2.4-1.4-.5-.8-.4-1.6.2-2.6.7-1,1.8-2.1,3.4-3.2,1.7-1.1,3.7-2.2,6.1-3.3,2.4-1.1,5.2-2.1,8.2-3.1,2.4-.7,4.7-1.3,6.9-1.8,2.2-.5,4.4-.9,6.4-1.1,2-.3,3.8-.4,5.5-.4M204.6,548.1c1.1-1.3,2.7-2.7,4.7-4.1,2.1-1.4,4.6-2.8,7.5-4.2,2.9-1.4,6.2-2.8,9.8-4,3.2-1.1,6.3-2,9.3-2.8,3-.8,5.9-1.4,8.6-1.8,2.7-.4,5.2-.6,7.4-.6,2.2,0,4.1.1,5.6.5,1.5.4,2.6.9,3.3,1.7.8,1,.8,2.2,0,3.5-.8,1.3-2.1,2.8-4.2,4.4,1.4-1.2,2.3-2.4,2.8-3.5.4-1.1.4-2-.3-2.8-.6-.8-1.7-1.3-3.2-1.7-1.5-.4-3.4-.5-5.6-.5-2.2,0-4.7.3-7.4.7-2.7.4-5.6,1-8.6,1.8-3,.8-6.1,1.7-9.3,2.8-3.1,1.1-5.9,2.2-8.5,3.4-2.6,1.2-4.9,2.4-6.9,3.6-2,1.2-3.7,2.4-5,3.6"/></g><g><path class="cls-2" d="M348.2,532.1c-1.6.1-3.3.4-5,.7l1.2,2.3c1.9-.1,3.7-.1,5.1,0-1.5,0-3.1,0-5,.3l12.6,23.3-16.5-5.8,26.2,14.4-18.6-35.1M325.2,557.5l14.3-21.3c-2.4.5-4.9,1.1-7.5,1.9l-17.9,30.2,29.9-21.3-18.8,10.5M341.6,533.1c-2.5.5-5.1,1.1-7.7,1.8l-1.3,2.3c2.6-.7,5.1-1.2,7.4-1.6l1.7-2.5M347.4,530.6l-5.3-9.9-7.4,12.5c2.2-.6,4.4-1.1,6.6-1.6,2.1-.4,4.2-.8,6.1-1M347.1,547.7l-4-2.5-4.8,2.3,4.5-8.7,4.3,8.9"/><path class="cls-2" d="M351.1,535.3c-1.7-.2-3.6-.2-5.8,0-2.2.2-4.6.6-7.2,1.1-2.6.5-5.2,1.2-8,2.1-3,1-5.8,2-8.2,3.1-2.4,1.1-4.5,2.2-6.1,3.3-1.6,1.1-2.8,2.2-3.4,3.2-.7,1-.7,1.9-.2,2.6.6.8,1.6,1.3,3.2,1.6,1.6.3,3.5.4,5.8.3-1.7,0-3.2-.2-4.4-.5-1.2-.3-2-.8-2.4-1.4-.5-.8-.4-1.6.2-2.6.7-1,1.8-2.1,3.4-3.2,1.7-1.1,3.7-2.2,6.1-3.3,2.4-1.1,5.2-2.1,8.2-3.1,2.4-.7,4.7-1.3,6.9-1.8,2.2-.5,4.4-.9,6.4-1.1,2-.3,3.8-.4,5.5-.4M307.3,548.1c1.1-1.3,2.7-2.7,4.7-4.1,2.1-1.4,4.6-2.8,7.5-4.2,2.9-1.4,6.2-2.8,9.8-4,3.2-1.1,6.3-2,9.3-2.8,3-.8,5.9-1.4,8.6-1.8,2.7-.4,5.2-.6,7.4-.6,2.2,0,4.1.1,5.6.5,1.5.4,2.6.9,3.3,1.7.8,1,.8,2.2,0,3.5-.8,1.3-2.1,2.8-4.2,4.4,1.4-1.2,2.3-2.4,2.8-3.5.4-1.1.4-2-.3-2.8-.6-.8-1.7-1.3-3.2-1.7-1.5-.4-3.4-.5-5.6-.5-2.2,0-4.7.3-7.4.7-2.7.4-5.6,1-8.6,1.8-3,.8-6.1,1.7-9.3,2.8-3.1,1.1-5.9,2.2-8.5,3.4-2.6,1.2-4.9,2.4-6.9,3.6-2,1.2-3.7,2.4-5,3.6"/></g><g><path class="cls-2" d="M451,532.1c-1.6.1-3.3.4-5,.7l1.2,2.3c1.9-.1,3.7-.1,5.1,0-1.5,0-3.1,0-5,.3l12.6,23.3-16.5-5.8,26.2,14.4-18.6-35.1M428,557.5l14.3-21.3c-2.4.5-4.9,1.1-7.5,1.9l-17.9,30.2,29.9-21.3-18.8,10.5M444.3,533.1c-2.5.5-5.1,1.1-7.7,1.8l-1.3,2.3c2.6-.7,5.1-1.2,7.4-1.6l1.7-2.5M450.2,530.6l-5.3-9.9-7.4,12.5c2.2-.6,4.4-1.1,6.6-1.6,2.1-.4,4.2-.8,6.1-1M449.9,547.7l-4-2.5-4.8,2.3,4.5-8.7,4.3,8.9"/><path class="cls-2" d="M453.8,535.3c-1.7-.2-3.6-.2-5.8,0-2.2.2-4.6.6-7.2,1.1-2.6.5-5.2,1.2-8,2.1-3,1-5.8,2-8.2,3.1-2.4,1.1-4.5,2.2-6.1,3.3-1.6,1.1-2.8,2.2-3.4,3.2-.7,1-.7,1.9-.2,2.6.6.8,1.6,1.3,3.2,1.6,1.6.3,3.5.4,5.8.3-1.7,0-3.2-.2-4.4-.5-1.2-.3-2-.8-2.4-1.4-.5-.8-.4-1.6.2-2.6.7-1,1.8-2.1,3.4-3.2,1.7-1.1,3.7-2.2,6.1-3.3,2.4-1.1,5.2-2.1,8.2-3.1,2.4-.7,4.7-1.3,6.9-1.8,2.2-.5,4.4-.9,6.4-1.1,2-.3,3.8-.4,5.5-.4M410.1,548.1c1.1-1.3,2.7-2.7,4.7-4.1,2.1-1.4,4.6-2.8,7.5-4.2,2.9-1.4,6.2-2.8,9.8-4,3.2-1.1,6.3-2,9.3-2.8,3-.8,5.9-1.4,8.6-1.8,2.7-.4,5.2-.6,7.4-.6,2.2,0,4.1.1,5.6.5,1.5.4,2.6.9,3.3,1.7.8,1,.8,2.2,0,3.5-.8,1.3-2.1,2.8-4.2,4.4,1.4-1.2,2.3-2.4,2.8-3.5.4-1.1.4-2-.3-2.8-.6-.8-1.7-1.3-3.2-1.7-1.5-.4-3.4-.5-5.6-.5-2.2,0-4.7.3-7.4.7-2.7.4-5.6,1-8.6,1.8-3,.8-6.1,1.7-9.3,2.8-3.1,1.1-5.9,2.2-8.5,3.4-2.6,1.2-4.9,2.4-6.9,3.6-2,1.2-3.7,2.4-5,3.6"/></g><g><path class="cls-2" d="M553.7,532.1c-1.6.1-3.3.4-5,.7l1.2,2.3c1.9-.1,3.7-.1,5.1,0-1.5,0-3.1,0-5,.3l12.6,23.3-16.5-5.8,26.2,14.4-18.6-35.1M530.7,557.5l14.3-21.3c-2.4.5-4.9,1.1-7.5,1.9l-17.9,30.2,29.9-21.3-18.8,10.5M547.1,533.1c-2.5.5-5.1,1.1-7.7,1.8l-1.3,2.3c2.6-.7,5.1-1.2,7.4-1.6l1.7-2.5M553,530.6l-5.3-9.9-7.4,12.5c2.2-.6,4.4-1.1,6.6-1.6,2.1-.4,4.2-.8,6.1-1M552.7,547.7l-4-2.5-4.8,2.3,4.5-8.7,4.3,8.9"/><path class="cls-2" d="M556.6,535.3c-1.7-.2-3.6-.2-5.8,0-2.2.2-4.6.6-7.2,1.1-2.6.5-5.2,1.2-8,2.1-3,1-5.8,2-8.2,3.1-2.4,1.1-4.5,2.2-6.1,3.3-1.6,1.1-2.8,2.2-3.4,3.2-.7,1-.7,1.9-.2,2.6.6.8,1.6,1.3,3.2,1.6,1.6.3,3.5.4,5.8.3-1.7,0-3.2-.2-4.4-.5-1.2-.3-2-.8-2.4-1.4-.5-.8-.4-1.6.2-2.6.7-1,1.8-2.1,3.4-3.2,1.7-1.1,3.7-2.2,6.1-3.3,2.4-1.1,5.2-2.1,8.2-3.1,2.4-.7,4.7-1.3,6.9-1.8,2.2-.5,4.4-.9,6.4-1.1,2-.3,3.8-.4,5.5-.4M512.9,548.1c1.1-1.3,2.7-2.7,4.7-4.1,2.1-1.4,4.6-2.8,7.5-4.2,2.9-1.4,6.2-2.8,9.8-4,3.2-1.1,6.3-2,9.3-2.8,3-.8,5.9-1.4,8.6-1.8,2.7-.4,5.2-.6,7.4-.6,2.2,0,4.1.1,5.6.5,1.5.4,2.6.9,3.3,1.7.8,1,.8,2.2,0,3.5-.8,1.3-2.1,2.8-4.2,4.4,1.4-1.2,2.3-2.4,2.8-3.5.4-1.1.4-2-.3-2.8-.6-.8-1.7-1.3-3.2-1.7-1.5-.4-3.4-.5-5.6-.5-2.2,0-4.7.3-7.4.7-2.7.4-5.6,1-8.6,1.8-3,.8-6.1,1.7-9.3,2.8-3.1,1.1-5.9,2.2-8.5,3.4-2.6,1.2-4.9,2.4-6.9,3.6-2,1.2-3.7,2.4-5,3.6"/></g><g><path class="cls-2" d="M656.5,532.1c-1.6.1-3.3.4-5,.7l1.2,2.3c1.9-.1,3.7-.1,5.1,0-1.5,0-3.1,0-5,.3l12.6,23.3-16.5-5.8,26.2,14.4-18.6-35.1M633.5,557.5l14.3-21.3c-2.4.5-4.9,1.1-7.5,1.9l-17.9,30.2,29.9-21.3-18.8,10.5M649.9,533.1c-2.5.5-5.1,1.1-7.7,1.8l-1.3,2.3c2.6-.7,5.1-1.2,7.4-1.6l1.7-2.5M655.7,530.6l-5.3-9.9-7.4,12.5c2.2-.6,4.4-1.1,6.6-1.6,2.1-.4,4.2-.8,6.1-1M655.4,547.7l-4-2.5-4.8,2.3,4.5-8.7,4.3,8.9"/><path class="cls-2" d="M659.4,535.3c-1.7-.2-3.6-.2-5.8,0-2.2.2-4.6.6-7.2,1.1-2.6.5-5.2,1.2-8,2.1-3,1-5.8,2-8.2,3.1-2.4,1.1-4.5,2.2-6.1,3.3-1.6,1.1-2.8,2.2-3.4,3.2-.7,1-.7,1.9-.2,2.6.6.8,1.6,1.3,3.2,1.6,1.6.3,3.5.4,5.8.3-1.7,0-3.2-.2-4.4-.5-1.2-.3-2-.8-2.4-1.4-.5-.8-.4-1.6.2-2.6.7-1,1.8-2.1,3.4-3.2,1.7-1.1,3.7-2.2,6.1-3.3,2.4-1.1,5.2-2.1,8.2-3.1,2.4-.7,4.7-1.3,6.9-1.8,2.2-.5,4.4-.9,6.4-1.1,2-.3,3.8-.4,5.5-.4M615.6,548.1c1.1-1.3,2.7-2.7,4.7-4.1,2.1-1.4,4.6-2.8,7.5-4.2,2.9-1.4,6.2-2.8,9.8-4,3.2-1.1,6.3-2,9.3-2.8,3-.8,5.9-1.4,8.6-1.8,2.7-.4,5.2-.6,7.4-.6,2.2,0,4.1.1,5.6.5,1.5.4,2.6.9,3.3,1.7.8,1,.8,2.2,0,3.5-.8,1.3-2.1,2.8-4.2,4.4,1.4-1.2,2.3-2.4,2.8-3.5.4-1.1.4-2-.3-2.8-.6-.8-1.7-1.3-3.2-1.7-1.5-.4-3.4-.5-5.6-.5-2.2,0-4.7.3-7.4.7-2.7.4-5.6,1-8.6,1.8-3,.8-6.1,1.7-9.3,2.8-3.1,1.1-5.9,2.2-8.5,3.4-2.6,1.2-4.9,2.4-6.9,3.6-2,1.2-3.7,2.4-5,3.6"/></g></g><g><g><path class="cls-2" d="M39.9,614.3c-1.6.1-3.3.4-5,.7l1.2,2.3c1.9-.1,3.7-.1,5.1,0-1.5,0-3.1,0-5,.3l12.6,23.3-16.5-5.8,26.2,14.4-18.6-35.1M16.9,639.7l14.3-21.3c-2.4.5-4.9,1.1-7.5,1.9l-17.9,30.2,29.9-21.3-18.8,10.5M33.3,615.3c-2.5.5-5.1,1.1-7.7,1.8l-1.3,2.3c2.6-.7,5.1-1.2,7.4-1.6l1.7-2.5M39.1,612.9l-5.3-9.9-7.4,12.5c2.2-.6,4.4-1.1,6.6-1.6,2.1-.4,4.2-.8,6.1-1M38.8,629.9l-4-2.5-4.8,2.3,4.5-8.7,4.3,8.9"/><path class="cls-2" d="M42.8,617.5c-1.7-.2-3.6-.2-5.8,0-2.2.2-4.6.6-7.2,1.1-2.6.5-5.2,1.2-8,2.1-3,1-5.8,2-8.2,3.1-2.4,1.1-4.5,2.2-6.1,3.3-1.6,1.1-2.8,2.2-3.4,3.2-.7,1-.7,1.9-.2,2.6.6.8,1.6,1.3,3.2,1.6,1.6.3,3.5.4,5.8.3-1.7,0-3.2-.2-4.4-.5-1.2-.3-2-.8-2.4-1.4-.5-.8-.4-1.6.2-2.6.7-1,1.8-2.1,3.4-3.2,1.7-1.1,3.7-2.2,6.1-3.3,2.4-1.1,5.2-2.1,8.2-3.1,2.4-.7,4.7-1.3,6.9-1.8,2.2-.5,4.4-.9,6.4-1.1,2-.3,3.8-.4,5.5-.4M-1,630.3c1.1-1.3,2.7-2.7,4.7-4.1,2.1-1.4,4.6-2.8,7.5-4.2,2.9-1.4,6.2-2.8,9.8-4,3.2-1.1,6.3-2,9.3-2.8,3-.8,5.9-1.4,8.6-1.8,2.7-.4,5.2-.6,7.4-.6,2.2,0,4.1.1,5.6.5,1.5.4,2.6.9,3.3,1.7.8,1,.8,2.2,0,3.5-.8,1.3-2.1,2.8-4.2,4.4,1.4-1.2,2.3-2.4,2.8-3.5.4-1.1.4-2-.3-2.8-.6-.8-1.7-1.3-3.2-1.7-1.5-.4-3.4-.5-5.6-.5-2.2,0-4.7.3-7.4.7-2.7.4-5.6,1-8.6,1.8-3,.8-6.1,1.7-9.3,2.8-3.1,1.1-5.9,2.2-8.5,3.4-2.6,1.2-4.9,2.4-6.9,3.6-2,1.2-3.7,2.4-5,3.6"/></g><g><path class="cls-2" d="M142.7,614.3c-1.6.1-3.3.4-5,.7l1.2,2.3c1.9-.1,3.7-.1,5.1,0-1.5,0-3.1,0-5,.3l12.6,23.3-16.5-5.8,26.2,14.4-18.6-35.1M119.7,639.7l14.3-21.3c-2.4.5-4.9,1.1-7.5,1.9l-17.9,30.2,29.9-21.3-18.8,10.5M136,615.3c-2.5.5-5.1,1.1-7.7,1.8l-1.3,2.3c2.6-.7,5.1-1.2,7.4-1.6l1.7-2.5M141.9,612.9l-5.3-9.9-7.4,12.5c2.2-.6,4.4-1.1,6.6-1.6,2.1-.4,4.2-.8,6.1-1M141.6,629.9l-4-2.5-4.8,2.3,4.5-8.7,4.3,8.9"/><path class="cls-2" d="M145.6,617.5c-1.7-.2-3.6-.2-5.8,0-2.2.2-4.6.6-7.2,1.1-2.6.5-5.2,1.2-8,2.1-3,1-5.8,2-8.2,3.1-2.4,1.1-4.5,2.2-6.1,3.3-1.6,1.1-2.8,2.2-3.4,3.2-.7,1-.7,1.9-.2,2.6.6.8,1.6,1.3,3.2,1.6,1.6.3,3.5.4,5.8.3-1.7,0-3.2-.2-4.4-.5-1.2-.3-2-.8-2.4-1.4-.5-.8-.4-1.6.2-2.6.7-1,1.8-2.1,3.4-3.2,1.7-1.1,3.7-2.2,6.1-3.3,2.4-1.1,5.2-2.1,8.2-3.1,2.4-.7,4.7-1.3,6.9-1.8,2.2-.5,4.4-.9,6.4-1.1,2-.3,3.8-.4,5.5-.4M101.8,630.3c1.1-1.3,2.7-2.7,4.7-4.1,2.1-1.4,4.6-2.8,7.5-4.2,2.9-1.4,6.2-2.8,9.8-4,3.2-1.1,6.3-2,9.3-2.8,3-.8,5.9-1.4,8.6-1.8,2.7-.4,5.2-.6,7.4-.6,2.2,0,4.1.1,5.6.5,1.5.4,2.6.9,3.3,1.7.8,1,.8,2.2,0,3.5-.8,1.3-2.1,2.8-4.2,4.4,1.4-1.2,2.3-2.4,2.8-3.5.4-1.1.4-2-.3-2.8-.6-.8-1.7-1.3-3.2-1.7-1.5-.4-3.4-.5-5.6-.5-2.2,0-4.7.3-7.4.7-2.7.4-5.6,1-8.6,1.8-3,.8-6.1,1.7-9.3,2.8-3.1,1.1-5.9,2.2-8.5,3.4-2.6,1.2-4.9,2.4-6.9,3.6-2,1.2-3.7,2.4-5,3.6"/></g><g><path class="cls-2" d="M245.5,614.3c-1.6.1-3.3.4-5,.7l1.2,2.3c1.9-.1,3.7-.1,5.1,0-1.5,0-3.1,0-5,.3l12.6,23.3-16.5-5.8,26.2,14.4-18.6-35.1M222.4,639.7l14.3-21.3c-2.4.5-4.9,1.1-7.5,1.9l-17.9,30.2,29.9-21.3-18.8,10.5M238.8,615.3c-2.5.5-5.1,1.1-7.7,1.8l-1.3,2.3c2.6-.7,5.1-1.2,7.4-1.6l1.7-2.5M244.7,612.9l-5.3-9.9-7.4,12.5c2.2-.6,4.4-1.1,6.6-1.6,2.1-.4,4.2-.8,6.1-1M244.4,629.9l-4-2.5-4.8,2.3,4.5-8.7,4.3,8.9"/><path class="cls-2" d="M248.3,617.5c-1.7-.2-3.6-.2-5.8,0-2.2.2-4.6.6-7.2,1.1-2.6.5-5.2,1.2-8,2.1-3,1-5.8,2-8.2,3.1-2.4,1.1-4.5,2.2-6.1,3.3-1.6,1.1-2.8,2.2-3.4,3.2-.7,1-.7,1.9-.2,2.6.6.8,1.6,1.3,3.2,1.6,1.6.3,3.5.4,5.8.3-1.7,0-3.2-.2-4.4-.5-1.2-.3-2-.8-2.4-1.4-.5-.8-.4-1.6.2-2.6.7-1,1.8-2.1,3.4-3.2,1.7-1.1,3.7-2.2,6.1-3.3,2.4-1.1,5.2-2.1,8.2-3.1,2.4-.7,4.7-1.3,6.9-1.8,2.2-.5,4.4-.9,6.4-1.1,2-.3,3.8-.4,5.5-.4M204.6,630.3c1.1-1.3,2.7-2.7,4.7-4.1,2.1-1.4,4.6-2.8,7.5-4.2,2.9-1.4,6.2-2.8,9.8-4,3.2-1.1,6.3-2,9.3-2.8,3-.8,5.9-1.4,8.6-1.8,2.7-.4,5.2-.6,7.4-.6,2.2,0,4.1.1,5.6.5,1.5.4,2.6.9,3.3,1.7.8,1,.8,2.2,0,3.5-.8,1.3-2.1,2.8-4.2,4.4,1.4-1.2,2.3-2.4,2.8-3.5.4-1.1.4-2-.3-2.8-.6-.8-1.7-1.3-3.2-1.7-1.5-.4-3.4-.5-5.6-.5-2.2,0-4.7.3-7.4.7-2.7.4-5.6,1-8.6,1.8-3,.8-6.1,1.7-9.3,2.8-3.1,1.1-5.9,2.2-8.5,3.4-2.6,1.2-4.9,2.4-6.9,3.6-2,1.2-3.7,2.4-5,3.6"/></g><g><path class="cls-2" d="M348.2,614.3c-1.6.1-3.3.4-5,.7l1.2,2.3c1.9-.1,3.7-.1,5.1,0-1.5,0-3.1,0-5,.3l12.6,23.3-16.5-5.8,26.2,14.4-18.6-35.1M325.2,639.7l14.3-21.3c-2.4.5-4.9,1.1-7.5,1.9l-17.9,30.2,29.9-21.3-18.8,10.5M341.6,615.3c-2.5.5-5.1,1.1-7.7,1.8l-1.3,2.3c2.6-.7,5.1-1.2,7.4-1.6l1.7-2.5M347.4,612.9l-5.3-9.9-7.4,12.5c2.2-.6,4.4-1.1,6.6-1.6,2.1-.4,4.2-.8,6.1-1M347.1,629.9l-4-2.5-4.8,2.3,4.5-8.7,4.3,8.9"/><path class="cls-2" d="M351.1,617.5c-1.7-.2-3.6-.2-5.8,0-2.2.2-4.6.6-7.2,1.1-2.6.5-5.2,1.2-8,2.1-3,1-5.8,2-8.2,3.1-2.4,1.1-4.5,2.2-6.1,3.3-1.6,1.1-2.8,2.2-3.4,3.2-.7,1-.7,1.9-.2,2.6.6.8,1.6,1.3,3.2,1.6,1.6.3,3.5.4,5.8.3-1.7,0-3.2-.2-4.4-.5-1.2-.3-2-.8-2.4-1.4-.5-.8-.4-1.6.2-2.6.7-1,1.8-2.1,3.4-3.2,1.7-1.1,3.7-2.2,6.1-3.3,2.4-1.1,5.2-2.1,8.2-3.1,2.4-.7,4.7-1.3,6.9-1.8,2.2-.5,4.4-.9,6.4-1.1,2-.3,3.8-.4,5.5-.4M307.3,630.3c1.1-1.3,2.7-2.7,4.7-4.1,2.1-1.4,4.6-2.8,7.5-4.2,2.9-1.4,6.2-2.8,9.8-4,3.2-1.1,6.3-2,9.3-2.8,3-.8,5.9-1.4,8.6-1.8,2.7-.4,5.2-.6,7.4-.6,2.2,0,4.1.1,5.6.5,1.5.4,2.6.9,3.3,1.7.8,1,.8,2.2,0,3.5-.8,1.3-2.1,2.8-4.2,4.4,1.4-1.2,2.3-2.4,2.8-3.5.4-1.1.4-2-.3-2.8-.6-.8-1.7-1.3-3.2-1.7-1.5-.4-3.4-.5-5.6-.5-2.2,0-4.7.3-7.4.7-2.7.4-5.6,1-8.6,1.8-3,.8-6.1,1.7-9.3,2.8-3.1,1.1-5.9,2.2-8.5,3.4-2.6,1.2-4.9,2.4-6.9,3.6-2,1.2-3.7,2.4-5,3.6"/></g><g><path class="cls-2" d="M451,614.3c-1.6.1-3.3.4-5,.7l1.2,2.3c1.9-.1,3.7-.1,5.1,0-1.5,0-3.1,0-5,.3l12.6,23.3-16.5-5.8,26.2,14.4-18.6-35.1M428,639.7l14.3-21.3c-2.4.5-4.9,1.1-7.5,1.9l-17.9,30.2,29.9-21.3-18.8,10.5M444.3,615.3c-2.5.5-5.1,1.1-7.7,1.8l-1.3,2.3c2.6-.7,5.1-1.2,7.4-1.6l1.7-2.5M450.2,612.9l-5.3-9.9-7.4,12.5c2.2-.6,4.4-1.1,6.6-1.6,2.1-.4,4.2-.8,6.1-1M449.9,629.9l-4-2.5-4.8,2.3,4.5-8.7,4.3,8.9"/><path class="cls-2" d="M453.8,617.5c-1.7-.2-3.6-.2-5.8,0-2.2.2-4.6.6-7.2,1.1-2.6.5-5.2,1.2-8,2.1-3,1-5.8,2-8.2,3.1-2.4,1.1-4.5,2.2-6.1,3.3-1.6,1.1-2.8,2.2-3.4,3.2-.7,1-.7,1.9-.2,2.6.6.8,1.6,1.3,3.2,1.6,1.6.3,3.5.4,5.8.3-1.7,0-3.2-.2-4.4-.5-1.2-.3-2-.8-2.4-1.4-.5-.8-.4-1.6.2-2.6.7-1,1.8-2.1,3.4-3.2,1.7-1.1,3.7-2.2,6.1-3.3,2.4-1.1,5.2-2.1,8.2-3.1,2.4-.7,4.7-1.3,6.9-1.8,2.2-.5,4.4-.9,6.4-1.1,2-.3,3.8-.4,5.5-.4M410.1,630.3c1.1-1.3,2.7-2.7,4.7-4.1,2.1-1.4,4.6-2.8,7.5-4.2,2.9-1.4,6.2-2.8,9.8-4,3.2-1.1,6.3-2,9.3-2.8,3-.8,5.9-1.4,8.6-1.8,2.7-.4,5.2-.6,7.4-.6,2.2,0,4.1.1,5.6.5,1.5.4,2.6.9,3.3,1.7.8,1,.8,2.2,0,3.5-.8,1.3-2.1,2.8-4.2,4.4,1.4-1.2,2.3-2.4,2.8-3.5.4-1.1.4-2-.3-2.8-.6-.8-1.7-1.3-3.2-1.7-1.5-.4-3.4-.5-5.6-.5-2.2,0-4.7.3-7.4.7-2.7.4-5.6,1-8.6,1.8-3,.8-6.1,1.7-9.3,2.8-3.1,1.1-5.9,2.2-8.5,3.4-2.6,1.2-4.9,2.4-6.9,3.6-2,1.2-3.7,2.4-5,3.6"/></g><g><path class="cls-2" d="M553.7,614.3c-1.6.1-3.3.4-5,.7l1.2,2.3c1.9-.1,3.7-.1,5.1,0-1.5,0-3.1,0-5,.3l12.6,23.3-16.5-5.8,26.2,14.4-18.6-35.1M530.7,639.7l14.3-21.3c-2.4.5-4.9,1.1-7.5,1.9l-17.9,30.2,29.9-21.3-18.8,10.5M547.1,615.3c-2.5.5-5.1,1.1-7.7,1.8l-1.3,2.3c2.6-.7,5.1-1.2,7.4-1.6l1.7-2.5M553,612.9l-5.3-9.9-7.4,12.5c2.2-.6,4.4-1.1,6.6-1.6,2.1-.4,4.2-.8,6.1-1M552.7,629.9l-4-2.5-4.8,2.3,4.5-8.7,4.3,8.9"/><path class="cls-2" d="M556.6,617.5c-1.7-.2-3.6-.2-5.8,0-2.2.2-4.6.6-7.2,1.1-2.6.5-5.2,1.2-8,2.1-3,1-5.8,2-8.2,3.1-2.4,1.1-4.5,2.2-6.1,3.3-1.6,1.1-2.8,2.2-3.4,3.2-.7,1-.7,1.9-.2,2.6.6.8,1.6,1.3,3.2,1.6,1.6.3,3.5.4,5.8.3-1.7,0-3.2-.2-4.4-.5-1.2-.3-2-.8-2.4-1.4-.5-.8-.4-1.6.2-2.6.7-1,1.8-2.1,3.4-3.2,1.7-1.1,3.7-2.2,6.1-3.3,2.4-1.1,5.2-2.1,8.2-3.1,2.4-.7,4.7-1.3,6.9-1.8,2.2-.5,4.4-.9,6.4-1.1,2-.3,3.8-.4,5.5-.4M512.9,630.3c1.1-1.3,2.7-2.7,4.7-4.1,2.1-1.4,4.6-2.8,7.5-4.2,2.9-1.4,6.2-2.8,9.8-4,3.2-1.1,6.3-2,9.3-2.8,3-.8,5.9-1.4,8.6-1.8,2.7-.4,5.2-.6,7.4-.6,2.2,0,4.1.1,5.6.5,1.5.4,2.6.9,3.3,1.7.8,1,.8,2.2,0,3.5-.8,1.3-2.1,2.8-4.2,4.4,1.4-1.2,2.3-2.4,2.8-3.5.4-1.1.4-2-.3-2.8-.6-.8-1.7-1.3-3.2-1.7-1.5-.4-3.4-.5-5.6-.5-2.2,0-4.7.3-7.4.7-2.7.4-5.6,1-8.6,1.8-3,.8-6.1,1.7-9.3,2.8-3.1,1.1-5.9,2.2-8.5,3.4-2.6,1.2-4.9,2.4-6.9,3.6-2,1.2-3.7,2.4-5,3.6"/></g><g><path class="cls-2" d="M656.5,614.3c-1.6.1-3.3.4-5,.7l1.2,2.3c1.9-.1,3.7-.1,5.1,0-1.5,0-3.1,0-5,.3l12.6,23.3-16.5-5.8,26.2,14.4-18.6-35.1M633.5,639.7l14.3-21.3c-2.4.5-4.9,1.1-7.5,1.9l-17.9,30.2,29.9-21.3-18.8,10.5M649.9,615.3c-2.5.5-5.1,1.1-7.7,1.8l-1.3,2.3c2.6-.7,5.1-1.2,7.4-1.6l1.7-2.5M655.7,612.9l-5.3-9.9-7.4,12.5c2.2-.6,4.4-1.1,6.6-1.6,2.1-.4,4.2-.8,6.1-1M655.4,629.9l-4-2.5-4.8,2.3,4.5-8.7,4.3,8.9"/><path class="cls-2" d="M659.4,617.5c-1.7-.2-3.6-.2-5.8,0-2.2.2-4.6.6-7.2,1.1-2.6.5-5.2,1.2-8,2.1-3,1-5.8,2-8.2,3.1-2.4,1.1-4.5,2.2-6.1,3.3-1.6,1.1-2.8,2.2-3.4,3.2-.7,1-.7,1.9-.2,2.6.6.8,1.6,1.3,3.2,1.6,1.6.3,3.5.4,5.8.3-1.7,0-3.2-.2-4.4-.5-1.2-.3-2-.8-2.4-1.4-.5-.8-.4-1.6.2-2.6.7-1,1.8-2.1,3.4-3.2,1.7-1.1,3.7-2.2,6.1-3.3,2.4-1.1,5.2-2.1,8.2-3.1,2.4-.7,4.7-1.3,6.9-1.8,2.2-.5,4.4-.9,6.4-1.1,2-.3,3.8-.4,5.5-.4M615.6,630.3c1.1-1.3,2.7-2.7,4.7-4.1,2.1-1.4,4.6-2.8,7.5-4.2,2.9-1.4,6.2-2.8,9.8-4,3.2-1.1,6.3-2,9.3-2.8,3-.8,5.9-1.4,8.6-1.8,2.7-.4,5.2-.6,7.4-.6,2.2,0,4.1.1,5.6.5,1.5.4,2.6.9,3.3,1.7.8,1,.8,2.2,0,3.5-.8,1.3-2.1,2.8-4.2,4.4,1.4-1.2,2.3-2.4,2.8-3.5.4-1.1.4-2-.3-2.8-.6-.8-1.7-1.3-3.2-1.7-1.5-.4-3.4-.5-5.6-.5-2.2,0-4.7.3-7.4.7-2.7.4-5.6,1-8.6,1.8-3,.8-6.1,1.7-9.3,2.8-3.1,1.1-5.9,2.2-8.5,3.4-2.6,1.2-4.9,2.4-6.9,3.6-2,1.2-3.7,2.4-5,3.6"/></g></g><g><g><path class="cls-2" d="M39.9,696.5c-1.6.1-3.3.4-5,.7l1.2,2.3c1.9-.1,3.7-.1,5.1,0-1.5,0-3.1,0-5,.3l12.6,23.3-16.5-5.8,26.2,14.4-18.6-35.1M16.9,721.9l14.3-21.3c-2.4.5-4.9,1.1-7.5,1.9l-17.9,30.2,29.9-21.3-18.8,10.5M33.3,697.5c-2.5.5-5.1,1.1-7.7,1.8l-1.3,2.3c2.6-.7,5.1-1.2,7.4-1.6l1.7-2.5M39.1,695.1l-5.3-9.9-7.4,12.5c2.2-.6,4.4-1.1,6.6-1.6,2.1-.4,4.2-.8,6.1-1M38.8,712.1l-4-2.5-4.8,2.3,4.5-8.7,4.3,8.9"/><path class="cls-2" d="M42.8,699.7c-1.7-.2-3.6-.2-5.8,0-2.2.2-4.6.6-7.2,1.1-2.6.5-5.2,1.2-8,2.1-3,1-5.8,2-8.2,3.1-2.4,1.1-4.5,2.2-6.1,3.3-1.6,1.1-2.8,2.2-3.4,3.2-.7,1-.7,1.9-.2,2.6.6.8,1.6,1.3,3.2,1.6,1.6.3,3.5.4,5.8.3-1.7,0-3.2-.2-4.4-.5-1.2-.3-2-.8-2.4-1.4-.5-.8-.4-1.6.2-2.6.7-1,1.8-2.1,3.4-3.2,1.7-1.1,3.7-2.2,6.1-3.3,2.4-1.1,5.2-2.1,8.2-3.1,2.4-.7,4.7-1.3,6.9-1.8,2.2-.5,4.4-.9,6.4-1.1,2-.3,3.8-.4,5.5-.4M-1,712.5c1.1-1.3,2.7-2.7,4.7-4.1,2.1-1.4,4.6-2.8,7.5-4.2,2.9-1.4,6.2-2.8,9.8-4,3.2-1.1,6.3-2,9.3-2.8,3-.8,5.9-1.4,8.6-1.8,2.7-.4,5.2-.6,7.4-.6,2.2,0,4.1.1,5.6.5,1.5.4,2.6.9,3.3,1.7.8,1,.8,2.2,0,3.5-.8,1.3-2.1,2.8-4.2,4.4,1.4-1.2,2.3-2.4,2.8-3.5.4-1.1.4-2-.3-2.8-.6-.8-1.7-1.3-3.2-1.7-1.5-.4-3.4-.5-5.6-.5-2.2,0-4.7.3-7.4.7-2.7.4-5.6,1-8.6,1.8-3,.8-6.1,1.7-9.3,2.8-3.1,1.1-5.9,2.2-8.5,3.4-2.6,1.2-4.9,2.4-6.9,3.6-2,1.2-3.7,2.4-5,3.6"/></g><g><path class="cls-2" d="M142.7,696.5c-1.6.1-3.3.4-5,.7l1.2,2.3c1.9-.1,3.7-.1,5.1,0-1.5,0-3.1,0-5,.3l12.6,23.3-16.5-5.8,26.2,14.4-18.6-35.1M119.7,721.9l14.3-21.3c-2.4.5-4.9,1.1-7.5,1.9l-17.9,30.2,29.9-21.3-18.8,10.5M136,697.5c-2.5.5-5.1,1.1-7.7,1.8l-1.3,2.3c2.6-.7,5.1-1.2,7.4-1.6l1.7-2.5M141.9,695.1l-5.3-9.9-7.4,12.5c2.2-.6,4.4-1.1,6.6-1.6,2.1-.4,4.2-.8,6.1-1M141.6,712.1l-4-2.5-4.8,2.3,4.5-8.7,4.3,8.9"/><path class="cls-2" d="M145.6,699.7c-1.7-.2-3.6-.2-5.8,0-2.2.2-4.6.6-7.2,1.1-2.6.5-5.2,1.2-8,2.1-3,1-5.8,2-8.2,3.1-2.4,1.1-4.5,2.2-6.1,3.3-1.6,1.1-2.8,2.2-3.4,3.2-.7,1-.7,1.9-.2,2.6.6.8,1.6,1.3,3.2,1.6,1.6.3,3.5.4,5.8.3-1.7,0-3.2-.2-4.4-.5-1.2-.3-2-.8-2.4-1.4-.5-.8-.4-1.6.2-2.6.7-1,1.8-2.1,3.4-3.2,1.7-1.1,3.7-2.2,6.1-3.3,2.4-1.1,5.2-2.1,8.2-3.1,2.4-.7,4.7-1.3,6.9-1.8,2.2-.5,4.4-.9,6.4-1.1,2-.3,3.8-.4,5.5-.4M101.8,712.5c1.1-1.3,2.7-2.7,4.7-4.1,2.1-1.4,4.6-2.8,7.5-4.2,2.9-1.4,6.2-2.8,9.8-4,3.2-1.1,6.3-2,9.3-2.8,3-.8,5.9-1.4,8.6-1.8,2.7-.4,5.2-.6,7.4-.6,2.2,0,4.1.1,5.6.5,1.5.4,2.6.9,3.3,1.7.8,1,.8,2.2,0,3.5-.8,1.3-2.1,2.8-4.2,4.4,1.4-1.2,2.3-2.4,2.8-3.5.4-1.1.4-2-.3-2.8-.6-.8-1.7-1.3-3.2-1.7-1.5-.4-3.4-.5-5.6-.5-2.2,0-4.7.3-7.4.7-2.7.4-5.6,1-8.6,1.8-3,.8-6.1,1.7-9.3,2.8-3.1,1.1-5.9,2.2-8.5,3.4-2.6,1.2-4.9,2.4-6.9,3.6-2,1.2-3.7,2.4-5,3.6"/></g><g><path class="cls-2" d="M245.5,696.5c-1.6.1-3.3.4-5,.7l1.2,2.3c1.9-.1,3.7-.1,5.1,0-1.5,0-3.1,0-5,.3l12.6,23.3-16.5-5.8,26.2,14.4-18.6-35.1M222.4,721.9l14.3-21.3c-2.4.5-4.9,1.1-7.5,1.9l-17.9,30.2,29.9-21.3-18.8,10.5M238.8,697.5c-2.5.5-5.1,1.1-7.7,1.8l-1.3,2.3c2.6-.7,5.1-1.2,7.4-1.6l1.7-2.5M244.7,695.1l-5.3-9.9-7.4,12.5c2.2-.6,4.4-1.1,6.6-1.6,2.1-.4,4.2-.8,6.1-1M244.4,712.1l-4-2.5-4.8,2.3,4.5-8.7,4.3,8.9"/><path class="cls-2" d="M248.3,699.7c-1.7-.2-3.6-.2-5.8,0-2.2.2-4.6.6-7.2,1.1-2.6.5-5.2,1.2-8,2.1-3,1-5.8,2-8.2,3.1-2.4,1.1-4.5,2.2-6.1,3.3-1.6,1.1-2.8,2.2-3.4,3.2-.7,1-.7,1.9-.2,2.6.6.8,1.6,1.3,3.2,1.6,1.6.3,3.5.4,5.8.3-1.7,0-3.2-.2-4.4-.5-1.2-.3-2-.8-2.4-1.4-.5-.8-.4-1.6.2-2.6.7-1,1.8-2.1,3.4-3.2,1.7-1.1,3.7-2.2,6.1-3.3,2.4-1.1,5.2-2.1,8.2-3.1,2.4-.7,4.7-1.3,6.9-1.8,2.2-.5,4.4-.9,6.4-1.1,2-.3,3.8-.4,5.5-.4M204.6,712.5c1.1-1.3,2.7-2.7,4.7-4.1,2.1-1.4,4.6-2.8,7.5-4.2,2.9-1.4,6.2-2.8,9.8-4,3.2-1.1,6.3-2,9.3-2.8,3-.8,5.9-1.4,8.6-1.8,2.7-.4,5.2-.6,7.4-.6,2.2,0,4.1.1,5.6.5,1.5.4,2.6.9,3.3,1.7.8,1,.8,2.2,0,3.5-.8,1.3-2.1,2.8-4.2,4.4,1.4-1.2,2.3-2.4,2.8-3.5.4-1.1.4-2-.3-2.8-.6-.8-1.7-1.3-3.2-1.7-1.5-.4-3.4-.5-5.6-.5-2.2,0-4.7.3-7.4.7-2.7.4-5.6,1-8.6,1.8-3,.8-6.1,1.7-9.3,2.8-3.1,1.1-5.9,2.2-8.5,3.4-2.6,1.2-4.9,2.4-6.9,3.6-2,1.2-3.7,2.4-5,3.6"/></g><g><path class="cls-2" d="M348.2,696.5c-1.6.1-3.3.4-5,.7l1.2,2.3c1.9-.1,3.7-.1,5.1,0-1.5,0-3.1,0-5,.3l12.6,23.3-16.5-5.8,26.2,14.4-18.6-35.1M325.2,721.9l14.3-21.3c-2.4.5-4.9,1.1-7.5,1.9l-17.9,30.2,29.9-21.3-18.8,10.5M341.6,697.5c-2.5.5-5.1,1.1-7.7,1.8l-1.3,2.3c2.6-.7,5.1-1.2,7.4-1.6l1.7-2.5M347.4,695.1l-5.3-9.9-7.4,12.5c2.2-.6,4.4-1.1,6.6-1.6,2.1-.4,4.2-.8,6.1-1M347.1,712.1l-4-2.5-4.8,2.3,4.5-8.7,4.3,8.9"/><path class="cls-2" d="M351.1,699.7c-1.7-.2-3.6-.2-5.8,0-2.2.2-4.6.6-7.2,1.1-2.6.5-5.2,1.2-8,2.1-3,1-5.8,2-8.2,3.1-2.4,1.1-4.5,2.2-6.1,3.3-1.6,1.1-2.8,2.2-3.4,3.2-.7,1-.7,1.9-.2,2.6.6.8,1.6,1.3,3.2,1.6,1.6.3,3.5.4,5.8.3-1.7,0-3.2-.2-4.4-.5-1.2-.3-2-.8-2.4-1.4-.5-.8-.4-1.6.2-2.6.7-1,1.8-2.1,3.4-3.2,1.7-1.1,3.7-2.2,6.1-3.3,2.4-1.1,5.2-2.1,8.2-3.1,2.4-.7,4.7-1.3,6.9-1.8,2.2-.5,4.4-.9,6.4-1.1,2-.3,3.8-.4,5.5-.4M307.3,712.5c1.1-1.3,2.7-2.7,4.7-4.1,2.1-1.4,4.6-2.8,7.5-4.2,2.9-1.4,6.2-2.8,9.8-4,3.2-1.1,6.3-2,9.3-2.8,3-.8,5.9-1.4,8.6-1.8,2.7-.4,5.2-.6,7.4-.6,2.2,0,4.1.1,5.6.5,1.5.4,2.6.9,3.3,1.7.8,1,.8,2.2,0,3.5-.8,1.3-2.1,2.8-4.2,4.4,1.4-1.2,2.3-2.4,2.8-3.5.4-1.1.4-2-.3-2.8-.6-.8-1.7-1.3-3.2-1.7-1.5-.4-3.4-.5-5.6-.5-2.2,0-4.7.3-7.4.7-2.7.4-5.6,1-8.6,1.8-3,.8-6.1,1.7-9.3,2.8-3.1,1.1-5.9,2.2-8.5,3.4-2.6,1.2-4.9,2.4-6.9,3.6-2,1.2-3.7,2.4-5,3.6"/></g><g><path class="cls-2" d="M451,696.5c-1.6.1-3.3.4-5,.7l1.2,2.3c1.9-.1,3.7-.1,5.1,0-1.5,0-3.1,0-5,.3l12.6,23.3-16.5-5.8,26.2,14.4-18.6-35.1M428,721.9l14.3-21.3c-2.4.5-4.9,1.1-7.5,1.9l-17.9,30.2,29.9-21.3-18.8,10.5M444.3,697.5c-2.5.5-5.1,1.1-7.7,1.8l-1.3,2.3c2.6-.7,5.1-1.2,7.4-1.6l1.7-2.5M450.2,695.1l-5.3-9.9-7.4,12.5c2.2-.6,4.4-1.1,6.6-1.6,2.1-.4,4.2-.8,6.1-1M449.9,712.1l-4-2.5-4.8,2.3,4.5-8.7,4.3,8.9"/><path class="cls-2" d="M453.8,699.7c-1.7-.2-3.6-.2-5.8,0-2.2.2-4.6.6-7.2,1.1-2.6.5-5.2,1.2-8,2.1-3,1-5.8,2-8.2,3.1-2.4,1.1-4.5,2.2-6.1,3.3-1.6,1.1-2.8,2.2-3.4,3.2-.7,1-.7,1.9-.2,2.6.6.8,1.6,1.3,3.2,1.6,1.6.3,3.5.4,5.8.3-1.7,0-3.2-.2-4.4-.5-1.2-.3-2-.8-2.4-1.4-.5-.8-.4-1.6.2-2.6.7-1,1.8-2.1,3.4-3.2,1.7-1.1,3.7-2.2,6.1-3.3,2.4-1.1,5.2-2.1,8.2-3.1,2.4-.7,4.7-1.3,6.9-1.8,2.2-.5,4.4-.9,6.4-1.1,2-.3,3.8-.4,5.5-.4M410.1,712.5c1.1-1.3,2.7-2.7,4.7-4.1,2.1-1.4,4.6-2.8,7.5-4.2,2.9-1.4,6.2-2.8,9.8-4,3.2-1.1,6.3-2,9.3-2.8,3-.8,5.9-1.4,8.6-1.8,2.7-.4,5.2-.6,7.4-.6,2.2,0,4.1.1,5.6.5,1.5.4,2.6.9,3.3,1.7.8,1,.8,2.2,0,3.5-.8,1.3-2.1,2.8-4.2,4.4,1.4-1.2,2.3-2.4,2.8-3.5.4-1.1.4-2-.3-2.8-.6-.8-1.7-1.3-3.2-1.7-1.5-.4-3.4-.5-5.6-.5-2.2,0-4.7.3-7.4.7-2.7.4-5.6,1-8.6,1.8-3,.8-6.1,1.7-9.3,2.8-3.1,1.1-5.9,2.2-8.5,3.4-2.6,1.2-4.9,2.4-6.9,3.6-2,1.2-3.7,2.4-5,3.6"/></g><g><path class="cls-2" d="M553.7,696.5c-1.6.1-3.3.4-5,.7l1.2,2.3c1.9-.1,3.7-.1,5.1,0-1.5,0-3.1,0-5,.3l12.6,23.3-16.5-5.8,26.2,14.4-18.6-35.1M530.7,721.9l14.3-21.3c-2.4.5-4.9,1.1-7.5,1.9l-17.9,30.2,29.9-21.3-18.8,10.5M547.1,697.5c-2.5.5-5.1,1.1-7.7,1.8l-1.3,2.3c2.6-.7,5.1-1.2,7.4-1.6l1.7-2.5M553,695.1l-5.3-9.9-7.4,12.5c2.2-.6,4.4-1.1,6.6-1.6,2.1-.4,4.2-.8,6.1-1M552.7,712.1l-4-2.5-4.8,2.3,4.5-8.7,4.3,8.9"/><path class="cls-2" d="M556.6,699.7c-1.7-.2-3.6-.2-5.8,0-2.2.2-4.6.6-7.2,1.1-2.6.5-5.2,1.2-8,2.1-3,1-5.8,2-8.2,3.1-2.4,1.1-4.5,2.2-6.1,3.3-1.6,1.1-2.8,2.2-3.4,3.2-.7,1-.7,1.9-.2,2.6.6.8,1.6,1.3,3.2,1.6,1.6.3,3.5.4,5.8.3-1.7,0-3.2-.2-4.4-.5-1.2-.3-2-.8-2.4-1.4-.5-.8-.4-1.6.2-2.6.7-1,1.8-2.1,3.4-3.2,1.7-1.1,3.7-2.2,6.1-3.3,2.4-1.1,5.2-2.1,8.2-3.1,2.4-.7,4.7-1.3,6.9-1.8,2.2-.5,4.4-.9,6.4-1.1,2-.3,3.8-.4,5.5-.4M512.9,712.5c1.1-1.3,2.7-2.7,4.7-4.1,2.1-1.4,4.6-2.8,7.5-4.2,2.9-1.4,6.2-2.8,9.8-4,3.2-1.1,6.3-2,9.3-2.8,3-.8,5.9-1.4,8.6-1.8,2.7-.4,5.2-.6,7.4-.6,2.2,0,4.1.1,5.6.5,1.5.4,2.6.9,3.3,1.7.8,1,.8,2.2,0,3.5-.8,1.3-2.1,2.8-4.2,4.4,1.4-1.2,2.3-2.4,2.8-3.5.4-1.1.4-2-.3-2.8-.6-.8-1.7-1.3-3.2-1.7-1.5-.4-3.4-.5-5.6-.5-2.2,0-4.7.3-7.4.7-2.7.4-5.6,1-8.6,1.8-3,.8-6.1,1.7-9.3,2.8-3.1,1.1-5.9,2.2-8.5,3.4-2.6,1.2-4.9,2.4-6.9,3.6-2,1.2-3.7,2.4-5,3.6"/></g><g><path class="cls-2" d="M656.5,696.5c-1.6.1-3.3.4-5,.7l1.2,2.3c1.9-.1,3.7-.1,5.1,0-1.5,0-3.1,0-5,.3l12.6,23.3-16.5-5.8,26.2,14.4-18.6-35.1M633.5,721.9l14.3-21.3c-2.4.5-4.9,1.1-7.5,1.9l-17.9,30.2,29.9-21.3-18.8,10.5M649.9,697.5c-2.5.5-5.1,1.1-7.7,1.8l-1.3,2.3c2.6-.7,5.1-1.2,7.4-1.6l1.7-2.5M655.7,695.1l-5.3-9.9-7.4,12.5c2.2-.6,4.4-1.1,6.6-1.6,2.1-.4,4.2-.8,6.1-1M655.4,712.1l-4-2.5-4.8,2.3,4.5-8.7,4.3,8.9"/><path class="cls-2" d="M659.4,699.7c-1.7-.2-3.6-.2-5.8,0-2.2.2-4.6.6-7.2,1.1-2.6.5-5.2,1.2-8,2.1-3,1-5.8,2-8.2,3.1-2.4,1.1-4.5,2.2-6.1,3.3-1.6,1.1-2.8,2.2-3.4,3.2-.7,1-.7,1.9-.2,2.6.6.8,1.6,1.3,3.2,1.6,1.6.3,3.5.4,5.8.3-1.7,0-3.2-.2-4.4-.5-1.2-.3-2-.8-2.4-1.4-.5-.8-.4-1.6.2-2.6.7-1,1.8-2.1,3.4-3.2,1.7-1.1,3.7-2.2,6.1-3.3,2.4-1.1,5.2-2.1,8.2-3.1,2.4-.7,4.7-1.3,6.9-1.8,2.2-.5,4.4-.9,6.4-1.1,2-.3,3.8-.4,5.5-.4M615.6,712.5c1.1-1.3,2.7-2.7,4.7-4.1,2.1-1.4,4.6-2.8,7.5-4.2,2.9-1.4,6.2-2.8,9.8-4,3.2-1.1,6.3-2,9.3-2.8,3-.8,5.9-1.4,8.6-1.8,2.7-.4,5.2-.6,7.4-.6,2.2,0,4.1.1,5.6.5,1.5.4,2.6.9,3.3,1.7.8,1,.8,2.2,0,3.5-.8,1.3-2.1,2.8-4.2,4.4,1.4-1.2,2.3-2.4,2.8-3.5.4-1.1.4-2-.3-2.8-.6-.8-1.7-1.3-3.2-1.7-1.5-.4-3.4-.5-5.6-.5-2.2,0-4.7.3-7.4.7-2.7.4-5.6,1-8.6,1.8-3,.8-6.1,1.7-9.3,2.8-3.1,1.1-5.9,2.2-8.5,3.4-2.6,1.2-4.9,2.4-6.9,3.6-2,1.2-3.7,2.4-5,3.6"/></g></g><g><g><path class="cls-2" d="M39.9,778.7c-1.6.1-3.3.4-5,.7l1.2,2.3c1.9-.1,3.7-.1,5.1,0-1.5,0-3.1,0-5,.3l12.6,23.3-16.5-5.8,26.2,14.4-18.6-35.1M16.9,804.1l14.3-21.3c-2.4.5-4.9,1.1-7.5,1.9l-17.9,30.2,29.9-21.3-18.8,10.5M33.3,779.7c-2.5.5-5.1,1.1-7.7,1.8l-1.3,2.3c2.6-.7,5.1-1.2,7.4-1.6l1.7-2.5M39.1,777.3l-5.3-9.9-7.4,12.5c2.2-.6,4.4-1.1,6.6-1.6,2.1-.4,4.2-.8,6.1-1M38.8,794.3l-4-2.5-4.8,2.3,4.5-8.7,4.3,8.9"/><path class="cls-2" d="M42.8,781.9c-1.7-.2-3.6-.2-5.8,0-2.2.2-4.6.6-7.2,1.1-2.6.5-5.2,1.2-8,2.1-3,1-5.8,2-8.2,3.1-2.4,1.1-4.5,2.2-6.1,3.3-1.6,1.1-2.8,2.2-3.4,3.2-.7,1-.7,1.9-.2,2.6.6.8,1.6,1.3,3.2,1.6,1.6.3,3.5.4,5.8.3-1.7,0-3.2-.2-4.4-.5-1.2-.3-2-.8-2.4-1.4-.5-.8-.4-1.6.2-2.6.7-1,1.8-2.1,3.4-3.2,1.7-1.1,3.7-2.2,6.1-3.3,2.4-1.1,5.2-2.1,8.2-3.1,2.4-.7,4.7-1.3,6.9-1.8,2.2-.5,4.4-.9,6.4-1.1,2-.3,3.8-.4,5.5-.4M-1,794.7c1.1-1.3,2.7-2.7,4.7-4.1,2.1-1.4,4.6-2.8,7.5-4.2,2.9-1.4,6.2-2.8,9.8-4,3.2-1.1,6.3-2,9.3-2.8,3-.8,5.9-1.4,8.6-1.8,2.7-.4,5.2-.6,7.4-.6,2.2,0,4.1.1,5.6.5,1.5.4,2.6.9,3.3,1.7.8,1,.8,2.2,0,3.5-.8,1.3-2.1,2.8-4.2,4.4,1.4-1.2,2.3-2.4,2.8-3.5.4-1.1.4-2-.3-2.8-.6-.8-1.7-1.3-3.2-1.7-1.5-.4-3.4-.5-5.6-.5-2.2,0-4.7.3-7.4.7-2.7.4-5.6,1-8.6,1.8-3,.8-6.1,1.7-9.3,2.8-3.1,1.1-5.9,2.2-8.5,3.4-2.6,1.2-4.9,2.4-6.9,3.6-2,1.2-3.7,2.4-5,3.6"/></g><g><path class="cls-2" d="M142.7,778.7c-1.6.1-3.3.4-5,.7l1.2,2.3c1.9-.1,3.7-.1,5.1,0-1.5,0-3.1,0-5,.3l12.6,23.3-16.5-5.8,26.2,14.4-18.6-35.1M119.7,804.1l14.3-21.3c-2.4.5-4.9,1.1-7.5,1.9l-17.9,30.2,29.9-21.3-18.8,10.5M136,779.7c-2.5.5-5.1,1.1-7.7,1.8l-1.3,2.3c2.6-.7,5.1-1.2,7.4-1.6l1.7-2.5M141.9,777.3l-5.3-9.9-7.4,12.5c2.2-.6,4.4-1.1,6.6-1.6,2.1-.4,4.2-.8,6.1-1M141.6,794.3l-4-2.5-4.8,2.3,4.5-8.7,4.3,8.9"/><path class="cls-2" d="M145.6,781.9c-1.7-.2-3.6-.2-5.8,0-2.2.2-4.6.6-7.2,1.1-2.6.5-5.2,1.2-8,2.1-3,1-5.8,2-8.2,3.1-2.4,1.1-4.5,2.2-6.1,3.3-1.6,1.1-2.8,2.2-3.4,3.2-.7,1-.7,1.9-.2,2.6.6.8,1.6,1.3,3.2,1.6,1.6.3,3.5.4,5.8.3-1.7,0-3.2-.2-4.4-.5-1.2-.3-2-.8-2.4-1.4-.5-.8-.4-1.6.2-2.6.7-1,1.8-2.1,3.4-3.2,1.7-1.1,3.7-2.2,6.1-3.3,2.4-1.1,5.2-2.1,8.2-3.1,2.4-.7,4.7-1.3,6.9-1.8,2.2-.5,4.4-.9,6.4-1.1,2-.3,3.8-.4,5.5-.4M101.8,794.7c1.1-1.3,2.7-2.7,4.7-4.1,2.1-1.4,4.6-2.8,7.5-4.2,2.9-1.4,6.2-2.8,9.8-4,3.2-1.1,6.3-2,9.3-2.8,3-.8,5.9-1.4,8.6-1.8,2.7-.4,5.2-.6,7.4-.6,2.2,0,4.1.1,5.6.5,1.5.4,2.6.9,3.3,1.7.8,1,.8,2.2,0,3.5-.8,1.3-2.1,2.8-4.2,4.4,1.4-1.2,2.3-2.4,2.8-3.5.4-1.1.4-2-.3-2.8-.6-.8-1.7-1.3-3.2-1.7-1.5-.4-3.4-.5-5.6-.5-2.2,0-4.7.3-7.4.7-2.7.4-5.6,1-8.6,1.8-3,.8-6.1,1.7-9.3,2.8-3.1,1.1-5.9,2.2-8.5,3.4-2.6,1.2-4.9,2.4-6.9,3.6-2,1.2-3.7,2.4-5,3.6"/></g><g><path class="cls-2" d="M245.5,778.7c-1.6.1-3.3.4-5,.7l1.2,2.3c1.9-.1,3.7-.1,5.1,0-1.5,0-3.1,0-5,.3l12.6,23.3-16.5-5.8,26.2,14.4-18.6-35.1M222.4,804.1l14.3-21.3c-2.4.5-4.9,1.1-7.5,1.9l-17.9,30.2,29.9-21.3-18.8,10.5M238.8,779.7c-2.5.5-5.1,1.1-7.7,1.8l-1.3,2.3c2.6-.7,5.1-1.2,7.4-1.6l1.7-2.5M244.7,777.3l-5.3-9.9-7.4,12.5c2.2-.6,4.4-1.1,6.6-1.6,2.1-.4,4.2-.8,6.1-1M244.4,794.3l-4-2.5-4.8,2.3,4.5-8.7,4.3,8.9"/><path class="cls-2" d="M248.3,781.9c-1.7-.2-3.6-.2-5.8,0-2.2.2-4.6.6-7.2,1.1-2.6.5-5.2,1.2-8,2.1-3,1-5.8,2-8.2,3.1-2.4,1.1-4.5,2.2-6.1,3.3-1.6,1.1-2.8,2.2-3.4,3.2-.7,1-.7,1.9-.2,2.6.6.8,1.6,1.3,3.2,1.6,1.6.3,3.5.4,5.8.3-1.7,0-3.2-.2-4.4-.5-1.2-.3-2-.8-2.4-1.4-.5-.8-.4-1.6.2-2.6.7-1,1.8-2.1,3.4-3.2,1.7-1.1,3.7-2.2,6.1-3.3,2.4-1.1,5.2-2.1,8.2-3.1,2.4-.7,4.7-1.3,6.9-1.8,2.2-.5,4.4-.9,6.4-1.1,2-.3,3.8-.4,5.5-.4M204.6,794.7c1.1-1.3,2.7-2.7,4.7-4.1,2.1-1.4,4.6-2.8,7.5-4.2,2.9-1.4,6.2-2.8,9.8-4,3.2-1.1,6.3-2,9.3-2.8,3-.8,5.9-1.4,8.6-1.8,2.7-.4,5.2-.6,7.4-.6,2.2,0,4.1.1,5.6.5,1.5.4,2.6.9,3.3,1.7.8,1,.8,2.2,0,3.5-.8,1.3-2.1,2.8-4.2,4.4,1.4-1.2,2.3-2.4,2.8-3.5.4-1.1.4-2-.3-2.8-.6-.8-1.7-1.3-3.2-1.7-1.5-.4-3.4-.5-5.6-.5-2.2,0-4.7.3-7.4.7-2.7.4-5.6,1-8.6,1.8-3,.8-6.1,1.7-9.3,2.8-3.1,1.1-5.9,2.2-8.5,3.4-2.6,1.2-4.9,2.4-6.9,3.6-2,1.2-3.7,2.4-5,3.6"/></g><g><path class="cls-2" d="M348.2,778.7c-1.6.1-3.3.4-5,.7l1.2,2.3c1.9-.1,3.7-.1,5.1,0-1.5,0-3.1,0-5,.3l12.6,23.3-16.5-5.8,26.2,14.4-18.6-35.1M325.2,804.1l14.3-21.3c-2.4.5-4.9,1.1-7.5,1.9l-17.9,30.2,29.9-21.3-18.8,10.5M341.6,779.7c-2.5.5-5.1,1.1-7.7,1.8l-1.3,2.3c2.6-.7,5.1-1.2,7.4-1.6l1.7-2.5M347.4,777.3l-5.3-9.9-7.4,12.5c2.2-.6,4.4-1.1,6.6-1.6,2.1-.4,4.2-.8,6.1-1M347.1,794.3l-4-2.5-4.8,2.3,4.5-8.7,4.3,8.9"/><path class="cls-2" d="M351.1,781.9c-1.7-.2-3.6-.2-5.8,0-2.2.2-4.6.6-7.2,1.1-2.6.5-5.2,1.2-8,2.1-3,1-5.8,2-8.2,3.1-2.4,1.1-4.5,2.2-6.1,3.3-1.6,1.1-2.8,2.2-3.4,3.2-.7,1-.7,1.9-.2,2.6.6.8,1.6,1.3,3.2,1.6,1.6.3,3.5.4,5.8.3-1.7,0-3.2-.2-4.4-.5-1.2-.3-2-.8-2.4-1.4-.5-.8-.4-1.6.2-2.6.7-1,1.8-2.1,3.4-3.2,1.7-1.1,3.7-2.2,6.1-3.3,2.4-1.1,5.2-2.1,8.2-3.1,2.4-.7,4.7-1.3,6.9-1.8,2.2-.5,4.4-.9,6.4-1.1,2-.3,3.8-.4,5.5-.4M307.3,794.7c1.1-1.3,2.7-2.7,4.7-4.1,2.1-1.4,4.6-2.8,7.5-4.2,2.9-1.4,6.2-2.8,9.8-4,3.2-1.1,6.3-2,9.3-2.8,3-.8,5.9-1.4,8.6-1.8,2.7-.4,5.2-.6,7.4-.6,2.2,0,4.1.1,5.6.5,1.5.4,2.6.9,3.3,1.7.8,1,.8,2.2,0,3.5-.8,1.3-2.1,2.8-4.2,4.4,1.4-1.2,2.3-2.4,2.8-3.5.4-1.1.4-2-.3-2.8-.6-.8-1.7-1.3-3.2-1.7-1.5-.4-3.4-.5-5.6-.5-2.2,0-4.7.3-7.4.7-2.7.4-5.6,1-8.6,1.8-3,.8-6.1,1.7-9.3,2.8-3.1,1.1-5.9,2.2-8.5,3.4-2.6,1.2-4.9,2.4-6.9,3.6-2,1.2-3.7,2.4-5,3.6"/></g><g><path class="cls-2" d="M451,778.7c-1.6.1-3.3.4-5,.7l1.2,2.3c1.9-.1,3.7-.1,5.1,0-1.5,0-3.1,0-5,.3l12.6,23.3-16.5-5.8,26.2,14.4-18.6-35.1M428,804.1l14.3-21.3c-2.4.5-4.9,1.1-7.5,1.9l-17.9,30.2,29.9-21.3-18.8,10.5M444.3,779.7c-2.5.5-5.1,1.1-7.7,1.8l-1.3,2.3c2.6-.7,5.1-1.2,7.4-1.6l1.7-2.5M450.2,777.3l-5.3-9.9-7.4,12.5c2.2-.6,4.4-1.1,6.6-1.6,2.1-.4,4.2-.8,6.1-1M449.9,794.3l-4-2.5-4.8,2.3,4.5-8.7,4.3,8.9"/><path class="cls-2" d="M453.8,781.9c-1.7-.2-3.6-.2-5.8,0-2.2.2-4.6.6-7.2,1.1-2.6.5-5.2,1.2-8,2.1-3,1-5.8,2-8.2,3.1-2.4,1.1-4.5,2.2-6.1,3.3-1.6,1.1-2.8,2.2-3.4,3.2-.7,1-.7,1.9-.2,2.6.6.8,1.6,1.3,3.2,1.6,1.6.3,3.5.4,5.8.3-1.7,0-3.2-.2-4.4-.5-1.2-.3-2-.8-2.4-1.4-.5-.8-.4-1.6.2-2.6.7-1,1.8-2.1,3.4-3.2,1.7-1.1,3.7-2.2,6.1-3.3,2.4-1.1,5.2-2.1,8.2-3.1,2.4-.7,4.7-1.3,6.9-1.8,2.2-.5,4.4-.9,6.4-1.1,2-.3,3.8-.4,5.5-.4M410.1,794.7c1.1-1.3,2.7-2.7,4.7-4.1,2.1-1.4,4.6-2.8,7.5-4.2,2.9-1.4,6.2-2.8,9.8-4,3.2-1.1,6.3-2,9.3-2.8,3-.8,5.9-1.4,8.6-1.8,2.7-.4,5.2-.6,7.4-.6,2.2,0,4.1.1,5.6.5,1.5.4,2.6.9,3.3,1.7.8,1,.8,2.2,0,3.5-.8,1.3-2.1,2.8-4.2,4.4,1.4-1.2,2.3-2.4,2.8-3.5.4-1.1.4-2-.3-2.8-.6-.8-1.7-1.3-3.2-1.7-1.5-.4-3.4-.5-5.6-.5-2.2,0-4.7.3-7.4.7-2.7.4-5.6,1-8.6,1.8-3,.8-6.1,1.7-9.3,2.8-3.1,1.1-5.9,2.2-8.5,3.4-2.6,1.2-4.9,2.4-6.9,3.6-2,1.2-3.7,2.4-5,3.6"/></g><g><path class="cls-2" d="M553.7,778.7c-1.6.1-3.3.4-5,.7l1.2,2.3c1.9-.1,3.7-.1,5.1,0-1.5,0-3.1,0-5,.3l12.6,23.3-16.5-5.8,26.2,14.4-18.6-35.1M530.7,804.1l14.3-21.3c-2.4.5-4.9,1.1-7.5,1.9l-17.9,30.2,29.9-21.3-18.8,10.5M547.1,779.7c-2.5.5-5.1,1.1-7.7,1.8l-1.3,2.3c2.6-.7,5.1-1.2,7.4-1.6l1.7-2.5M553,777.3l-5.3-9.9-7.4,12.5c2.2-.6,4.4-1.1,6.6-1.6,2.1-.4,4.2-.8,6.1-1M552.7,794.3l-4-2.5-4.8,2.3,4.5-8.7,4.3,8.9"/><path class="cls-2" d="M556.6,781.9c-1.7-.2-3.6-.2-5.8,0-2.2.2-4.6.6-7.2,1.1-2.6.5-5.2,1.2-8,2.1-3,1-5.8,2-8.2,3.1-2.4,1.1-4.5,2.2-6.1,3.3-1.6,1.1-2.8,2.2-3.4,3.2-.7,1-.7,1.9-.2,2.6.6.8,1.6,1.3,3.2,1.6,1.6.3,3.5.4,5.8.3-1.7,0-3.2-.2-4.4-.5-1.2-.3-2-.8-2.4-1.4-.5-.8-.4-1.6.2-2.6.7-1,1.8-2.1,3.4-3.2,1.7-1.1,3.7-2.2,6.1-3.3,2.4-1.1,5.2-2.1,8.2-3.1,2.4-.7,4.7-1.3,6.9-1.8,2.2-.5,4.4-.9,6.4-1.1,2-.3,3.8-.4,5.5-.4M512.9,794.7c1.1-1.3,2.7-2.7,4.7-4.1,2.1-1.4,4.6-2.8,7.5-4.2,2.9-1.4,6.2-2.8,9.8-4,3.2-1.1,6.3-2,9.3-2.8,3-.8,5.9-1.4,8.6-1.8,2.7-.4,5.2-.6,7.4-.6,2.2,0,4.1.1,5.6.5,1.5.4,2.6.9,3.3,1.7.8,1,.8,2.2,0,3.5-.8,1.3-2.1,2.8-4.2,4.4,1.4-1.2,2.3-2.4,2.8-3.5.4-1.1.4-2-.3-2.8-.6-.8-1.7-1.3-3.2-1.7-1.5-.4-3.4-.5-5.6-.5-2.2,0-4.7.3-7.4.7-2.7.4-5.6,1-8.6,1.8-3,.8-6.1,1.7-9.3,2.8-3.1,1.1-5.9,2.2-8.5,3.4-2.6,1.2-4.9,2.4-6.9,3.6-2,1.2-3.7,2.4-5,3.6"/></g><g><path class="cls-2" d="M656.5,778.7c-1.6.1-3.3.4-5,.7l1.2,2.3c1.9-.1,3.7-.1,5.1,0-1.5,0-3.1,0-5,.3l12.6,23.3-16.5-5.8,26.2,14.4-18.6-35.1M633.5,804.1l14.3-21.3c-2.4.5-4.9,1.1-7.5,1.9l-17.9,30.2,29.9-21.3-18.8,10.5M649.9,779.7c-2.5.5-5.1,1.1-7.7,1.8l-1.3,2.3c2.6-.7,5.1-1.2,7.4-1.6l1.7-2.5M655.7,777.3l-5.3-9.9-7.4,12.5c2.2-.6,4.4-1.1,6.6-1.6,2.1-.4,4.2-.8,6.1-1M655.4,794.3l-4-2.5-4.8,2.3,4.5-8.7,4.3,8.9"/><path class="cls-2" d="M659.4,781.9c-1.7-.2-3.6-.2-5.8,0-2.2.2-4.6.6-7.2,1.1-2.6.5-5.2,1.2-8,2.1-3,1-5.8,2-8.2,3.1-2.4,1.1-4.5,2.2-6.1,3.3-1.6,1.1-2.8,2.2-3.4,3.2-.7,1-.7,1.9-.2,2.6.6.8,1.6,1.3,3.2,1.6,1.6.3,3.5.4,5.8.3-1.7,0-3.2-.2-4.4-.5-1.2-.3-2-.8-2.4-1.4-.5-.8-.4-1.6.2-2.6.7-1,1.8-2.1,3.4-3.2,1.7-1.1,3.7-2.2,6.1-3.3,2.4-1.1,5.2-2.1,8.2-3.1,2.4-.7,4.7-1.3,6.9-1.8,2.2-.5,4.4-.9,6.4-1.1,2-.3,3.8-.4,5.5-.4M615.6,794.7c1.1-1.3,2.7-2.7,4.7-4.1,2.1-1.4,4.6-2.8,7.5-4.2,2.9-1.4,6.2-2.8,9.8-4,3.2-1.1,6.3-2,9.3-2.8,3-.8,5.9-1.4,8.6-1.8,2.7-.4,5.2-.6,7.4-.6,2.2,0,4.1.1,5.6.5,1.5.4,2.6.9,3.3,1.7.8,1,.8,2.2,0,3.5-.8,1.3-2.1,2.8-4.2,4.4,1.4-1.2,2.3-2.4,2.8-3.5.4-1.1.4-2-.3-2.8-.6-.8-1.7-1.3-3.2-1.7-1.5-.4-3.4-.5-5.6-.5-2.2,0-4.7.3-7.4.7-2.7.4-5.6,1-8.6,1.8-3,.8-6.1,1.7-9.3,2.8-3.1,1.1-5.9,2.2-8.5,3.4-2.6,1.2-4.9,2.4-6.9,3.6-2,1.2-3.7,2.4-5,3.6"/></g></g><g><g><path class="cls-2" d="M35.3,860.9c-1.6.1-3.3.4-5,.7l1.2,2.3c1.9-.1,3.7-.1,5.1,0-1.5,0-3.1,0-5,.3l12.6,23.3-16.5-5.8,26.2,14.4-18.6-35.1M12.3,886.3l14.3-21.3c-2.4.5-4.9,1.1-7.5,1.9l-17.9,30.2,29.9-21.3-18.8,10.5M28.7,861.9c-2.5.5-5.1,1.1-7.7,1.8l-1.3,2.3c2.6-.7,5.1-1.2,7.4-1.6l1.7-2.5M34.6,859.5l-5.3-9.9-7.4,12.5c2.2-.6,4.4-1.1,6.6-1.6,2.1-.4,4.2-.8,6.1-1M34.3,876.5l-4-2.5-4.8,2.3,4.5-8.7,4.3,8.9"/><path class="cls-2" d="M38.2,864.2c-1.7-.2-3.6-.2-5.8,0-2.2.2-4.6.6-7.2,1.1-2.6.5-5.2,1.2-8,2.1-3,1-5.8,2-8.2,3.1-2.4,1.1-4.5,2.2-6.1,3.3-1.6,1.1-2.8,2.2-3.4,3.2-.7,1-.7,1.9-.2,2.6.6.8,1.6,1.3,3.2,1.6,1.6.3,3.5.4,5.8.3-1.7,0-3.2-.2-4.4-.5-1.2-.3-2-.8-2.4-1.4-.5-.8-.4-1.6.2-2.6.7-1,1.8-2.1,3.4-3.2,1.7-1.1,3.7-2.2,6.1-3.3,2.4-1.1,5.2-2.1,8.2-3.1,2.4-.7,4.7-1.3,6.9-1.8,2.2-.5,4.4-.9,6.4-1.1,2-.3,3.8-.4,5.5-.4M-5.5,876.9c1.1-1.3,2.7-2.7,4.7-4.1,2.1-1.4,4.6-2.8,7.5-4.2,2.9-1.4,6.2-2.8,9.8-4,3.2-1.1,6.3-2,9.3-2.8,3-.8,5.9-1.4,8.6-1.8,2.7-.4,5.2-.6,7.4-.6,2.2,0,4.1.1,5.6.5,1.5.4,2.6.9,3.3,1.7.8,1,.8,2.2,0,3.5-.8,1.3-2.1,2.8-4.2,4.4,1.4-1.2,2.3-2.4,2.8-3.5.4-1.1.4-2-.3-2.8-.6-.8-1.7-1.3-3.2-1.7-1.5-.4-3.4-.5-5.6-.5-2.2,0-4.7.3-7.4.7-2.7.4-5.6,1-8.6,1.8-3,.8-6.1,1.7-9.3,2.8-3.1,1.1-5.9,2.2-8.5,3.4-2.6,1.2-4.9,2.4-6.9,3.6-2,1.2-3.7,2.4-5,3.6"/></g><g><path class="cls-2" d="M138.1,860.9c-1.6.1-3.3.4-5,.7l1.2,2.3c1.9-.1,3.7-.1,5.1,0-1.5,0-3.1,0-5,.3l12.6,23.3-16.5-5.8,26.2,14.4-18.6-35.1M115.1,886.3l14.3-21.3c-2.4.5-4.9,1.1-7.5,1.9l-17.9,30.2,29.9-21.3-18.8,10.5M131.5,861.9c-2.5.5-5.1,1.1-7.7,1.8l-1.3,2.3c2.6-.7,5.1-1.2,7.4-1.6l1.7-2.5M137.3,859.5l-5.3-9.9-7.4,12.5c2.2-.6,4.4-1.1,6.6-1.6,2.1-.4,4.2-.8,6.1-1M137,876.5l-4-2.5-4.8,2.3,4.5-8.7,4.3,8.9"/><path class="cls-2" d="M141,864.2c-1.7-.2-3.6-.2-5.8,0-2.2.2-4.6.6-7.2,1.1-2.6.5-5.2,1.2-8,2.1-3,1-5.8,2-8.2,3.1-2.4,1.1-4.5,2.2-6.1,3.3-1.6,1.1-2.8,2.2-3.4,3.2-.7,1-.7,1.9-.2,2.6.6.8,1.6,1.3,3.2,1.6,1.6.3,3.5.4,5.8.3-1.7,0-3.2-.2-4.4-.5-1.2-.3-2-.8-2.4-1.4-.5-.8-.4-1.6.2-2.6.7-1,1.8-2.1,3.4-3.2,1.7-1.1,3.7-2.2,6.1-3.3,2.4-1.1,5.2-2.1,8.2-3.1,2.4-.7,4.7-1.3,6.9-1.8,2.2-.5,4.4-.9,6.4-1.1,2-.3,3.8-.4,5.5-.4M97.2,876.9c1.1-1.3,2.7-2.7,4.7-4.1,2.1-1.4,4.6-2.8,7.5-4.2,2.9-1.4,6.2-2.8,9.8-4,3.2-1.1,6.3-2,9.3-2.8,3-.8,5.9-1.4,8.6-1.8,2.7-.4,5.2-.6,7.4-.6,2.2,0,4.1.1,5.6.5,1.5.4,2.6.9,3.3,1.7.8,1,.8,2.2,0,3.5-.8,1.3-2.1,2.8-4.2,4.4,1.4-1.2,2.3-2.4,2.8-3.5.4-1.1.4-2-.3-2.8-.6-.8-1.7-1.3-3.2-1.7-1.5-.4-3.4-.5-5.6-.5-2.2,0-4.7.3-7.4.7-2.7.4-5.6,1-8.6,1.8-3,.8-6.1,1.7-9.3,2.8-3.1,1.1-5.9,2.2-8.5,3.4-2.6,1.2-4.9,2.4-6.9,3.6-2,1.2-3.7,2.4-5,3.6"/></g><g><path class="cls-2" d="M240.9,860.9c-1.6.1-3.3.4-5,.7l1.2,2.3c1.9-.1,3.7-.1,5.1,0-1.5,0-3.1,0-5,.3l12.6,23.3-16.5-5.8,26.2,14.4-18.6-35.1M217.8,886.3l14.3-21.3c-2.4.5-4.9,1.1-7.5,1.9l-17.9,30.2,29.9-21.3-18.8,10.5M234.2,861.9c-2.5.5-5.1,1.1-7.7,1.8l-1.3,2.3c2.6-.7,5.1-1.2,7.4-1.6l1.7-2.5M240.1,859.5l-5.3-9.9-7.4,12.5c2.2-.6,4.4-1.1,6.6-1.6,2.1-.4,4.2-.8,6.1-1M239.8,876.5l-4-2.5-4.8,2.3,4.5-8.7,4.3,8.9"/><path class="cls-2" d="M243.7,864.2c-1.7-.2-3.6-.2-5.8,0-2.2.2-4.6.6-7.2,1.1-2.6.5-5.2,1.2-8,2.1-3,1-5.8,2-8.2,3.1-2.4,1.1-4.5,2.2-6.1,3.3-1.6,1.1-2.8,2.2-3.4,3.2-.7,1-.7,1.9-.2,2.6.6.8,1.6,1.3,3.2,1.6,1.6.3,3.5.4,5.8.3-1.7,0-3.2-.2-4.4-.5-1.2-.3-2-.8-2.4-1.4-.5-.8-.4-1.6.2-2.6.7-1,1.8-2.1,3.4-3.2,1.7-1.1,3.7-2.2,6.1-3.3,2.4-1.1,5.2-2.1,8.2-3.1,2.4-.7,4.7-1.3,6.9-1.8,2.2-.5,4.4-.9,6.4-1.1,2-.3,3.8-.4,5.5-.4M200,876.9c1.1-1.3,2.7-2.7,4.7-4.1,2.1-1.4,4.6-2.8,7.5-4.2,2.9-1.4,6.2-2.8,9.8-4,3.2-1.1,6.3-2,9.3-2.8,3-.8,5.9-1.4,8.6-1.8,2.7-.4,5.2-.6,7.4-.6,2.2,0,4.1.1,5.6.5,1.5.4,2.6.9,3.3,1.7.8,1,.8,2.2,0,3.5-.8,1.3-2.1,2.8-4.2,4.4,1.4-1.2,2.3-2.4,2.8-3.5.4-1.1.4-2-.3-2.8-.6-.8-1.7-1.3-3.2-1.7-1.5-.4-3.4-.5-5.6-.5-2.2,0-4.7.3-7.4.7-2.7.4-5.6,1-8.6,1.8-3,.8-6.1,1.7-9.3,2.8-3.1,1.1-5.9,2.2-8.5,3.4-2.6,1.2-4.9,2.4-6.9,3.6-2,1.2-3.7,2.4-5,3.6"/></g><g><path class="cls-2" d="M343.6,860.9c-1.6.1-3.3.4-5,.7l1.2,2.3c1.9-.1,3.7-.1,5.1,0-1.5,0-3.1,0-5,.3l12.6,23.3-16.5-5.8,26.2,14.4-18.6-35.1M320.6,886.3l14.3-21.3c-2.4.5-4.9,1.1-7.5,1.9l-17.9,30.2,29.9-21.3-18.8,10.5M337,861.9c-2.5.5-5.1,1.1-7.7,1.8l-1.3,2.3c2.6-.7,5.1-1.2,7.4-1.6l1.7-2.5M342.9,859.5l-5.3-9.9-7.4,12.5c2.2-.6,4.4-1.1,6.6-1.6,2.1-.4,4.2-.8,6.1-1M342.5,876.5l-4-2.5-4.8,2.3,4.5-8.7,4.3,8.9"/><path class="cls-2" d="M346.5,864.2c-1.7-.2-3.6-.2-5.8,0-2.2.2-4.6.6-7.2,1.1-2.6.5-5.2,1.2-8,2.1-3,1-5.8,2-8.2,3.1-2.4,1.1-4.5,2.2-6.1,3.3-1.6,1.1-2.8,2.2-3.4,3.2-.7,1-.7,1.9-.2,2.6.6.8,1.6,1.3,3.2,1.6,1.6.3,3.5.4,5.8.3-1.7,0-3.2-.2-4.4-.5-1.2-.3-2-.8-2.4-1.4-.5-.8-.4-1.6.2-2.6.7-1,1.8-2.1,3.4-3.2,1.7-1.1,3.7-2.2,6.1-3.3,2.4-1.1,5.2-2.1,8.2-3.1,2.4-.7,4.7-1.3,6.9-1.8,2.2-.5,4.4-.9,6.4-1.1,2-.3,3.8-.4,5.5-.4M302.8,876.9c1.1-1.3,2.7-2.7,4.7-4.1,2.1-1.4,4.6-2.8,7.5-4.2,2.9-1.4,6.2-2.8,9.8-4,3.2-1.1,6.3-2,9.3-2.8,3-.8,5.9-1.4,8.6-1.8,2.7-.4,5.2-.6,7.4-.6,2.2,0,4.1.1,5.6.5,1.5.4,2.6.9,3.3,1.7.8,1,.8,2.2,0,3.5-.8,1.3-2.1,2.8-4.2,4.4,1.4-1.2,2.3-2.4,2.8-3.5.4-1.1.4-2-.3-2.8-.6-.8-1.7-1.3-3.2-1.7-1.5-.4-3.4-.5-5.6-.5-2.2,0-4.7.3-7.4.7-2.7.4-5.6,1-8.6,1.8-3,.8-6.1,1.7-9.3,2.8-3.1,1.1-5.9,2.2-8.5,3.4-2.6,1.2-4.9,2.4-6.9,3.6-2,1.2-3.7,2.4-5,3.6"/></g><g><path class="cls-2" d="M446.4,860.9c-1.6.1-3.3.4-5,.7l1.2,2.3c1.9-.1,3.7-.1,5.1,0-1.5,0-3.1,0-5,.3l12.6,23.3-16.5-5.8,26.2,14.4-18.6-35.1M423.4,886.3l14.3-21.3c-2.4.5-4.9,1.1-7.5,1.9l-17.9,30.2,29.9-21.3-18.8,10.5M439.7,861.9c-2.5.5-5.1,1.1-7.7,1.8l-1.3,2.3c2.6-.7,5.1-1.2,7.4-1.6l1.7-2.5M445.6,859.5l-5.3-9.9-7.4,12.5c2.2-.6,4.4-1.1,6.6-1.6,2.1-.4,4.2-.8,6.1-1M445.3,876.5l-4-2.5-4.8,2.3,4.5-8.7,4.3,8.9"/><path class="cls-2" d="M449.3,864.2c-1.7-.2-3.6-.2-5.8,0-2.2.2-4.6.6-7.2,1.1-2.6.5-5.2,1.2-8,2.1-3,1-5.8,2-8.2,3.1-2.4,1.1-4.5,2.2-6.1,3.3-1.6,1.1-2.8,2.2-3.4,3.2-.7,1-.7,1.9-.2,2.6.6.8,1.6,1.3,3.2,1.6,1.6.3,3.5.4,5.8.3-1.7,0-3.2-.2-4.4-.5-1.2-.3-2-.8-2.4-1.4-.5-.8-.4-1.6.2-2.6.7-1,1.8-2.1,3.4-3.2,1.7-1.1,3.7-2.2,6.1-3.3,2.4-1.1,5.2-2.1,8.2-3.1,2.4-.7,4.7-1.3,6.9-1.8,2.2-.5,4.4-.9,6.4-1.1,2-.3,3.8-.4,5.5-.4M405.5,876.9c1.1-1.3,2.7-2.7,4.7-4.1,2.1-1.4,4.6-2.8,7.5-4.2,2.9-1.4,6.2-2.8,9.8-4,3.2-1.1,6.3-2,9.3-2.8,3-.8,5.9-1.4,8.6-1.8,2.7-.4,5.2-.6,7.4-.6,2.2,0,4.1.1,5.6.5,1.5.4,2.6.9,3.3,1.7.8,1,.8,2.2,0,3.5-.8,1.3-2.1,2.8-4.2,4.4,1.4-1.2,2.3-2.4,2.8-3.5.4-1.1.4-2-.3-2.8-.6-.8-1.7-1.3-3.2-1.7-1.5-.4-3.4-.5-5.6-.5-2.2,0-4.7.3-7.4.7-2.7.4-5.6,1-8.6,1.8-3,.8-6.1,1.7-9.3,2.8-3.1,1.1-5.9,2.2-8.5,3.4-2.6,1.2-4.9,2.4-6.9,3.6-2,1.2-3.7,2.4-5,3.6"/></g><g><path class="cls-2" d="M549.2,860.9c-1.6.1-3.3.4-5,.7l1.2,2.3c1.9-.1,3.7-.1,5.1,0-1.5,0-3.1,0-5,.3l12.6,23.3-16.5-5.8,26.2,14.4-18.6-35.1M526.1,886.3l14.3-21.3c-2.4.5-4.9,1.1-7.5,1.9l-17.9,30.2,29.9-21.3-18.8,10.5M542.5,861.9c-2.5.5-5.1,1.1-7.7,1.8l-1.3,2.3c2.6-.7,5.1-1.2,7.4-1.6l1.7-2.5M548.4,859.5l-5.3-9.9-7.4,12.5c2.2-.6,4.4-1.1,6.6-1.6,2.1-.4,4.2-.8,6.1-1M548.1,876.5l-4-2.5-4.8,2.3,4.5-8.7,4.3,8.9"/><path class="cls-2" d="M552,864.2c-1.7-.2-3.6-.2-5.8,0-2.2.2-4.6.6-7.2,1.1-2.6.5-5.2,1.2-8,2.1-3,1-5.8,2-8.2,3.1-2.4,1.1-4.5,2.2-6.1,3.3-1.6,1.1-2.8,2.2-3.4,3.2-.7,1-.7,1.9-.2,2.6.6.8,1.6,1.3,3.2,1.6,1.6.3,3.5.4,5.8.3-1.7,0-3.2-.2-4.4-.5-1.2-.3-2-.8-2.4-1.4-.5-.8-.4-1.6.2-2.6.7-1,1.8-2.1,3.4-3.2,1.7-1.1,3.7-2.2,6.1-3.3,2.4-1.1,5.2-2.1,8.2-3.1,2.4-.7,4.7-1.3,6.9-1.8,2.2-.5,4.4-.9,6.4-1.1,2-.3,3.8-.4,5.5-.4M508.3,876.9c1.1-1.3,2.7-2.7,4.7-4.1,2.1-1.4,4.6-2.8,7.5-4.2,2.9-1.4,6.2-2.8,9.8-4,3.2-1.1,6.3-2,9.3-2.8,3-.8,5.9-1.4,8.6-1.8,2.7-.4,5.2-.6,7.4-.6,2.2,0,4.1.1,5.6.5,1.5.4,2.6.9,3.3,1.7.8,1,.8,2.2,0,3.5-.8,1.3-2.1,2.8-4.2,4.4,1.4-1.2,2.3-2.4,2.8-3.5.4-1.1.4-2-.3-2.8-.6-.8-1.7-1.3-3.2-1.7-1.5-.4-3.4-.5-5.6-.5-2.2,0-4.7.3-7.4.7-2.7.4-5.6,1-8.6,1.8-3,.8-6.1,1.7-9.3,2.8-3.1,1.1-5.9,2.2-8.5,3.4-2.6,1.2-4.9,2.4-6.9,3.6-2,1.2-3.7,2.4-5,3.6"/></g><g><path class="cls-2" d="M651.9,860.9c-1.6.1-3.3.4-5,.7l1.2,2.3c1.9-.1,3.7-.1,5.1,0-1.5,0-3.1,0-5,.3l12.6,23.3-16.5-5.8,26.2,14.4-18.6-35.1M628.9,886.3l14.3-21.3c-2.4.5-4.9,1.1-7.5,1.9l-17.9,30.2,29.9-21.3-18.8,10.5M645.3,861.9c-2.5.5-5.1,1.1-7.7,1.8l-1.3,2.3c2.6-.7,5.1-1.2,7.4-1.6l1.7-2.5M651.2,859.5l-5.3-9.9-7.4,12.5c2.2-.6,4.4-1.1,6.6-1.6,2.1-.4,4.2-.8,6.1-1M650.8,876.5l-4-2.5-4.8,2.3,4.5-8.7,4.3,8.9"/><path class="cls-2" d="M654.8,864.2c-1.7-.2-3.6-.2-5.8,0-2.2.2-4.6.6-7.2,1.1-2.6.5-5.2,1.2-8,2.1-3,1-5.8,2-8.2,3.1-2.4,1.1-4.5,2.2-6.1,3.3-1.6,1.1-2.8,2.2-3.4,3.2-.7,1-.7,1.9-.2,2.6.6.8,1.6,1.3,3.2,1.6,1.6.3,3.5.4,5.8.3-1.7,0-3.2-.2-4.4-.5-1.2-.3-2-.8-2.4-1.4-.5-.8-.4-1.6.2-2.6.7-1,1.8-2.1,3.4-3.2,1.7-1.1,3.7-2.2,6.1-3.3,2.4-1.1,5.2-2.1,8.2-3.1,2.4-.7,4.7-1.3,6.9-1.8,2.2-.5,4.4-.9,6.4-1.1,2-.3,3.8-.4,5.5-.4M611.1,876.9c1.1-1.3,2.7-2.7,4.7-4.1,2.1-1.4,4.6-2.8,7.5-4.2,2.9-1.4,6.2-2.8,9.8-4,3.2-1.1,6.3-2,9.3-2.8,3-.8,5.9-1.4,8.6-1.8,2.7-.4,5.2-.6,7.4-.6,2.2,0,4.1.1,5.6.5,1.5.4,2.6.9,3.3,1.7.8,1,.8,2.2,0,3.5-.8,1.3-2.1,2.8-4.2,4.4,1.4-1.2,2.3-2.4,2.8-3.5.4-1.1.4-2-.3-2.8-.6-.8-1.7-1.3-3.2-1.7-1.5-.4-3.4-.5-5.6-.5-2.2,0-4.7.3-7.4.7-2.7.4-5.6,1-8.6,1.8-3,.8-6.1,1.7-9.3,2.8-3.1,1.1-5.9,2.2-8.5,3.4-2.6,1.2-4.9,2.4-6.9,3.6-2,1.2-3.7,2.4-5,3.6"/></g></g></svg>