<svg id="Layer_4" data-name="Layer 4" xmlns="http://www.w3.org/2000/svg" xmlns:xlink="http://www.w3.org/1999/xlink" version="1.1" viewBox="0 0 696.8 911.8"><defs><style>.cls-1{fill:url(#New_Pattern_2)}.cls-1,.cls-2,.cls-3{stroke-width:0}.cls-2{fill:none}.cls-3{fill:#e6e7e8;fill-rule:evenodd}</style><pattern id="New_Pattern_2" data-name="New Pattern 2" x="0" y="0" width="360" height="360" patternTransform="translate(-6098.8 -15.6)" patternUnits="userSpaceOnUse" viewBox="0 0 360 360"><g><rect class="cls-2" width="360" height="360"/><g><path class="cls-3" d="M350.9,224l30.7,57.8-43.2-23.7,27.2,9.6-20.8-38.4c3-.3,5.7-.5,8.2-.5-2.4-.2-5.2-.3-8.5,0l-2-3.7c2.9-.5,5.7-.9,8.3-1.1M312.9,265.9l30.9-17.3-49.4,35.2,29.5-49.9c4.3-1.3,8.4-2.3,12.4-3.1l-23.6,35.2M339.9,225.6l-2.7,4.1c-3.9.6-7.9,1.4-12.2,2.6l2.2-3.7c4.4-1.2,8.7-2.2,12.8-2.9M349.6,221.6c-3.2.4-6.5.9-10,1.7-3.5.7-7.1,1.6-10.8,2.6l12.2-20.6,8.7,16.4M349.1,249.7l-7.1-14.7-7.4,14.3,7.9-3.8,6.7,4.2"/><path class="cls-3" d="M355.6,229.3c-2.7,0-5.8.2-9.1.6-3.3.4-6.8,1-10.5,1.8-3.7.8-7.5,1.8-11.4,3-5,1.6-9.5,3.3-13.5,5.1-4,1.8-7.4,3.6-10.1,5.5-2.7,1.8-4.6,3.6-5.7,5.2-1.1,1.6-1.2,3.1-.4,4.3.7,1,2,1.7,4,2.3,1.9.5,4.3.8,7.2.8-3.8.2-7,0-9.6-.5-2.6-.5-4.3-1.4-5.2-2.7-.9-1.2-.8-2.7.3-4.4,1.1-1.6,3-3.4,5.7-5.2,2.7-1.9,6.1-3.7,10.1-5.5,4-1.8,8.5-3.5,13.5-5.1,4.5-1.4,8.9-2.5,13.2-3.4,4.3-.9,8.2-1.5,11.9-1.8,3.7-.3,6.9-.3,9.6,0M283.4,250.4c2.2-1.9,4.9-3.9,8.2-5.9,3.3-2,7.1-4,11.4-6,4.3-2,9-3.9,14.1-5.7,5.2-1.8,10.3-3.4,15.3-4.6,5-1.3,9.8-2.2,14.2-2.9,4.5-.7,8.5-1,12.2-1.1,3.6,0,6.7.2,9.2.8,2.5.6,4.3,1.5,5.3,2.8,1,1.3,1.2,2.8.5,4.6-.7,1.8-2.3,3.7-4.5,5.7,3.4-2.6,5.7-5,6.9-7.2,1.2-2.2,1.2-4.2,0-5.8-1.1-1.3-2.9-2.2-5.4-2.8-2.5-.6-5.6-.9-9.3-.9-3.7,0-7.8.4-12.3,1-4.5.7-9.2,1.6-14.2,2.9-5,1.3-10.1,2.8-15.4,4.6-5.9,2.1-11.3,4.3-16.1,6.6-4.8,2.3-9,4.6-12.4,7-3.4,2.4-6,4.6-7.8,6.8"/><path class="cls-3" d="M369.1,316l-30.7-57.8,43.2,23.7-27.2-9.6,20.8,38.4c-3,.3-5.7.5-8.2.5,2.4.2,5.2.3,8.5,0l2,3.7c-2.9.5-5.7.9-8.3,1.1M407.1,274.1l-30.9,17.3,49.4-35.2-29.5,49.9c-4.3,1.3-8.4,2.3-12.4,3.1l23.6-35.2M380.1,314.4l2.7-4.1c3.9-.6,7.9-1.4,12.2-2.6l-2.2,3.7c-4.4,1.2-8.7,2.2-12.8,2.9M370.4,318.4c3.2-.4,6.5-.9,10-1.7,3.5-.7,7.1-1.6,10.8-2.6l-12.2,20.6-8.7-16.4M370.9,290.3l7.1,14.7,7.4-14.3-7.9,3.8-6.7-4.2"/><path class="cls-3" d="M364.4,310.7c2.7,0,5.8-.2,9.1-.6,3.3-.4,6.8-1,10.5-1.8,3.7-.8,7.5-1.8,11.4-3,5-1.6,9.5-3.3,13.5-5.1,4-1.8,7.4-3.6,10.1-5.5,2.7-1.8,4.6-3.6,5.7-5.2,1.1-1.6,1.2-3.1.4-4.3-.7-1-2-1.7-4-2.3-1.9-.5-4.3-.8-7.2-.8,3.8-.2,7,0,9.6.5,2.6.5,4.3,1.4,5.2,2.7.9,1.2.8,2.7-.3,4.4-1.1,1.6-3,3.4-5.7,5.2-2.7,1.9-6.1,3.7-10.1,5.5-4,1.8-8.5,3.5-13.5,5.1-4.5,1.4-8.9,2.5-13.2,3.4-4.3.9-8.2,1.5-11.9,1.8-3.7.3-6.9.3-9.6,0M436.6,289.6c-2.2,1.9-4.9,3.9-8.2,5.9-3.3,2-7.1,4-11.4,6-4.3,2-9,3.9-14.1,5.7-5.2,1.8-10.3,3.4-15.3,4.6-5,1.3-9.8,2.2-14.2,2.9-4.5.7-8.5,1-12.2,1.1-3.6,0-6.7-.2-9.2-.8-2.5-.6-4.3-1.5-5.3-2.8-1-1.3-1.2-2.8-.5-4.6.7-1.8,2.3-3.7,4.5-5.7-3.4,2.6-5.7,5-6.9,7.2-1.2,2.2-1.2,4.2,0,5.8,1.1,1.3,2.9,2.2,5.4,2.8,2.5.6,5.6.9,9.3.9,3.7,0,7.8-.4,12.3-1,4.5-.7,9.2-1.6,14.2-2.9,5-1.3,10.1-2.8,15.4-4.6,5.9-2.1,11.3-4.3,16.1-6.6,4.8-2.3,9-4.6,12.4-7,3.4-2.4,6-4.6,7.8-6.8"/></g><g><path class="cls-3" d="M170.9,314l30.7,57.8-43.2-23.7,27.2,9.6-20.8-38.4c3-.3,5.7-.5,8.2-.5-2.4-.2-5.2-.3-8.5,0l-2-3.7c2.9-.5,5.7-.9,8.3-1.1M132.9,355.9l30.9-17.3-49.4,35.2,29.5-49.9c4.3-1.3,8.4-2.3,12.4-3.1l-23.6,35.2M159.9,315.6l-2.7,4.1c-3.9.6-7.9,1.4-12.2,2.6l2.2-3.7c4.4-1.2,8.7-2.2,12.8-2.9M169.6,311.6c-3.2.4-6.5.9-10,1.7-3.5.7-7.1,1.6-10.8,2.6l12.2-20.6,8.7,16.4M169.1,339.7l-7.1-14.7-7.4,14.3,7.9-3.8,6.7,4.2"/><path class="cls-3" d="M175.6,319.3c-2.7,0-5.8.2-9.1.6-3.3.4-6.8,1-10.5,1.8-3.7.8-7.5,1.8-11.4,3-5,1.6-9.5,3.3-13.5,5.1-4,1.8-7.4,3.6-10.1,5.5-2.7,1.8-4.6,3.6-5.7,5.2-1.1,1.6-1.2,3.1-.4,4.3.7,1,2,1.7,4,2.3,1.9.5,4.3.8,7.2.8-3.8.2-7,0-9.6-.5-2.6-.5-4.3-1.4-5.2-2.7-.9-1.2-.8-2.7.3-4.4,1.1-1.6,3-3.4,5.7-5.2,2.7-1.9,6.1-3.7,10.1-5.5,4-1.8,8.5-3.5,13.5-5.1,4.5-1.4,8.9-2.5,13.2-3.4,4.3-.9,8.2-1.5,11.9-1.8,3.7-.3,6.9-.3,9.6,0M103.4,340.4c2.2-1.9,4.9-3.9,8.2-5.9,3.3-2,7.1-4,11.4-6,4.3-2,9-3.9,14.1-5.7,5.2-1.8,10.3-3.4,15.3-4.6,5-1.3,9.8-2.2,14.2-2.9,4.5-.7,8.5-1,12.2-1.1,3.6,0,6.7.2,9.2.8,2.5.6,4.3,1.5,5.3,2.8,1,1.3,1.2,2.8.5,4.6-.7,1.8-2.3,3.7-4.5,5.7,3.4-2.6,5.7-5,6.9-7.2,1.2-2.2,1.2-4.2,0-5.8-1.1-1.3-2.9-2.2-5.4-2.8-2.5-.6-5.6-.9-9.3-.9-3.7,0-7.8.4-12.3,1-4.5.7-9.2,1.6-14.2,2.9-5,1.3-10.1,2.8-15.4,4.6-5.9,2.1-11.3,4.3-16.1,6.6-4.8,2.3-9,4.6-12.4,7-3.4,2.4-6,4.6-7.8,6.8"/><path class="cls-3" d="M189.1,406l-30.7-57.8,43.2,23.7-27.2-9.6,20.8,38.4c-3,.3-5.7.5-8.2.5,2.4.2,5.2.3,8.5,0l2,3.7c-2.9.5-5.7.9-8.3,1.1M227.1,364.1l-30.9,17.3,49.4-35.2-29.5,49.9c-4.3,1.3-8.4,2.3-12.4,3.1l23.6-35.2M200.1,404.4l2.7-4.1c3.9-.6,7.9-1.4,12.2-2.6l-2.2,3.7c-4.4,1.2-8.7,2.2-12.8,2.9M190.4,408.4c3.2-.4,6.5-.9,10-1.7,3.5-.7,7.1-1.6,10.8-2.6l-12.2,20.6-8.7-16.4M190.9,380.3l7.1,14.7,7.4-14.3-7.9,3.8-6.7-4.2"/></g><g><path class="cls-3" d="M-9.1,224l30.7,57.8-43.2-23.7,27.2,9.6-20.8-38.4c3-.3,5.7-.5,8.2-.5-2.4-.2-5.2-.3-8.5,0l-2-3.7c2.9-.5,5.7-.9,8.3-1.1M-47.1,265.9l30.9-17.3-49.4,35.2,29.5-49.9c4.3-1.3,8.4-2.3,12.4-3.1l-23.6,35.2M-20.1,225.6l-2.7,4.1c-3.9.6-7.9,1.4-12.2,2.6l2.2-3.7c4.4-1.2,8.7-2.2,12.8-2.9M-10.4,221.6c-3.2.4-6.5.9-10,1.7-3.5.7-7.1,1.6-10.8,2.6l12.2-20.6,8.7,16.4M-10.9,249.7l-7.1-14.7-7.4,14.3,7.9-3.8,6.7,4.2"/><path class="cls-3" d="M-4.4,229.3c-2.7,0-5.8.2-9.1.6-3.3.4-6.8,1-10.5,1.8-3.7.8-7.5,1.8-11.4,3-5,1.6-9.5,3.3-13.5,5.1-4,1.8-7.4,3.6-10.1,5.5-2.7,1.8-4.6,3.6-5.7,5.2-1.1,1.6-1.2,3.1-.4,4.3.7,1,2,1.7,4,2.3,1.9.5,4.3.8,7.2.8-3.8.2-7,0-9.6-.5-2.6-.5-4.3-1.4-5.2-2.7-.9-1.2-.8-2.7.3-4.4,1.1-1.6,3-3.4,5.7-5.2,2.7-1.9,6.1-3.7,10.1-5.5,4-1.8,8.5-3.5,13.5-5.1,4.5-1.4,8.9-2.5,13.2-3.4,4.3-.9,8.2-1.5,11.9-1.8,3.7-.3,6.9-.3,9.6,0M-76.6,250.4c2.2-1.9,4.9-3.9,8.2-5.9,3.3-2,7.1-4,11.4-6,4.3-2,9-3.9,14.1-5.7,5.2-1.8,10.3-3.4,15.3-4.6,5-1.3,9.8-2.2,14.2-2.9,4.5-.7,8.5-1,12.2-1.1,3.6,0,6.7.2,9.2.8,2.5.6,4.3,1.5,5.3,2.8,1,1.3,1.2,2.8.5,4.6-.7,1.8-2.3,3.7-4.5,5.7,3.4-2.6,5.7-5,6.9-7.2,1.2-2.2,1.2-4.2,0-5.8-1.1-1.3-2.9-2.2-5.4-2.8-2.5-.6-5.6-.9-9.3-.9-3.7,0-7.8.4-12.3,1-4.5.7-9.2,1.6-14.2,2.9-5,1.3-10.1,2.8-15.4,4.6-5.9,2.1-11.3,4.3-16.1,6.6-4.8,2.3-9,4.6-12.4,7-3.4,2.4-6,4.6-7.8,6.8"/><path class="cls-3" d="M9.1,316l-30.7-57.8,43.2,23.7-27.2-9.6,20.8,38.4c-3,.3-5.7.5-8.2.5,2.4.2,5.2.3,8.5,0l2,3.7c-2.9.5-5.7.9-8.3,1.1M47.1,274.1l-30.9,17.3,49.4-35.2-29.5,49.9c-4.3,1.3-8.4,2.3-12.4,3.1l23.6-35.2M20.1,314.4l2.7-4.1c3.9-.6,7.9-1.4,12.2-2.6l-2.2,3.7c-4.4,1.2-8.7,2.2-12.8,2.9M10.4,318.4c3.2-.4,6.5-.9,10-1.7,3.5-.7,7.1-1.6,10.8-2.6l-12.2,20.6-8.7-16.4M10.9,290.3l7.1,14.7,7.4-14.3-7.9,3.8-6.7-4.2"/><path class="cls-3" d="M4.4,310.7c2.7,0,5.8-.2,9.1-.6,3.3-.4,6.8-1,10.5-1.8,3.7-.8,7.5-1.8,11.4-3,5-1.6,9.5-3.3,13.5-5.1,4-1.8,7.4-3.6,10.1-5.5,2.7-1.8,4.6-3.6,5.7-5.2,1.1-1.6,1.2-3.1.4-4.3-.7-1-2-1.7-4-2.3-1.9-.5-4.3-.8-7.2-.8,3.8-.2,7,0,9.6.5,2.6.5,4.3,1.4,5.2,2.7.9,1.2.8,2.7-.3,4.4-1.1,1.6-3,3.4-5.7,5.2-2.7,1.9-6.1,3.7-10.1,5.5-4,1.8-8.5,3.5-13.5,5.1-4.5,1.4-8.9,2.5-13.2,3.4-4.3.9-8.2,1.5-11.9,1.8-3.7.3-6.9.3-9.6,0M76.6,289.6c-2.2,1.9-4.9,3.9-8.2,5.9-3.3,2-7.1,4-11.4,6-4.3,2-9,3.9-14.1,5.7-5.2,1.8-10.3,3.4-15.3,4.6-5,1.3-9.8,2.2-14.2,2.9-4.5.7-8.5,1-12.2,1.1-3.6,0-6.7-.2-9.2-.8-2.5-.6-4.3-1.5-5.3-2.8-1-1.3-1.2-2.8-.5-4.6.7-1.8,2.3-3.7,4.5-5.7-3.4,2.6-5.7,5-6.9,7.2-1.2,2.2-1.2,4.2,0,5.8,1.1,1.3,2.9,2.2,5.4,2.8,2.5.6,5.6.9,9.3.9,3.7,0,7.8-.4,12.3-1,4.5-.7,9.2-1.6,14.2-2.9,5-1.3,10.1-2.8,15.4-4.6,5.9-2.1,11.3-4.3,16.1-6.6,4.8-2.3,9-4.6,12.4-7,3.4-2.4,6-4.6,7.8-6.8"/></g><g><path class="cls-3" d="M350.9,44l30.7,57.8-43.2-23.7,27.2,9.6-20.8-38.4c3-.3,5.7-.5,8.2-.5-2.4-.2-5.2-.3-8.5,0l-2-3.7c2.9-.5,5.7-.9,8.3-1.1M312.9,85.9l30.9-17.3-49.4,35.2,29.5-49.9c4.3-1.3,8.4-2.3,12.4-3.1l-23.6,35.2M339.9,45.6l-2.7,4.1c-3.9.6-7.9,1.4-12.2,2.6l2.2-3.7c4.4-1.2,8.7-2.2,12.8-2.9M349.6,41.6c-3.2.4-6.5.9-10,1.7-3.5.7-7.1,1.6-10.8,2.6l12.2-20.6,8.7,16.4M349.1,69.7l-7.1-14.7-7.4,14.3,7.9-3.8,6.7,4.2"/><path class="cls-3" d="M355.6,49.3c-2.7,0-5.8.2-9.1.6-3.3.4-6.8,1-10.5,1.8-3.7.8-7.5,1.8-11.4,3-5,1.6-9.5,3.3-13.5,5.1-4,1.8-7.4,3.6-10.1,5.5-2.7,1.8-4.6,3.6-5.7,5.2-1.1,1.6-1.2,3.1-.4,4.3.7,1,2,1.7,4,2.3,1.9.5,4.3.8,7.2.8-3.8.2-7,0-9.6-.5-2.6-.5-4.3-1.4-5.2-2.7-.9-1.2-.8-2.7.3-4.4,1.1-1.6,3-3.4,5.7-5.2,2.7-1.9,6.1-3.7,10.1-5.5,4-1.8,8.5-3.5,13.5-5.1,4.5-1.4,8.9-2.5,13.2-3.4,4.3-.9,8.2-1.5,11.9-1.8,3.7-.3,6.9-.3,9.6,0M283.4,70.4c2.2-1.9,4.9-3.9,8.2-5.9,3.3-2,7.1-4,11.4-6,4.3-2,9-3.9,14.1-5.7,5.2-1.8,10.3-3.4,15.3-4.6,5-1.3,9.8-2.2,14.2-2.9,4.5-.7,8.5-1,12.2-1.1,3.6,0,6.7.2,9.2.8,2.5.6,4.3,1.5,5.3,2.8,1,1.3,1.2,2.8.5,4.6-.7,1.8-2.3,3.7-4.5,5.7,3.4-2.6,5.7-5,6.9-7.2,1.2-2.2,1.2-4.2,0-5.8-1.1-1.3-2.9-2.2-5.4-2.8-2.5-.6-5.6-.9-9.3-.9-3.7,0-7.8.4-12.3,1-4.5.7-9.2,1.6-14.2,2.9-5,1.3-10.1,2.8-15.4,4.6-5.9,2.1-11.3,4.3-16.1,6.6-4.8,2.3-9,4.6-12.4,7-3.4,2.4-6,4.6-7.8,6.8"/><path class="cls-3" d="M369.1,136l-30.7-57.8,43.2,23.7-27.2-9.6,20.8,38.4c-3,.3-5.7.5-8.2.5,2.4.2,5.2.3,8.5,0l2,3.7c-2.9.5-5.7.9-8.3,1.1M407.1,94.1l-30.9,17.3,49.4-35.2-29.5,49.9c-4.3,1.3-8.4,2.3-12.4,3.1l23.6-35.2M380.1,134.4l2.7-4.1c3.9-.6,7.9-1.4,12.2-2.6l-2.2,3.7c-4.4,1.2-8.7,2.2-12.8,2.9M370.4,138.4c3.2-.4,6.5-.9,10-1.7,3.5-.7,7.1-1.6,10.8-2.6l-12.2,20.6-8.7-16.4M370.9,110.3l7.1,14.7,7.4-14.3-7.9,3.8-6.7-4.2"/><path class="cls-3" d="M364.4,130.7c2.7,0,5.8-.2,9.1-.6,3.3-.4,6.8-1,10.5-1.8,3.7-.8,7.5-1.8,11.4-3,5-1.6,9.5-3.3,13.5-5.1,4-1.8,7.4-3.6,10.1-5.5,2.7-1.8,4.6-3.6,5.7-5.2,1.1-1.6,1.2-3.1.4-4.3-.7-1-2-1.7-4-2.3-1.9-.5-4.3-.8-7.2-.8,3.8-.2,7,0,9.6.5,2.6.5,4.3,1.4,5.2,2.7.9,1.2.8,2.7-.3,4.4-1.1,1.6-3,3.4-5.7,5.2-2.7,1.9-6.1,3.7-10.1,5.5-4,1.8-8.5,3.5-13.5,5.1-4.5,1.4-8.9,2.5-13.2,3.4-4.3.9-8.2,1.5-11.9,1.8-3.7.3-6.9.3-9.6,0M436.6,109.6c-2.2,1.9-4.9,3.9-8.2,5.9-3.3,2-7.1,4-11.4,6-4.3,2-9,3.9-14.1,5.7-5.2,1.8-10.3,3.4-15.3,4.6-5,1.3-9.8,2.2-14.2,2.9-4.5.7-8.5,1-12.2,1.1-3.6,0-6.7-.2-9.2-.8-2.5-.6-4.3-1.5-5.3-2.8-1-1.3-1.2-2.8-.5-4.6.7-1.8,2.3-3.7,4.5-5.7-3.4,2.6-5.7,5-6.9,7.2-1.2,2.2-1.2,4.2,0,5.8,1.1,1.3,2.9,2.2,5.4,2.8,2.5.6,5.6.9,9.3.9,3.7,0,7.8-.4,12.3-1,4.5-.7,9.2-1.6,14.2-2.9,5-1.3,10.1-2.8,15.4-4.6,5.9-2.1,11.3-4.3,16.1-6.6,4.8-2.3,9-4.6,12.4-7,3.4-2.4,6-4.6,7.8-6.8"/></g><g><path class="cls-3" d="M170.9,134l30.7,57.8-43.2-23.7,27.2,9.6-20.8-38.4c3-.3,5.7-.5,8.2-.5-2.4-.2-5.2-.3-8.5,0l-2-3.7c2.9-.5,5.7-.9,8.3-1.1M132.9,175.9l30.9-17.3-49.4,35.2,29.5-49.9c4.3-1.3,8.4-2.3,12.4-3.1l-23.6,35.2M159.9,135.6l-2.7,4.1c-3.9.6-7.9,1.4-12.2,2.6l2.2-3.7c4.4-1.2,8.7-2.2,12.8-2.9M169.6,131.6c-3.2.4-6.5.9-10,1.7-3.5.7-7.1,1.6-10.8,2.6l12.2-20.6,8.7,16.4M169.1,159.7l-7.1-14.7-7.4,14.3,7.9-3.8,6.7,4.2"/><path class="cls-3" d="M175.6,139.3c-2.7,0-5.8.2-9.1.6-3.3.4-6.8,1-10.5,1.8-3.7.8-7.5,1.8-11.4,3-5,1.6-9.5,3.3-13.5,5.1-4,1.8-7.4,3.6-10.1,5.5-2.7,1.8-4.6,3.6-5.7,5.2-1.1,1.6-1.2,3.1-.4,4.3.7,1,2,1.7,4,2.3,1.9.5,4.3.8,7.2.8-3.8.2-7,0-9.6-.5-2.6-.5-4.3-1.4-5.2-2.7-.9-1.2-.8-2.7.3-4.4,1.1-1.6,3-3.4,5.7-5.2,2.7-1.9,6.1-3.7,10.1-5.5,4-1.8,8.5-3.5,13.5-5.1,4.5-1.4,8.9-2.5,13.2-3.4,4.3-.9,8.2-1.5,11.9-1.8,3.7-.3,6.9-.3,9.6,0M103.4,160.4c2.2-1.9,4.9-3.9,8.2-5.9,3.3-2,7.1-4,11.4-6,4.3-2,9-3.9,14.1-5.7,5.2-1.8,10.3-3.4,15.3-4.6,5-1.3,9.8-2.2,14.2-2.9,4.5-.7,8.5-1,12.2-1.1,3.6,0,6.7.2,9.2.8,2.5.6,4.3,1.5,5.3,2.8,1,1.3,1.2,2.8.5,4.6-.7,1.8-2.3,3.7-4.5,5.7,3.4-2.6,5.7-5,6.9-7.2,1.2-2.2,1.2-4.2,0-5.8-1.1-1.3-2.9-2.2-5.4-2.8-2.5-.6-5.6-.9-9.3-.9-3.7,0-7.8.4-12.3,1-4.5.7-9.2,1.6-14.2,2.9-5,1.3-10.1,2.8-15.4,4.6-5.9,2.1-11.3,4.3-16.1,6.6-4.8,2.3-9,4.6-12.4,7-3.4,2.4-6,4.6-7.8,6.8"/><path class="cls-3" d="M189.1,226l-30.7-57.8,43.2,23.7-27.2-9.6,20.8,38.4c-3,.3-5.7.5-8.2.5,2.4.2,5.2.3,8.5,0l2,3.7c-2.9.5-5.7.9-8.3,1.1M227.1,184.1l-30.9,17.3,49.4-35.2-29.5,49.9c-4.3,1.3-8.4,2.3-12.4,3.1l23.6-35.2M200.1,224.4l2.7-4.1c3.9-.6,7.9-1.4,12.2-2.6l-2.2,3.7c-4.4,1.2-8.7,2.2-12.8,2.9M190.4,228.4c3.2-.4,6.5-.9,10-1.7,3.5-.7,7.1-1.6,10.8-2.6l-12.2,20.6-8.7-16.4M190.9,200.3l7.1,14.7,7.4-14.3-7.9,3.8-6.7-4.2"/><path class="cls-3" d="M184.4,220.7c2.7,0,5.8-.2,9.1-.6,3.3-.4,6.8-1,10.5-1.8,3.7-.8,7.5-1.8,11.4-3,5-1.6,9.5-3.3,13.5-5.1,4-1.8,7.4-3.6,10.1-5.5,2.7-1.8,4.6-3.6,5.7-5.2,1.1-1.6,1.2-3.1.4-4.3-.7-1-2-1.7-4-2.3-1.9-.5-4.3-.8-7.2-.8,3.8-.2,7,0,9.6.5,2.6.5,4.3,1.4,5.2,2.7.9,1.2.8,2.7-.3,4.4-1.1,1.6-3,3.4-5.7,5.2-2.7,1.9-6.1,3.7-10.1,5.5-4,1.8-8.5,3.5-13.5,5.1-4.5,1.4-8.9,2.5-13.2,3.4-4.3.9-8.2,1.5-11.9,1.8-3.7.3-6.9.3-9.6,0M256.6,199.6c-2.2,1.9-4.9,3.9-8.2,5.9-3.3,2-7.1,4-11.4,6-4.3,2-9,3.9-14.1,5.7-5.2,1.8-10.3,3.4-15.3,4.6-5,1.3-9.8,2.2-14.2,2.9-4.5.7-8.5,1-12.2,1.1-3.6,0-6.7-.2-9.2-.8-2.5-.6-4.3-1.5-5.3-2.8-1-1.3-1.2-2.8-.5-4.6.7-1.8,2.3-3.7,4.5-5.7-3.4,2.6-5.7,5-6.9,7.2-1.2,2.2-1.2,4.2,0,5.8,1.1,1.3,2.9,2.2,5.4,2.8,2.5.6,5.6.9,9.3.9,3.7,0,7.8-.4,12.3-1,4.5-.7,9.2-1.6,14.2-2.9,5-1.3,10.1-2.8,15.4-4.6,5.9-2.1,11.3-4.3,16.1-6.6,4.8-2.3,9-4.6,12.4-7,3.4-2.4,6-4.6,7.8-6.8"/></g><g><path class="cls-3" d="M-9.1,44l30.7,57.8-43.2-23.7,27.2,9.6L-15.2,49.4c3-.3,5.7-.5,8.2-.5-2.4-.2-5.2-.3-8.5,0l-2-3.7c2.9-.5,5.7-.9,8.3-1.1M-47.1,85.9l30.9-17.3-49.4,35.2,29.5-49.9c4.3-1.3,8.4-2.3,12.4-3.1l-23.6,35.2M-20.1,45.6l-2.7,4.1c-3.9.6-7.9,1.4-12.2,2.6l2.2-3.7c4.4-1.2,8.7-2.2,12.8-2.9M-10.4,41.6c-3.2.4-6.5.9-10,1.7-3.5.7-7.1,1.6-10.8,2.6l12.2-20.6,8.7,16.4M-10.9,69.7l-7.1-14.7-7.4,14.3,7.9-3.8,6.7,4.2"/><path class="cls-3" d="M-4.4,49.3c-2.7,0-5.8.2-9.1.6-3.3.4-6.8,1-10.5,1.8-3.7.8-7.5,1.8-11.4,3-5,1.6-9.5,3.3-13.5,5.1-4,1.8-7.4,3.6-10.1,5.5-2.7,1.8-4.6,3.6-5.7,5.2-1.1,1.6-1.2,3.1-.4,4.3.7,1,2,1.7,4,2.3,1.9.5,4.3.8,7.2.8-3.8.2-7,0-9.6-.5-2.6-.5-4.3-1.4-5.2-2.7-.9-1.2-.8-2.7.3-4.4,1.1-1.6,3-3.4,5.7-5.2,2.7-1.9,6.1-3.7,10.1-5.5,4-1.8,8.5-3.5,13.5-5.1,4.5-1.4,8.9-2.5,13.2-3.4,4.3-.9,8.2-1.5,11.9-1.8,3.7-.3,6.9-.3,9.6,0M-76.6,70.4c2.2-1.9,4.9-3.9,8.2-5.9,3.3-2,7.1-4,11.4-6,4.3-2,9-3.9,14.1-5.7,5.2-1.8,10.3-3.4,15.3-4.6,5-1.3,9.8-2.2,14.2-2.9,4.5-.7,8.5-1,12.2-1.1,3.6,0,6.7.2,9.2.8,2.5.6,4.3,1.5,5.3,2.8,1,1.3,1.2,2.8.5,4.6-.7,1.8-2.3,3.7-4.5,5.7,3.4-2.6,5.7-5,6.9-7.2,1.2-2.2,1.2-4.2,0-5.8-1.1-1.3-2.9-2.2-5.4-2.8-2.5-.6-5.6-.9-9.3-.9-3.7,0-7.8.4-12.3,1-4.5.7-9.2,1.6-14.2,2.9-5,1.3-10.1,2.8-15.4,4.6-5.9,2.1-11.3,4.3-16.1,6.6-4.8,2.3-9,4.6-12.4,7-3.4,2.4-6,4.6-7.8,6.8"/><path class="cls-3" d="M9.1,136l-30.7-57.8,43.2,23.7-27.2-9.6,20.8,38.4c-3,.3-5.7.5-8.2.5,2.4.2,5.2.3,8.5,0l2,3.7c-2.9.5-5.7.9-8.3,1.1M47.1,94.1l-30.9,17.3,49.4-35.2-29.5,49.9c-4.3,1.3-8.4,2.3-12.4,3.1l23.6-35.2M20.1,134.4l2.7-4.1c3.9-.6,7.9-1.4,12.2-2.6l-2.2,3.7c-4.4,1.2-8.7,2.2-12.8,2.9M10.4,138.4c3.2-.4,6.5-.9,10-1.7,3.5-.7,7.1-1.6,10.8-2.6l-12.2,20.6-8.7-16.4M10.9,110.3l7.1,14.7,7.4-14.3-7.9,3.8-6.7-4.2"/><path class="cls-3" d="M4.4,130.7c2.7,0,5.8-.2,9.1-.6,3.3-.4,6.8-1,10.5-1.8,3.7-.8,7.5-1.8,11.4-3,5-1.6,9.5-3.3,13.5-5.1,4-1.8,7.4-3.6,10.1-5.5,2.7-1.8,4.6-3.6,5.7-5.2,1.1-1.6,1.2-3.1.4-4.3-.7-1-2-1.7-4-2.3-1.9-.5-4.3-.8-7.2-.8,3.8-.2,7,0,9.6.5,2.6.5,4.3,1.4,5.2,2.7.9,1.2.8,2.7-.3,4.4-1.1,1.6-3,3.4-5.7,5.2-2.7,1.9-6.1,3.7-10.1,5.5-4,1.8-8.5,3.5-13.5,5.1-4.5,1.4-8.9,2.5-13.2,3.4-4.3.9-8.2,1.5-11.9,1.8-3.7.3-6.9.3-9.6,0M76.6,109.6c-2.2,1.9-4.9,3.9-8.2,5.9-3.3,2-7.1,4-11.4,6-4.3,2-9,3.9-14.1,5.7-5.2,1.8-10.3,3.4-15.3,4.6-5,1.3-9.8,2.2-14.2,2.9-4.5.7-8.5,1-12.2,1.1-3.6,0-6.7-.2-9.2-.8-2.5-.6-4.3-1.5-5.3-2.8-1-1.3-1.2-2.8-.5-4.6.7-1.8,2.3-3.7,4.5-5.7-3.4,2.6-5.7,5-6.9,7.2-1.2,2.2-1.2,4.2,0,5.8,1.1,1.3,2.9,2.2,5.4,2.8,2.5.6,5.6.9,9.3.9,3.7,0,7.8-.4,12.3-1,4.5-.7,9.2-1.6,14.2-2.9,5-1.3,10.1-2.8,15.4-4.6,5.9-2.1,11.3-4.3,16.1-6.6,4.8-2.3,9-4.6,12.4-7,3.4-2.4,6-4.6,7.8-6.8"/></g><g><path class="cls-3" d="M170.9-46l30.7,57.8-43.2-23.7,27.2,9.6-20.8-38.4c3-.3,5.7-.5,8.2-.5-2.4-.2-5.2-.3-8.5,0l-2-3.7c2.9-.5,5.7-.9,8.3-1.1M132.9-4.1l30.9-17.3L114.5,13.7l29.5-49.9c4.3-1.3,8.4-2.3,12.4-3.1l-23.6,35.2M159.9-44.4l-2.7,4.1c-3.9.6-7.9,1.4-12.2,2.6l2.2-3.7c4.4-1.2,8.7-2.2,12.8-2.9M169.6-48.4c-3.2.4-6.5.9-10,1.7-3.5.7-7.1,1.6-10.8,2.6l12.2-20.6,8.7,16.4M169.1-20.3l-7.1-14.7-7.4,14.3,7.9-3.8,6.7,4.2"/><path class="cls-3" d="M189.1,46l-30.7-57.8,43.2,23.7-27.2-9.6,20.8,38.4c-3,.3-5.7.5-8.2.5,2.4.2,5.2.3,8.5,0l2,3.7c-2.9.5-5.7.9-8.3,1.1M227.1,4.1l-30.9,17.3,49.4-35.2-29.5,49.9c-4.3,1.3-8.4,2.3-12.4,3.1l23.6-35.2M200.1,44.4l2.7-4.1c3.9-.6,7.9-1.4,12.2-2.6l-2.2,3.7c-4.4,1.2-8.7,2.2-12.8,2.9M190.4,48.4c3.2-.4,6.5-.9,10-1.7,3.5-.7,7.1-1.6,10.8-2.6l-12.2,20.6-8.7-16.4M190.9,20.3l7.1,14.7,7.4-14.3-7.9,3.8-6.7-4.2"/><path class="cls-3" d="M184.4,40.7c2.7,0,5.8-.2,9.1-.6,3.3-.4,6.8-1,10.5-1.8,3.7-.8,7.5-1.8,11.4-3,5-1.6,9.5-3.3,13.5-5.1,4-1.8,7.4-3.6,10.1-5.5,2.7-1.8,4.6-3.6,5.7-5.2,1.1-1.6,1.2-3.1.4-4.3-.7-1-2-1.7-4-2.3-1.9-.5-4.3-.8-7.2-.8,3.8-.2,7,0,9.6.5,2.6.5,4.3,1.4,5.2,2.7.9,1.2.8,2.7-.3,4.4-1.1,1.6-3,3.4-5.7,5.2-2.7,1.9-6.1,3.7-10.1,5.5-4,1.8-8.5,3.5-13.5,5.1-4.5,1.4-8.9,2.5-13.2,3.4-4.3.9-8.2,1.5-11.9,1.8-3.7.3-6.9.3-9.6,0M256.6,19.6c-2.2,1.9-4.9,3.9-8.2,5.9-3.3,2-7.1,4-11.4,6-4.3,2-9,3.9-14.1,5.7-5.2,1.8-10.3,3.4-15.3,4.6-5,1.3-9.8,2.2-14.2,2.9-4.5.7-8.5,1-12.2,1.1-3.6,0-6.7-.2-9.2-.8-2.5-.6-4.3-1.5-5.3-2.8-1-1.3-1.2-2.8-.5-4.6.7-1.8,2.3-3.7,4.5-5.7-3.4,2.6-5.7,5-6.9,7.2-1.2,2.2-1.2,4.2,0,5.8,1.1,1.3,2.9,2.2,5.4,2.8,2.5.6,5.6.9,9.3.9,3.7,0,7.8-.4,12.3-1,4.5-.7,9.2-1.6,14.2-2.9,5-1.3,10.1-2.8,15.4-4.6,5.9-2.1,11.3-4.3,16.1-6.6,4.8-2.3,9-4.6,12.4-7,3.4-2.4,6-4.6,7.8-6.8"/></g></g></pattern></defs><rect class="cls-1" x="-9" y="-9" width="714.8" height="929.8"/></svg>