<?xml version="1.0" encoding="UTF-8"?>
<svg id="Layer_4" data-name="Layer 4" xmlns="http://www.w3.org/2000/svg" version="1.1" viewBox="0 0 696.8 911.8">
  <defs>
    <style>
      .cls-1 {
        fill: #ac2428;
      }

      .cls-1, .cls-2 {
        fill-rule: evenodd;
        stroke-width: 0px;
      }

      .cls-2 {
        fill: #1c1e1f;
      }
    </style>
  </defs>
  <path class="cls-2" d="M308.3,215.5c-11.5,1.1-23.7,2.7-36.6,4.8l8.8,16.4c14.1-1,26.5-.9,37.1.1-10.8,0-22.8.6-35.9,2.1l91.1,168.6-119.5-42.3,189.6,104.3-134.7-253.9M141.4,399.4l103.5-154.5c-17.5,3.5-35.7,8-54.6,13.7L60.6,477.6l216.7-154.4-135.9,76.1M260,222.4c-18,3.4-36.6,7.7-56,12.9l-9.6,16.3c18.8-4.9,36.6-8.7,53.6-11.2l12.1-18M302.6,204.9l-38.1-71.8-53.6,90.6c16.3-4.5,32.1-8.3,47.6-11.5,15.4-3.1,30.2-5.5,44.1-7.2M300.4,328.4l-29.2-18.4-34.7,16.8,32.7-62.9,31.2,64.5"/>
  <path class="cls-1" d="M329,238.9c-12.1-1.2-26.1-1.1-42.2.2-16.2,1.4-33.6,4.1-52.3,7.9-18.7,3.8-38,8.7-57.9,14.9-22,7-41.8,14.5-59.4,22.5-17.6,8-32.3,16.1-44.2,24.3-11.9,8.1-20.2,15.8-24.9,23-4.7,7.3-5.2,13.7-1.3,19.2,4,5.5,11.7,9.4,22.9,11.7,11.3,2.2,25.3,2.9,42.1,2.1-12.6,0-23.2-1.2-31.6-3.5-8.5-2.2-14.3-5.5-17.4-9.9-3.8-5.5-3.2-11.7,1.6-18.9,4.7-7.2,13-14.9,24.9-22.9,12-8.1,26.8-16.2,44.4-24.1,17.6-7.9,37.4-15.4,59.4-22.4,17.2-5.3,33.8-9.7,50-13.3,16.3-3.6,31.7-6.3,46.2-8,14.5-1.9,27.7-2.8,39.8-2.8M12.1,331.4c7.8-9.5,19.2-19.4,34.3-29.7,15.1-10.3,33.2-20.5,54.4-30.7,21.2-10.3,44.8-20,70.7-29.1,22.9-8,45.3-14.8,67.4-20.4,22-5.5,42.8-9.8,62.6-12.7,19.7-2.9,37.7-4.4,53.9-4.6,16.1-.2,29.7,1.1,40.7,3.8,11.2,2.7,19.1,6.8,23.7,12.5,5.5,7.2,5.6,15.8.1,25.6-5.4,9.7-15.5,20.3-30.3,31.6,10.1-9,16.8-17.4,20-25.2,3.2-7.8,2.5-14.5-2-20.2-4.6-5.6-12.4-9.8-23.4-12.3-11-2.6-24.5-3.8-40.5-3.6-16.1.3-33.9,1.9-53.6,4.8-19.7,3-40.5,7.2-62.6,12.7-22,5.5-44.4,12.3-67.3,20.4-22.4,7.9-43.1,16.2-61.9,24.9-18.9,8.7-35.7,17.4-50.3,26.3-14.6,8.9-26.6,17.6-36.1,26"/>
  <path class="cls-2" d="M388.5,619.3c11.5-1.1,23.7-2.7,36.6-4.8l-8.8-16.4c-14.1,1-26.5.9-37.1-.1,10.8,0,22.8-.6,35.9-2.1l-91.1-168.6,119.5,42.3-189.6-104.3,134.7,253.9M555.4,435.4l-103.5,154.5c17.5-3.5,35.7-8,54.6-13.7l129.7-219.1-216.7,154.4,135.9-76.1M436.8,612.4c18-3.4,36.6-7.7,56-12.9l9.6-16.3c-18.8,4.9-36.6,8.7-53.6,11.2l-12.1,18M394.1,629.9l38.1,71.8,53.6-90.6c-16.3,4.5-32.1,8.3-47.6,11.5-15.4,3.1-30.2,5.5-44.1,7.2M396.4,506.4l29.2,18.4,34.7-16.8-32.7,62.9-31.2-64.5"/>
  <path class="cls-1" d="M367.8,595.9c12.1,1.2,26.1,1.1,42.2-.2,16.2-1.4,33.6-4.1,52.3-7.9,18.7-3.8,38-8.7,57.9-14.9,22-7,41.8-14.5,59.4-22.5,17.6-8,32.3-16.1,44.2-24.3,11.9-8.1,20.2-15.8,24.9-23,4.7-7.3,5.2-13.7,1.3-19.2-4-5.5-11.7-9.4-22.9-11.7-11.3-2.2-25.3-2.9-42.1-2.1,12.6,0,23.2,1.2,31.6,3.5,8.5,2.2,14.3,5.5,17.4,9.9,3.8,5.5,3.2,11.7-1.6,18.9-4.7,7.2-13,14.9-24.9,22.9-12,8.1-26.8,16.2-44.4,24.1-17.6,7.9-37.4,15.4-59.4,22.4-17.2,5.3-33.8,9.7-50,13.3-16.3,3.6-31.7,6.3-46.2,8-14.5,1.9-27.7,2.8-39.8,2.8M684.7,503.4c-7.8,9.5-19.2,19.4-34.3,29.7-15.1,10.3-33.2,20.5-54.4,30.7-21.2,10.3-44.8,20-70.7,29.1-22.9,8-45.3,14.8-67.4,20.4-22,5.5-42.8,9.8-62.6,12.7-19.7,2.9-37.7,4.4-53.9,4.6-16.1.2-29.7-1.1-40.7-3.8-11.2-2.7-19.1-6.8-23.7-12.5-5.5-7.2-5.6-15.8-.1-25.6,5.4-9.7,15.5-20.3,30.3-31.6-10.1,9-16.8,17.4-20,25.2-3.2,7.8-2.5,14.5,2,20.2,4.6,5.6,12.4,9.8,23.4,12.3,11,2.6,24.5,3.8,40.5,3.6,16.1-.3,33.9-1.9,53.6-4.8,19.7-3,40.5-7.2,62.6-12.7,22-5.5,44.4-12.3,67.3-20.4,22.4-7.9,43.1-16.2,61.9-24.9,18.9-8.7,35.7-17.4,50.3-26.3,14.6-8.9,26.6-17.6,36.1-26"/>
</svg>