<?xml version="1.0" encoding="UTF-8"?>
<svg id="Layer_4" data-name="Layer 4" xmlns="http://www.w3.org/2000/svg" version="1.1" viewBox="0 0 696.8 911.8">
  <defs>
    <style>
      .cls-1 {
        fill: #ac2428;
      }

      .cls-1, .cls-2 {
        fill-rule: evenodd;
        stroke-width: 0px;
      }

      .cls-2 {
        fill: #fff;
      }
    </style>
  </defs>
  <path class="cls-2" d="M309.6,213.5c-11.6,1.1-23.9,2.7-36.9,4.9l8.9,16.5c14.3-1,26.7-1,37.5.1-10.9,0-23,.6-36.3,2.2l92,170.2-120.7-42.8,191.5,105.3-136-256.4M141.2,399.1l104.5-156c-17.7,3.5-36,8.1-55.1,13.8L59.6,478.1l218.8-155.9-137.2,76.8M260.9,220.3c-18.1,3.4-37,7.8-56.6,13l-9.7,16.5c18.9-5,37-8.8,54.1-11.4l12.2-18.1M304,202.8l-38.4-72.5-54.1,91.5c16.4-4.5,32.4-8.4,48-11.6,15.6-3.2,30.4-5.6,44.5-7.3M301.7,327.4l-29.5-18.5-35,16.9,33-63.5,31.5,65.1"/>
  <path class="cls-1" d="M330.6,237c-12.2-1.2-26.4-1.1-42.6.3-16.3,1.4-33.9,4.1-52.8,8-18.8,3.8-38.3,8.8-58.4,15-22.2,7-42.2,14.6-59.9,22.7-17.8,8.1-32.6,16.3-44.6,24.5-12,8.2-20.4,16-25.2,23.3-4.8,7.4-5.2,13.8-1.4,19.4,4.1,5.6,11.8,9.5,23.1,11.8,11.4,2.3,25.5,3,42.5,2.2-12.7,0-23.4-1.2-31.9-3.5-8.6-2.3-14.4-5.6-17.6-10-3.8-5.5-3.2-11.9,1.6-19.1,4.8-7.3,13.2-15,25.2-23.1,12.1-8.2,27-16.3,44.8-24.4,17.8-8,37.7-15.5,59.9-22.6,17.3-5.3,34.1-9.8,50.5-13.4,16.4-3.6,32-6.3,46.7-8.1,14.6-1.9,28-2.8,40.2-2.8M10.6,330.5c7.9-9.6,19.4-19.6,34.6-30,15.3-10.4,33.6-20.7,54.9-31,21.4-10.4,45.2-20.2,71.4-29.4,23.1-8.1,45.8-15,68.1-20.6,22.2-5.6,43.2-9.9,63.2-12.9,19.9-2.9,38.1-4.4,54.4-4.6,16.2-.2,29.9,1.1,41.1,3.8,11.3,2.7,19.3,6.9,23.9,12.6,5.6,7.3,5.6,15.9.1,25.9-5.5,9.8-15.7,20.5-30.6,31.9,10.2-9.1,16.9-17.6,20.2-25.4,3.2-7.8,2.6-14.6-2-20.4-4.7-5.7-12.6-9.8-23.7-12.5-11.1-2.6-24.7-3.8-40.9-3.7-16.2.3-34.3,1.9-54.1,4.9-19.8,3-40.9,7.3-63.2,12.9-22.2,5.6-44.8,12.5-67.9,20.6-22.6,7.9-43.5,16.3-62.5,25.2-19.1,8.7-36,17.6-50.7,26.5-14.7,9-26.8,17.8-36.4,26.2"/>
  <path class="cls-2" d="M390.7,621.1c11.6-1.1,23.9-2.7,36.9-4.9l-8.9-16.5c-14.3,1-26.7,1-37.5-.1,10.9,0,23-.6,36.3-2.2l-92-170.2,120.7,42.8-191.5-105.3,136,256.4M559.1,435.4l-104.5,156c17.7-3.5,36-8.1,55.1-13.8l131-221.2-218.8,155.9,137.2-76.8M439.4,614.2c18.1-3.4,37-7.8,56.6-13l9.7-16.5c-18.9,5-37,8.8-54.1,11.4l-12.2,18.1M396.3,631.8l38.4,72.5,54.1-91.5c-16.4,4.5-32.4,8.4-48,11.6-15.6,3.2-30.4,5.6-44.5,7.3M398.7,507.2l29.5,18.5,35-16.9-33,63.5-31.5-65.1"/>
  <path class="cls-1" d="M369.7,597.5c12.2,1.2,26.4,1.1,42.6-.3,16.3-1.4,33.9-4.1,52.8-8,18.8-3.8,38.3-8.8,58.4-15,22.2-7,42.2-14.6,59.9-22.7,17.8-8.1,32.6-16.3,44.6-24.5,12-8.2,20.4-16,25.2-23.3,4.8-7.4,5.2-13.8,1.4-19.4-4.1-5.6-11.8-9.5-23.1-11.8-11.4-2.3-25.5-3-42.5-2.2,12.7,0,23.4,1.2,31.9,3.5,8.6,2.3,14.4,5.6,17.6,10,3.8,5.5,3.2,11.9-1.6,19.1-4.8,7.3-13.2,15-25.2,23.1-12.1,8.2-27,16.3-44.8,24.4-17.8,8-37.7,15.5-59.9,22.6-17.3,5.3-34.1,9.8-50.5,13.4-16.4,3.6-32,6.3-46.7,8.1-14.6,1.9-28,2.8-40.2,2.8M689.7,504c-7.9,9.6-19.4,19.6-34.6,30-15.3,10.4-33.6,20.7-54.9,31-21.4,10.4-45.2,20.2-71.4,29.4-23.1,8.1-45.8,15-68.1,20.6-22.2,5.6-43.2,9.9-63.2,12.9-19.9,2.9-38.1,4.4-54.4,4.6-16.2.2-29.9-1.1-41.1-3.8-11.3-2.7-19.3-6.9-23.9-12.6-5.6-7.3-5.6-15.9-.1-25.9,5.5-9.8,15.7-20.5,30.6-31.9-10.2,9.1-16.9,17.6-20.2,25.4-3.2,7.8-2.6,14.6,2,20.4,4.7,5.7,12.6,9.8,23.7,12.5,11.1,2.6,24.7,3.8,40.9,3.7,16.2-.3,34.3-1.9,54.1-4.9,19.8-3,40.9-7.3,63.2-12.9,22.2-5.6,44.8-12.5,67.9-20.6,22.6-7.9,43.5-16.3,62.5-25.2,19.1-8.7,36-17.6,50.7-26.5,14.7-9,26.8-17.8,36.4-26.2"/>
</svg>