<svg id="Layer_4" data-name="Layer 4" xmlns="http://www.w3.org/2000/svg" version="1.1" viewBox="0 0 696.8 911.8"><defs><style>.cls-1,.cls-2{fill:#1c1e1f;stroke-width:0}.cls-2{fill:#2c2c2d;fill-rule:evenodd}</style></defs><rect class="cls-1" x="-9" y="-9" width="714.8" height="929.8"/><g><g><path class="cls-2" d="M61.9,12.5l33.8,21.2,40.1-19.4-37.8,72.7L61.9,12.5"/><path class="cls-2" d="M134.5,162.8l-33.8-21.2-40.1,19.4,37.8-72.7,36.1,74.5"/></g><g><path class="cls-2" d="M79.4,87l-33.8-21.2L5.5,85.1,43.3,12.5l36.1,74.5"/><path class="cls-2" d="M5.5,85.7l33.8,21.2,40.1-19.4-37.8,72.7L5.5,85.7"/></g><g><path class="cls-2" d="M173.4,12.5l33.8,21.2,40.1-19.4-37.8,72.7L173.4,12.5"/><path class="cls-2" d="M246,162.8l-33.8-21.2-40.1,19.4,37.8-72.7,36.1,74.5"/></g><g><path class="cls-2" d="M190.9,87l-33.8-21.2-40.1,19.4L154.8,12.5l36.1,74.5"/><path class="cls-2" d="M117,85.7l33.8,21.2,40.1-19.4-37.8,72.7-36.1-74.5"/></g><g><path class="cls-2" d="M284.9,12.5l33.8,21.2,40.1-19.4-37.8,72.7-36.1-74.5"/><path class="cls-2" d="M357.5,162.8l-33.8-21.2-40.1,19.4,37.8-72.7,36.1,74.5"/></g><g><path class="cls-2" d="M302.4,87l-33.8-21.2-40.1,19.4,37.8-72.7,36.1,74.5"/><path class="cls-2" d="M228.5,85.7l33.8,21.2,40.1-19.4-37.8,72.7-36.1-74.5"/></g><g><path class="cls-2" d="M396.4,12.5l33.8,21.2,40.1-19.4-37.8,72.7-36.1-74.5"/><path class="cls-2" d="M469,162.8l-33.8-21.2-40.1,19.4,37.8-72.7,36.1,74.5"/></g><g><path class="cls-2" d="M413.9,87l-33.8-21.2-40.1,19.4,37.8-72.7,36.1,74.5"/><path class="cls-2" d="M340,85.7l33.8,21.2,40.1-19.4-37.8,72.7-36.1-74.5"/></g><g><path class="cls-2" d="M507.9,12.5l33.8,21.2,40.1-19.4-37.8,72.7-36.1-74.5"/><path class="cls-2" d="M580.5,162.8l-33.8-21.2-40.1,19.4,37.8-72.7,36.1,74.5"/></g><g><path class="cls-2" d="M525.4,87l-33.8-21.2-40.1,19.4,37.8-72.7,36.1,74.5"/><path class="cls-2" d="M451.5,85.7l33.8,21.2,40.1-19.4-37.8,72.7-36.1-74.5"/></g><g><path class="cls-2" d="M619.4,12.5l33.8,21.2,40.1-19.4-37.8,72.7-36.1-74.5"/><path class="cls-2" d="M692,162.8l-33.8-21.2-40.1,19.4,37.8-72.7,36.1,74.5"/></g><g><path class="cls-2" d="M636.9,87l-33.8-21.2-40.1,19.4,37.8-72.7,36.1,74.5"/><path class="cls-2" d="M563,85.7l33.8,21.2,40.1-19.4-37.8,72.7-36.1-74.5"/></g><g><path class="cls-2" d="M60.6,160.2l33.8,21.2,40.1-19.4-37.8,72.7-36.1-74.5"/><path class="cls-2" d="M133.1,310.5l-33.8-21.2-40.1,19.4,37.8-72.7,36.1,74.5"/></g><g><path class="cls-2" d="M78,234.7l-33.8-21.2-40.1,19.4,37.8-72.7,36.1,74.5"/><path class="cls-2" d="M4.2,233.4l33.8,21.2,40.1-19.4-37.8,72.7L4.2,233.4"/></g><g><path class="cls-2" d="M172.1,160.2l33.8,21.2,40.1-19.4-37.8,72.7-36.1-74.5"/><path class="cls-2" d="M244.6,310.5l-33.8-21.2-40.1,19.4,37.8-72.7,36.1,74.5"/></g><g><path class="cls-2" d="M189.5,234.7l-33.8-21.2-40.1,19.4,37.8-72.7,36.1,74.5"/><path class="cls-2" d="M115.7,233.4l33.8,21.2,40.1-19.4-37.8,72.7-36.1-74.5"/></g><g><path class="cls-2" d="M283.6,160.2l33.8,21.2,40.1-19.4-37.8,72.7-36.1-74.5"/><path class="cls-2" d="M356.1,310.5l-33.8-21.2-40.1,19.4,37.8-72.7,36.1,74.5"/></g><g><path class="cls-2" d="M301,234.7l-33.8-21.2-40.1,19.4,37.8-72.7,36.1,74.5"/><path class="cls-2" d="M227.2,233.4l33.8,21.2,40.1-19.4-37.8,72.7-36.1-74.5"/></g><g><path class="cls-2" d="M395.1,160.2l33.8,21.2,40.1-19.4-37.8,72.7-36.1-74.5"/><path class="cls-2" d="M467.6,310.5l-33.8-21.2-40.1,19.4,37.8-72.7,36.1,74.5"/></g><g><path class="cls-2" d="M412.6,234.7l-33.8-21.2-40.1,19.4,37.8-72.7,36.1,74.5"/><path class="cls-2" d="M338.7,233.4l33.8,21.2,40.1-19.4-37.8,72.7-36.1-74.5"/></g><g><path class="cls-2" d="M506.6,160.2l33.8,21.2,40.1-19.4-37.8,72.7-36.1-74.5"/><path class="cls-2" d="M579.1,310.5l-33.8-21.2-40.1,19.4,37.8-72.7,36.1,74.5"/></g><g><path class="cls-2" d="M524.1,234.7l-33.8-21.2-40.1,19.4,37.8-72.7,36.1,74.5"/><path class="cls-2" d="M450.2,233.4l33.8,21.2,40.1-19.4-37.8,72.7-36.1-74.5"/></g><g><path class="cls-2" d="M618.1,160.2l33.8,21.2,40.1-19.4-37.8,72.7-36.1-74.5"/><path class="cls-2" d="M690.6,310.5l-33.8-21.2-40.1,19.4,37.8-72.7,36.1,74.5"/></g><g><path class="cls-2" d="M635.6,234.7l-33.8-21.2-40.1,19.4,37.8-72.7,36.1,74.5"/><path class="cls-2" d="M561.7,233.4l33.8,21.2,40.1-19.4-37.8,72.7-36.1-74.5"/></g><g><path class="cls-2" d="M59.2,308.6l33.8,21.2,40.1-19.4-37.8,72.7-36.1-74.5"/><path class="cls-2" d="M131.8,458.9l-33.8-21.2-40.1,19.4,37.8-72.7,36.1,74.5"/></g><g><path class="cls-2" d="M76.7,383.1l-33.8-21.2-40.1,19.4,37.8-72.7,36.1,74.5"/><path class="cls-2" d="M2.8,381.8l33.8,21.2,40.1-19.4-37.8,72.7L2.8,381.8"/></g><g><path class="cls-2" d="M170.7,308.6l33.8,21.2,40.1-19.4-37.8,72.7-36.1-74.5"/><path class="cls-2" d="M243.3,458.9l-33.8-21.2-40.1,19.4,37.8-72.7,36.1,74.5"/></g><g><path class="cls-2" d="M188.2,383.1l-33.8-21.2-40.1,19.4,37.8-72.7,36.1,74.5"/><path class="cls-2" d="M114.3,381.8l33.8,21.2,40.1-19.4-37.8,72.7-36.1-74.5"/></g><g><path class="cls-2" d="M282.3,308.6l33.8,21.2,40.1-19.4-37.8,72.7-36.1-74.5"/><path class="cls-2" d="M354.8,458.9l-33.8-21.2-40.1,19.4,37.8-72.7,36.1,74.5"/></g><g><path class="cls-2" d="M299.7,383.1l-33.8-21.2-40.1,19.4,37.8-72.7,36.1,74.5"/><path class="cls-2" d="M225.8,381.8l33.8,21.2,40.1-19.4-37.8,72.7-36.1-74.5"/></g><g><path class="cls-2" d="M393.8,308.6l33.8,21.2,40.1-19.4-37.8,72.7-36.1-74.5"/><path class="cls-2" d="M466.3,458.9l-33.8-21.2-40.1,19.4,37.8-72.7,36.1,74.5"/></g><g><path class="cls-2" d="M411.2,383.1l-33.8-21.2-40.1,19.4,37.8-72.7,36.1,74.5"/><path class="cls-2" d="M337.3,381.8l33.8,21.2,40.1-19.4-37.8,72.7-36.1-74.5"/></g><g><path class="cls-2" d="M505.3,308.6l33.8,21.2,40.1-19.4-37.8,72.7-36.1-74.5"/><path class="cls-2" d="M577.8,458.9l-33.8-21.2-40.1,19.4,37.8-72.7,36.1,74.5"/></g><g><path class="cls-2" d="M522.7,383.1l-33.8-21.2-40.1,19.4,37.8-72.7,36.1,74.5"/><path class="cls-2" d="M448.8,381.8l33.8,21.2,40.1-19.4-37.8,72.7-36.1-74.5"/></g><g><path class="cls-2" d="M616.8,308.6l33.8,21.2,40.1-19.4-37.8,72.7-36.1-74.5"/><path class="cls-2" d="M689.3,458.9l-33.8-21.2-40.1,19.4,37.8-72.7,36.1,74.5"/></g><g><path class="cls-2" d="M634.2,383.1l-33.8-21.2-40.1,19.4,37.8-72.7,36.1,74.5"/><path class="cls-2" d="M560.3,381.8l33.8,21.2,40.1-19.4-37.8,72.7-36.1-74.5"/></g></g><g><g><path class="cls-2" d="M61.9,457.4l33.8,21.2,40.1-19.4-37.8,72.7-36.1-74.5"/><path class="cls-2" d="M134.5,607.8l-33.8-21.2-40.1,19.4,37.8-72.7,36.1,74.5"/></g><g><path class="cls-2" d="M79.4,531.9l-33.8-21.2-40.1,19.4,37.8-72.7,36.1,74.5"/><path class="cls-2" d="M5.5,530.6l33.8,21.2,40.1-19.4-37.8,72.7-36.1-74.5"/></g><g><path class="cls-2" d="M173.4,457.4l33.8,21.2,40.1-19.4-37.8,72.7-36.1-74.5"/><path class="cls-2" d="M246,607.8l-33.8-21.2-40.1,19.4,37.8-72.7,36.1,74.5"/></g><g><path class="cls-2" d="M190.9,531.9l-33.8-21.2-40.1,19.4,37.8-72.7,36.1,74.5"/><path class="cls-2" d="M117,530.6l33.8,21.2,40.1-19.4-37.8,72.7-36.1-74.5"/></g><g><path class="cls-2" d="M284.9,457.4l33.8,21.2,40.1-19.4-37.8,72.7-36.1-74.5"/><path class="cls-2" d="M357.5,607.8l-33.8-21.2-40.1,19.4,37.8-72.7,36.1,74.5"/></g><g><path class="cls-2" d="M302.4,531.9l-33.8-21.2-40.1,19.4,37.8-72.7,36.1,74.5"/><path class="cls-2" d="M228.5,530.6l33.8,21.2,40.1-19.4-37.8,72.7-36.1-74.5"/></g><g><path class="cls-2" d="M396.4,457.4l33.8,21.2,40.1-19.4-37.8,72.7-36.1-74.5"/><path class="cls-2" d="M469,607.8l-33.8-21.2-40.1,19.4,37.8-72.7,36.1,74.5"/></g><g><path class="cls-2" d="M413.9,531.9l-33.8-21.2-40.1,19.4,37.8-72.7,36.1,74.5"/><path class="cls-2" d="M340,530.6l33.8,21.2,40.1-19.4-37.8,72.7-36.1-74.5"/></g><g><path class="cls-2" d="M507.9,457.4l33.8,21.2,40.1-19.4-37.8,72.7-36.1-74.5"/><path class="cls-2" d="M580.5,607.8l-33.8-21.2-40.1,19.4,37.8-72.7,36.1,74.5"/></g><g><path class="cls-2" d="M525.4,531.9l-33.8-21.2-40.1,19.4,37.8-72.7,36.1,74.5"/><path class="cls-2" d="M451.5,530.6l33.8,21.2,40.1-19.4-37.8,72.7-36.1-74.5"/></g><g><path class="cls-2" d="M619.4,457.4l33.8,21.2,40.1-19.4-37.8,72.7-36.1-74.5"/><path class="cls-2" d="M692,607.8l-33.8-21.2-40.1,19.4,37.8-72.7,36.1,74.5"/></g><g><path class="cls-2" d="M636.9,531.9l-33.8-21.2-40.1,19.4,37.8-72.7,36.1,74.5"/><path class="cls-2" d="M563,530.6l33.8,21.2,40.1-19.4-37.8,72.7-36.1-74.5"/></g><g><path class="cls-2" d="M60.6,605.1l33.8,21.2,40.1-19.4-37.8,72.7-36.1-74.5"/><path class="cls-2" d="M133.1,755.5l-33.8-21.2-40.1,19.4,37.8-72.7,36.1,74.5"/></g><g><path class="cls-2" d="M78,679.7l-33.8-21.2-40.1,19.4,37.8-72.7,36.1,74.5"/><path class="cls-2" d="M4.2,678.4l33.8,21.2,40.1-19.4-37.8,72.7-36.1-74.5"/></g><g><path class="cls-2" d="M172.1,605.1l33.8,21.2,40.1-19.4-37.8,72.7-36.1-74.5"/><path class="cls-2" d="M244.6,755.5l-33.8-21.2-40.1,19.4,37.8-72.7,36.1,74.5"/></g><g><path class="cls-2" d="M189.5,679.7l-33.8-21.2-40.1,19.4,37.8-72.7,36.1,74.5"/><path class="cls-2" d="M115.7,678.4l33.8,21.2,40.1-19.4-37.8,72.7-36.1-74.5"/></g><g><path class="cls-2" d="M283.6,605.1l33.8,21.2,40.1-19.4-37.8,72.7-36.1-74.5"/><path class="cls-2" d="M356.1,755.5l-33.8-21.2-40.1,19.4,37.8-72.7,36.1,74.5"/></g><g><path class="cls-2" d="M301,679.7l-33.8-21.2-40.1,19.4,37.8-72.7,36.1,74.5"/><path class="cls-2" d="M227.2,678.4l33.8,21.2,40.1-19.4-37.8,72.7-36.1-74.5"/></g><g><path class="cls-2" d="M395.1,605.1l33.8,21.2,40.1-19.4-37.8,72.7-36.1-74.5"/><path class="cls-2" d="M467.6,755.5l-33.8-21.2-40.1,19.4,37.8-72.7,36.1,74.5"/></g><g><path class="cls-2" d="M412.6,679.7l-33.8-21.2-40.1,19.4,37.8-72.7,36.1,74.5"/><path class="cls-2" d="M338.7,678.4l33.8,21.2,40.1-19.4-37.8,72.7-36.1-74.5"/></g><g><path class="cls-2" d="M506.6,605.1l33.8,21.2,40.1-19.4-37.8,72.7-36.1-74.5"/><path class="cls-2" d="M579.1,755.5l-33.8-21.2-40.1,19.4,37.8-72.7,36.1,74.5"/></g><g><path class="cls-2" d="M524.1,679.7l-33.8-21.2-40.1,19.4,37.8-72.7,36.1,74.5"/><path class="cls-2" d="M450.2,678.4l33.8,21.2,40.1-19.4-37.8,72.7-36.1-74.5"/></g><g><path class="cls-2" d="M618.1,605.1l33.8,21.2,40.1-19.4-37.8,72.7-36.1-74.5"/><path class="cls-2" d="M690.6,755.5l-33.8-21.2-40.1,19.4,37.8-72.7,36.1,74.5"/></g><g><path class="cls-2" d="M635.6,679.7l-33.8-21.2-40.1,19.4,37.8-72.7,36.1,74.5"/><path class="cls-2" d="M561.7,678.4l33.8,21.2,40.1-19.4-37.8,72.7-36.1-74.5"/></g><g><path class="cls-2" d="M59.2,753.5l33.8,21.2,40.1-19.4-37.8,72.7-36.1-74.5"/><path class="cls-2" d="M131.8,903.9l-33.8-21.2-40.1,19.4,37.8-72.7,36.1,74.5"/></g><g><path class="cls-2" d="M76.7,828l-33.8-21.2-40.1,19.4,37.8-72.7,36.1,74.5"/><path class="cls-2" d="M2.8,826.8l33.8,21.2,40.1-19.4-37.8,72.7L2.8,826.8"/></g><g><path class="cls-2" d="M170.7,753.5l33.8,21.2,40.1-19.4-37.8,72.7-36.1-74.5"/><path class="cls-2" d="M243.3,903.9l-33.8-21.2-40.1,19.4,37.8-72.7,36.1,74.5"/></g><g><path class="cls-2" d="M188.2,828l-33.8-21.2-40.1,19.4,37.8-72.7,36.1,74.5"/><path class="cls-2" d="M114.3,826.8l33.8,21.2,40.1-19.4-37.8,72.7-36.1-74.5"/></g><g><path class="cls-2" d="M282.3,753.5l33.8,21.2,40.1-19.4-37.8,72.7-36.1-74.5"/><path class="cls-2" d="M354.8,903.9l-33.8-21.2-40.1,19.4,37.8-72.7,36.1,74.5"/></g><g><path class="cls-2" d="M299.7,828l-33.8-21.2-40.1,19.4,37.8-72.7,36.1,74.5"/><path class="cls-2" d="M225.8,826.8l33.8,21.2,40.1-19.4-37.8,72.7-36.1-74.5"/></g><g><path class="cls-2" d="M393.8,753.5l33.8,21.2,40.1-19.4-37.8,72.7-36.1-74.5"/><path class="cls-2" d="M466.3,903.9l-33.8-21.2-40.1,19.4,37.8-72.7,36.1,74.5"/></g><g><path class="cls-2" d="M411.2,828l-33.8-21.2-40.1,19.4,37.8-72.7,36.1,74.5"/><path class="cls-2" d="M337.3,826.8l33.8,21.2,40.1-19.4-37.8,72.7-36.1-74.5"/></g><g><path class="cls-2" d="M505.3,753.5l33.8,21.2,40.1-19.4-37.8,72.7-36.1-74.5"/><path class="cls-2" d="M577.8,903.9l-33.8-21.2-40.1,19.4,37.8-72.7,36.1,74.5"/></g><g><path class="cls-2" d="M522.7,828l-33.8-21.2-40.1,19.4,37.8-72.7,36.1,74.5"/><path class="cls-2" d="M448.8,826.8l33.8,21.2,40.1-19.4-37.8,72.7-36.1-74.5"/></g><g><path class="cls-2" d="M616.8,753.5l33.8,21.2,40.1-19.4-37.8,72.7-36.1-74.5"/><path class="cls-2" d="M689.3,903.9l-33.8-21.2-40.1,19.4,37.8-72.7,36.1,74.5"/></g><g><path class="cls-2" d="M634.2,828l-33.8-21.2-40.1,19.4,37.8-72.7,36.1,74.5"/><path class="cls-2" d="M560.3,826.8l33.8,21.2,40.1-19.4-37.8,72.7-36.1-74.5"/></g></g></svg>