<svg id="Layer_4" data-name="Layer 4" xmlns="http://www.w3.org/2000/svg" xmlns:xlink="http://www.w3.org/1999/xlink" version="1.1" viewBox="0 0 696.8 911.8"><defs><style>.cls-1{fill:#ac2428}.cls-1,.cls-2,.cls-3{stroke-width:0}.cls-1,.cls-3{fill-rule:evenodd}.cls-4{clip-path:url(#clippath)}.cls-2{fill:none}.cls-5{clip-path:url(#clippath-1)}.cls-3{fill:#1c1e1f}</style><clipPath id="clippath"><rect class="cls-2" x="811.1" y="-10.7" width="716.8" height="931.6"/></clipPath><clipPath id="clippath-1"><rect class="cls-2" x="2" y="-9" width="714.8" height="931.1"/></clipPath></defs><g class="cls-4"><path class="cls-3" d="M930.5,214.5c-31.5,2.9-64.8,7.3-99.9,13.1l24.2,44.7c38.6-2.7,72.4-2.6,101.4.3-29.5-.2-62.2,1.8-98.1,5.9l249,460.6-326.7-115.7,518.2,284.9L930.5,214.5M474.6,716.8l282.7-422.2c-47.9,9.5-97.5,22-149.1,37.4L253.8,930.7l592.1-421.8-371.3,208M798.7,233.1c-49.1,9.3-100.1,21-153.1,35.1l-26.4,44.7c51.3-13.4,100.1-23.7,146.5-30.7l32.9-49.1M915.1,185.5L811.1-10.7l-146.4,247.5c44.4-12.2,87.7-22.7,130-31.5,42.2-8.6,82.4-15.2,120.5-19.8M908.9,522.8l-79.8-50.2-94.8,45.8,89.3-171.8,85.3,176.2"/><path class="cls-1" d="M987.2,278.2c-32.9-3.2-71.4-3-115.3.7-44.2,3.9-91.8,11.2-142.8,21.6-51,10.2-103.7,23.8-158.2,40.6-60.1,19-114.1,39.6-162.2,61.5-48.1,22-88.4,44-120.8,66.3-32.5,22.2-55.2,43.2-68.1,63-12.9,20-14.2,37.5-3.7,52.4,11,15.1,31.8,25.7,62.6,31.8,30.8,6.1,69.1,8,115,5.9-34.5,0-63.3-3.2-86.4-9.6-23.2-6.1-39.1-15.1-47.6-27.1-10.3-14.9-8.8-32.1,4.4-51.6,13-19.8,35.7-40.6,68.1-62.6,32.7-22.2,73.1-44.2,121.2-65.9,48.1-21.7,102.2-42.1,162.2-61.1,46.9-14.4,92.4-26.5,136.6-36.2,44.5-9.8,86.5-17.1,126.3-22,39.5-5.1,75.8-7.7,108.7-7.7M121.2,531.2c21.3-25.9,52.5-53,93.7-81.3,41.3-28.1,90.8-56,148.7-83.9,57.9-28.1,122.3-54.5,193.3-79.5,62.5-22,123.9-40.5,184.2-55.6,60-15.2,117-26.8,171-34.8,54-7.8,103-12,147.2-12.5,43.9-.5,81,2.9,111.3,10.2,30.5,7.4,52.1,18.7,64.8,34,15.2,19.8,15.3,43.1.4,70-14.9,26.6-42.5,55.4-82.8,86.4,27.6-24.7,45.8-47.6,54.6-68.9,8.8-21.2,6.9-39.6-5.5-55.3-12.7-15.4-34-26.7-64.1-33.7-30-7.1-66.9-10.4-110.6-9.9-44,.8-92.7,5.1-146.5,13.2-53.7,8.1-110.7,19.7-171,34.8-60.1,15.1-121.3,33.7-183.8,55.6-61.3,21.5-117.7,44.2-169.2,68.1-51.7,23.6-97.5,47.6-137.3,71.8-39.8,24.4-72.6,48.1-98.5,71"/></g><g class="cls-5"><g><path class="cls-3" d="M821.6,218.8c-30.6,2.8-62.9,7.1-97.1,12.8l23.5,43.4c37.5-2.6,70.3-2.5,98.5.3-28.7-.2-60.5,1.7-95.3,5.7l241.9,447.5-317.3-112.4,503.3,276.7L821.6,218.8M378.7,706.8l274.6-410.1c-46.5,9.3-94.7,21.3-144.8,36.3L164.3,914.5l575.2-409.7-360.7,202M693.5,236.9c-47.6,9-97.2,20.4-148.7,34.1l-25.6,43.4c49.8-13.1,97.2-23,142.3-29.9l32-47.7M806.7,190.6L705.6,0l-142.3,240.4c43.1-11.8,85.2-22,126.3-30.6,41-8.3,80-14.7,117-19.2M800.6,518.2l-77.5-48.7-92.1,44.5,86.8-166.9,82.9,171.1"/><path class="cls-1" d="M876.7,280.6c-32-3.1-69.3-2.9-112,.7-42.9,3.8-89.2,10.8-138.7,21-49.5,10-100.8,23.1-153.6,39.5-58.3,18.5-110.9,38.4-157.6,59.8-46.7,21.3-85.8,42.8-117.3,64.4-31.6,21.6-53.6,42-66.2,61.2-12.6,19.5-13.8,36.4-3.6,50.9,10.7,14.7,30.9,25,60.8,30.9,29.9,5.9,67.1,7.8,111.7,5.7-33.5,0-61.4-3.1-83.9-9.3-22.6-5.9-38-14.7-46.2-26.3-10-14.5-8.5-31.2,4.3-50.2,12.6-19.2,34.6-39.5,66.2-60.8,31.8-21.6,71-42.9,117.8-64,46.7-21.1,99.2-40.9,157.6-59.4,45.5-14,89.8-25.7,132.7-35.2,43.2-9.5,84.1-16.6,122.7-21.3,38.4-5,73.6-7.5,105.6-7.5M35.5,526.4c20.6-25.1,51-51.5,91-78.9,40.1-27.3,88.2-54.4,144.4-81.5,56.2-27.3,118.8-53,187.8-77.2,60.7-21.3,120.3-39.4,179-54,58.3-14.7,113.7-26,166.1-33.8,52.4-7.6,100.1-11.7,143-12.1,42.7-.5,78.7,2.9,108.1,10,29.7,7.1,50.6,18.2,63,33.1,14.7,19.2,14.8,41.8.4,68-14.5,25.8-41.2,53.8-80.4,83.9,26.8-24,44.5-46.2,53-66.9,8.5-20.6,6.7-38.5-5.4-53.7-12.3-14.9-33-25.9-62.2-32.7-29.2-6.9-65-10.1-107.4-9.6-42.7.7-90.1,5-142.3,12.8-52.2,7.8-107.5,19.1-166.1,33.8-58.3,14.7-117.9,32.7-178.6,54-59.5,20.9-114.3,42.9-164.3,66.2-50.2,23-94.7,46.2-133.4,69.7-38.7,23.7-70.5,46.7-95.7,69"/></g></g></svg>