<?xml version="1.0" encoding="UTF-8"?> <svg xmlns="http://www.w3.org/2000/svg" id="Layer_1" data-name="Layer 1" viewBox="0 0 119.26 52"><path d="M0,0V52H119.26V0H0ZM116.09,48.83H3.17V3.17H116.09V48.83ZM17.25,27.3c0-5.88,4.94-9.34,9.37-9.34,3.17,0,6.13,1.2,7.72,3.95l-2.96,1.73c-.51-.78-1.21-1.41-2.03-1.85-.82-.44-1.73-.66-2.67-.65-2.61,0-5.71,2.04-5.71,6.1s2.96,6.13,5.95,6.13c2.08,0,3.81-1.16,4.83-2.96l3.03,1.41c-1.72,3.1-4.78,4.75-8.34,4.75-4.48,0-9.2-3.46-9.2-9.27Zm28.12,9.26c2.46,0,4.79-1.09,5.99-2.68v2.18h3.66V18.42h-3.66v2.19c-1.14-1.6-3.52-2.64-5.99-2.64-5.39,0-9.16,3.95-9.16,9.3s3.81,9.3,9.16,9.3Zm.35-15.25c3.38,0,5.7,2.53,5.7,5.95s-2.33,5.95-5.7,5.95-5.78-2.57-5.78-6.02,2.4-5.88,5.78-5.88Zm27.79,.52h-2.82v-3.53h2.85v-5.21h3.77v5.21h3.91v3.53h-3.91v14.23h-3.81v-14.23Zm18.15,14.73c2.47,0,4.79-1.09,5.99-2.68v2.18h3.66V18.42h-3.66v2.19c-1.14-1.6-3.52-2.64-5.99-2.64-5.39,0-9.16,3.95-9.16,9.3s3.8,9.3,9.16,9.3Zm.36-15.25c3.38,0,5.71,2.53,5.71,5.95s-2.33,5.95-5.71,5.95-5.78-2.57-5.78-6.02,2.4-5.88,5.78-5.88Zm-29.42,14.73h-3.81V18.39h3.49v3.07c.72-1.99,2.25-3.35,4.27-3.35,.44,0,.88,.04,1.3,.14v3.41c-2.84-.33-5.25,1.66-5.25,6.2v8.18Z"></path></svg> 